{
.appVersion = "1357";
DisplayStrings = (

glyphs = (
{
color = 6;
glyphname = .notdef;
lastChange = "2021-11-24 17:22:56 +0000";
layers = (
{
layerId = "9AA098C0-EDBC-463F-BC21-AFCD07A070D0";
paths = (
{
closed = 1;
nodes = (
"479 0 LINE",
"488 8 LINE",
"488 621 LINE",
"479 630 LINE",
"58 630 LINE",
"50 620 LINE",
"50 9 LINE",
"58 0 LINE"
);
},
{
closed = 1;
nodes = (
"154 150 LINE",
"244 316 LINE",
"154 479 LINE",
"173 514 LINE",
"263 350 LINE",
"354 514 LINE",
"373 479 LINE",
"283 314 LINE",
"373 150 LINE",
"354 116 LINE",
"263 279 LINE",
"173 116 LINE"
);
},
{
closed = 1;
nodes = (
"67 613 LINE",
"471 613 LINE",
"471 16 LINE",
"67 16 LINE"
);
},
{
closed = 1;
nodes = (
"102 49 LINE",
"437 49 LINE",
"437 577 LINE",
"102 577 LINE"
);
}
);
userData = {
assembly = "SVTCA[0]	/* SetFreedomAndProjectionVectorToAxis */\012PUSHW[ ]	/* 1 value pushed */\0122 \012MDAP[1]	/* MoveDirectAbsPt */\012PUSHW[ ]	/* 1 value pushed */\0120 \012RCVT[ ]	/* ReadCVT */\012IF[ ]	/* If */\012PUSHW[ ]	/* 1 value pushed */\0126 \012MDAP[1]	/* MoveDirectAbsPt */\012ELSE[ ]	/* Else */\012PUSHW[ ]	/* 2 values pushed */\0126 5 \012MIAP[0]	/* MoveIndirectAbsPt */\012EIF[ ]	/* EndIf */\012PUSHW[ ]	/* 3 values pushed */\01216 6 2 \012SRP1[ ]	/* SetRefPoint1 */\012SRP2[ ]	/* SetRefPoint2 */\012IP[ ]	/* InterpolatePts */\012PUSHW[ ]	/* 3 values pushed */\01217 6 2 \012SRP1[ ]	/* SetRefPoint1 */\012SRP2[ ]	/* SetRefPoint2 */\012IP[ ]	/* InterpolatePts */\012PUSHW[ ]	/* 3 values pushed */\01218 6 2 \012SRP1[ ]	/* SetRefPoint1 */\012SRP2[ ]	/* SetRefPoint2 */\012IP[ ]	/* InterpolatePts */\012PUSHW[ ]	/* 3 values pushed */\01222 6 2 \012SRP1[ ]	/* SetRefPoint1 */\012SRP2[ ]	/* SetRefPoint2 */\012IP[ ]	/* InterpolatePts */\012PUSHW[ ]	/* 3 values pushed */\01223 6 2 \012SRP1[ ]	/* SetRefPoint1 */\012SRP2[ ]	/* SetRefPoint2 */\012IP[ ]	/* InterpolatePts */\012PUSHW[ ]	/* 3 values pushed */\01224 6 2 \012SRP1[ ]	/* SetRefPoint1 */\012SRP2[ ]	/* SetRefPoint2 */\012IP[ ]	/* InterpolatePts */\012IUP[0]	/* InterpolateUntPts */\012IUP[1]	/* InterpolateUntPts */";
};
width = 538;
}
);
note = .notdef;
},
{
color = 6;
glyphname = A;
lastChange = "2021-12-01 12:51:26 +0000";
layers = (
{
anchors = (
{
name = bottom;
position = "{129, 0}";
},
{
name = ogonek;
position = "{295, 0}";
},
{
name = top;
position = "{212, 591}";
}
);
layerId = "9AA098C0-EDBC-463F-BC21-AFCD07A070D0";
paths = (
{
closed = 1;
nodes = (
"-17 0 LINE",
"46 164 LINE",
"254 164 LINE",
"274 0 LINE",
"286 0 LINE",
"218 591 LINE",
"205 591 LINE",
"-29 0 LINE"
);
},
{
closed = 1;
nodes = (
"195 534 LINE",
"208 572 LINE",
"212 532 LINE",
"253 174 LINE",
"51 174 LINE"
);
}
);
width = 327;
}
);
leftKerningGroup = A;
note = A;
rightKerningGroup = A;
unicode = 0041;
},
{
color = 6;
glyphname = AE;
lastChange = "2021-12-01 12:51:37 +0000";
layers = (
{
anchors = (
{
name = bottom;
position = "{290, 0}";
},
{
name = top;
position = "{372, 591}";
}
);
layerId = "9AA098C0-EDBC-463F-BC21-AFCD07A070D0";
paths = (
{
closed = 1;
nodes = (
"62 0 LINE",
"125 162 LINE",
"283 162 LINE",
"285 0 LINE",
"437 0 LINE",
"438 11 LINE",
"298 11 LINE",
"296 306 LINE",
"429 306 LINE",
"430 317 LINE",
"296 317 LINE",
"297 580 LINE",
"518 580 LINE",
"520 591 LINE",
"283 591 LINE",
"50 0 LINE"
);
},
{
closed = 1;
nodes = (
"284 568 LINE",
"284 173 LINE",
"130 173 LINE"
);
}
);
width = 650;
}
);
leftKerningGroup = A;
note = AE;
rightKerningGroup = E;
unicode = 00C6;
},
{
color = 6;
glyphname = B;
lastChange = "2021-11-24 18:05:11 +0000";
layers = (
{
background = {
paths = (
{
closed = 1;
nodes = (
"167 0 LINE SMOOTH",
"246 0 OFFCURVE",
"291 22 OFFCURVE",
"304 120 CURVE SMOOTH",
"317 209 LINE SMOOTH",
"318 216 OFFCURVE",
"318 223 OFFCURVE",
"318 229 CURVE SMOOTH",
"318 278 OFFCURVE",
"291 312 OFFCURVE",
"238 312 CURVE",
"297 321 OFFCURVE",
"334 363 OFFCURVE",
"341 419 CURVE SMOOTH",
"352 494 LINE SMOOTH",
"353 501 OFFCURVE",
"354 507 OFFCURVE",
"354 513 CURVE SMOOTH",
"354 568 OFFCURVE",
"314 591 OFFCURVE",
"259 591 CURVE SMOOTH",
"98 591 LINE",
"15 0 LINE"
);
},
{
closed = 1;
nodes = (
"70 306 LINE",
"203 306 LINE SMOOTH",
"263 306 OFFCURVE",
"307 289 OFFCURVE",
"307 233 CURVE SMOOTH",
"307 227 OFFCURVE",
"307 221 OFFCURVE",
"306 214 CURVE SMOOTH",
"293 125 LINE SMOOTH",
"281 33 OFFCURVE",
"241 11 OFFCURVE",
"165 11 CURVE SMOOTH",
"28 11 LINE"
);
},
{
closed = 1;
nodes = (
"108 580 LINE",
"257 580 LINE SMOOTH",
"307 580 OFFCURVE",
"341 558 OFFCURVE",
"341 511 CURVE SMOOTH",
"341 506 OFFCURVE",
"341 501 OFFCURVE",
"340 496 CURVE SMOOTH",
"330 420 LINE SMOOTH",
"319 355 OFFCURVE",
"276 317 OFFCURVE",
"199 317 CURVE SMOOTH",
"71 317 LINE"
);
}
);
};
layerId = "9AA098C0-EDBC-463F-BC21-AFCD07A070D0";
paths = (
{
closed = 1;
nodes = (
"167 0 LINE SMOOTH",
"246 0 OFFCURVE",
"291 22 OFFCURVE",
"304 120 CURVE SMOOTH",
"317 209 LINE SMOOTH",
"318 216 OFFCURVE",
"318 223 OFFCURVE",
"318 229 CURVE SMOOTH",
"318 277 OFFCURVE",
"291 311 OFFCURVE",
"238 311 CURVE",
"297 320 OFFCURVE",
"334 362 OFFCURVE",
"341 419 CURVE SMOOTH",
"352 494 LINE SMOOTH",
"353 501 OFFCURVE",
"354 507 OFFCURVE",
"354 513 CURVE SMOOTH",
"354 568 OFFCURVE",
"314 591 OFFCURVE",
"259 591 CURVE SMOOTH",
"98 591 LINE",
"15 0 LINE"
);
},
{
closed = 1;
nodes = (
"70 306 LINE",
"203 306 LINE SMOOTH",
"263 306 OFFCURVE",
"307 289 OFFCURVE",
"307 233 CURVE SMOOTH",
"307 227 OFFCURVE",
"307 221 OFFCURVE",
"306 214 CURVE SMOOTH",
"293 125 LINE SMOOTH",
"281 33 OFFCURVE",
"241 11 OFFCURVE",
"165 11 CURVE SMOOTH",
"28 11 LINE"
);
},
{
closed = 1;
nodes = (
"108 580 LINE",
"257 580 LINE SMOOTH",
"307 580 OFFCURVE",
"341 558 OFFCURVE",
"341 511 CURVE SMOOTH",
"341 506 OFFCURVE",
"341 501 OFFCURVE",
"340 496 CURVE SMOOTH",
"330 420 LINE SMOOTH",
"319 354 OFFCURVE",
"276 316 OFFCURVE",
"199 316 CURVE SMOOTH",
"71 316 LINE"
);
}
);
userData = {
assembly = "PUSHW[ ]	/* 4 values pushed */\01219 4 13 4 \012CALL[ ]	/* CallFunction */\012PUSHW[ ]	/* 3 values pushed */\01233 13 19 \012SRP1[ ]	/* SetRefPoint1 */\012SRP2[ ]	/* SetRefPoint2 */\012IP[ ]	/* InterpolatePts */\012PUSHW[ ]	/* 1 value pushed */\01219 \012SRP0[ ]	/* SetRefPoint0 */\012PUSHW[ ]	/* 1 value pushed */\01246 \012MDRP[11100]	/* MoveDirectRelPt */\012IUP[0]	/* InterpolateUntPts */\012IUP[1]	/* InterpolateUntPts */";
};
width = 360;
}
);
leftMetricsKey = H;
note = B;
unicode = 0042;
},
{
color = 6;
glyphname = C;
lastChange = "2021-12-01 12:51:54 +0000";
layers = (
{
anchors = (
{
name = bottom;
position = "{143, -12}";
},
{
name = top;
position = "{229, 591}";
}
);
layerId = "9AA098C0-EDBC-463F-BC21-AFCD07A070D0";
paths = (
{
closed = 1;
nodes = (
"231 -12 OFFCURVE",
"284 9 OFFCURVE",
"299 118 CURVE SMOOTH",
"309 189 LINE",
"297 189 LINE",
"286 116 LINE SMOOTH",
"271 19 OFFCURVE",
"222 -3 OFFCURVE",
"145 -3 CURVE SMOOTH",
"76 -3 OFFCURVE",
"35 15 OFFCURVE",
"35 85 CURVE SMOOTH",
"35 95 OFFCURVE",
"35 105 OFFCURVE",
"37 116 CURVE SMOOTH",
"87 467 LINE SMOOTH",
"101 567 OFFCURVE",
"148 589 OFFCURVE",
"228 589 CURVE SMOOTH",
"301 589 OFFCURVE",
"339 573 OFFCURVE",
"339 505 CURVE SMOOTH",
"339 496 OFFCURVE",
"339 485 OFFCURVE",
"337 473 CURVE SMOOTH",
"324 381 LINE",
"336 381 LINE",
"348 469 LINE SMOOTH",
"350 482 OFFCURVE",
"351 494 OFFCURVE",
"351 505 CURVE SMOOTH",
"351 580 OFFCURVE",
"307 599 OFFCURVE",
"230 599 CURVE SMOOTH",
"142 599 OFFCURVE",
"90 577 OFFCURVE",
"75 469 CURVE SMOOTH",
"26 118 LINE SMOOTH",
"24 105 OFFCURVE",
"23 93 OFFCURVE",
"23 82 CURVE SMOOTH",
"23 7 OFFCURVE",
"67 -12 OFFCURVE",
"143 -12 CURVE SMOOTH"
);
}
);
width = 361;
}
);
leftKerningGroup = O;
leftMetricsKey = O;
note = C;
rightKerningGroup = C;
rightMetricsKey = O;
unicode = 0043;
},
{
color = 6;
glyphname = D;
lastChange = "2021-12-01 12:52:22 +0000";
layers = (
{
anchors = (
{
name = bottom;
position = "{149, 0}";
},
{
name = center;
position = "{108, 296}";
},
{
name = top;
position = "{216, 591}";
}
);
layerId = "9AA098C0-EDBC-463F-BC21-AFCD07A070D0";
paths = (
{
closed = 1;
nodes = (
"167 0 LINE SMOOTH",
"250 0 OFFCURVE",
"292 31 OFFCURVE",
"306 130 CURVE SMOOTH",
"352 461 LINE SMOOTH",
"354 475 OFFCURVE",
"355 487 OFFCURVE",
"355 498 CURVE SMOOTH",
"355 567 OFFCURVE",
"317 591 OFFCURVE",
"250 591 CURVE SMOOTH",
"98 591 LINE",
"15 0 LINE"
);
},
{
closed = 1;
nodes = (
"108 582 LINE",
"248 582 LINE SMOOTH",
"308 582 OFFCURVE",
"343 559 OFFCURVE",
"343 495 CURVE SMOOTH",
"343 485 OFFCURVE",
"342 474 OFFCURVE",
"340 461 CURVE SMOOTH",
"294 130 LINE SMOOTH",
"281 39 OFFCURVE",
"241 11 OFFCURVE",
"168 11 CURVE SMOOTH",
"28 11 LINE"
);
}
);
width = 367;
}
);
leftKerningGroup = H;
leftMetricsKey = H;
note = D;
rightKerningGroup = O;
rightMetricsKey = O;
unicode = 0044;
},
{
color = 11;
glyphname = Dcroat;
lastChange = "2021-11-24 17:22:57 +0000";
layers = (
{
layerId = "9AA098C0-EDBC-463F-BC21-AFCD07A070D0";
paths = (
{
closed = 1;
nodes = (
"217 0 LINE SMOOTH",
"295 0 OFFCURVE",
"341 32 OFFCURVE",
"356 130 CURVE SMOOTH",
"402 461 LINE SMOOTH",
"404 475 OFFCURVE",
"405 487 OFFCURVE",
"405 498 CURVE SMOOTH",
"405 567 OFFCURVE",
"367 591 OFFCURVE",
"300 591 CURVE SMOOTH",
"148 591 LINE",
"97 229 LINE",
"52 229 LINE",
"50 219 LINE",
"95 219 LINE",
"65 0 LINE"
);
},
{
closed = 1;
nodes = (
"107 219 LINE",
"181 219 LINE",
"183 229 LINE",
"109 229 LINE",
"158 582 LINE",
"306 582 LINE SMOOTH",
"359 582 OFFCURVE",
"393 560 OFFCURVE",
"393 496 CURVE SMOOTH",
"393 485 OFFCURVE",
"392 474 OFFCURVE",
"390 461 CURVE SMOOTH",
"343 126 LINE SMOOTH",
"330 41 OFFCURVE",
"293 11 OFFCURVE",
"226 11 CURVE SMOOTH",
"78 11 LINE"
);
}
);
userData = {
assembly = "PUSHW[ ]	/* 4 values pushed */\0129 4 21 4 \012CALL[ ]	/* CallFunction */\012PUSHW[ ]	/* 1 value pushed */\01221 \012SRP0[ ]	/* SetRefPoint0 */\012PUSHW[ ]	/* 1 value pushed */\01218 \012MDRP[10000]	/* MoveDirectRelPt */\012PUSHW[ ]	/* 1 value pushed */\01218 \012MDAP[1]	/* MoveDirectAbsPt */\012PUSHW[ ]	/* 1 value pushed */\0129 \012SRP0[ ]	/* SetRefPoint0 */\012PUSHW[ ]	/* 1 value pushed */\01235 \012MDRP[11100]	/* MoveDirectRelPt */\012SVTCA[0]	/* SetFreedomAndProjectionVectorToAxis */\012PUSHW[ ]	/* 1 value pushed */\01232 \012MDAP[1]	/* MoveDirectAbsPt */\012PUSHW[ ]	/* 1 value pushed */\0120 \012RCVT[ ]	/* ReadCVT */\012IF[ ]	/* If */\012PUSHW[ ]	/* 1 value pushed */\01214 \012MDAP[1]	/* MoveDirectAbsPt */\012ELSE[ ]	/* Else */\012PUSHW[ ]	/* 2 values pushed */\01214 5 \012MIAP[0]	/* MoveIndirectAbsPt */\012EIF[ ]	/* EndIf */\012IUP[0]	/* InterpolateUntPts */\012IUP[1]	/* InterpolateUntPts */";
};
width = 472;
}
);
leftKerningGroup = H;
note = Dcroat;
rightKerningGroup = O;
unicode = 0110;
},
{
color = 6;
glyphname = E;
lastChange = "2021-12-01 12:52:47 +0000";
layers = (
{
anchors = (
{
name = bottom;
position = "{131, 0}";
},
{
name = ogonek;
position = "{243, 0}";
},
{
name = top;
position = "{215, 591}";
},
{
name = topleft;
position = "{68, 591}";
}
);
background = {
paths = (
{
closed = 1;
nodes = (
"256 0 LINE",
"257 11 LINE",
"28 11 LINE",
"70 306 LINE",
"248 306 LINE",
"249 317 LINE",
"71 317 LINE",
"108 580 LINE",
"337 580 LINE",
"339 591 LINE",
"98 591 LINE",
"15 0 LINE"
);
}
);
};
layerId = "9AA098C0-EDBC-463F-BC21-AFCD07A070D0";
paths = (
{
closed = 1;
nodes = (
"256 0 LINE",
"257 11 LINE",
"28 11 LINE",
"70 306 LINE",
"248 306 LINE",
"249 316 LINE",
"71 316 LINE",
"108 580 LINE",
"337 580 LINE",
"339 591 LINE",
"98 591 LINE",
"15 0 LINE"
);
}
);
width = 305;
}
);
leftKerningGroup = H;
leftMetricsKey = H;
note = E;
rightKerningGroup = E;
unicode = 0045;
},
{
color = 6;
glyphname = F;
lastChange = "2021-12-01 12:52:54 +0000";
layers = (
{
background = {
paths = (
{
closed = 1;
nodes = (
"27 0 LINE",
"70 306 LINE",
"248 306 LINE",
"249 317 LINE",
"71 317 LINE",
"108 580 LINE",
"337 580 LINE",
"339 591 LINE",
"98 591 LINE",
"15 0 LINE"
);
}
);
};
layerId = "9AA098C0-EDBC-463F-BC21-AFCD07A070D0";
paths = (
{
closed = 1;
nodes = (
"27 0 LINE",
"70 306 LINE",
"248 306 LINE",
"249 316 LINE",
"71 316 LINE",
"108 580 LINE",
"337 580 LINE",
"339 591 LINE",
"98 591 LINE",
"15 0 LINE"
);
}
);
userData = {
assembly = "SVTCA[0]	/* SetFreedomAndProjectionVectorToAxis */\012PUSHW[ ]	/* 1 value pushed */\0120 \012RCVT[ ]	/* ReadCVT */\012IF[ ]	/* If */\012PUSHW[ ]	/* 1 value pushed */\0128 \012MDAP[1]	/* MoveDirectAbsPt */\012ELSE[ ]	/* Else */\012PUSHW[ ]	/* 2 values pushed */\0128 5 \012MIAP[0]	/* MoveIndirectAbsPt */\012EIF[ ]	/* EndIf */\012IUP[0]	/* InterpolateUntPts */\012IUP[1]	/* InterpolateUntPts */";
};
width = 300;
}
);
leftKerningGroup = H;
leftMetricsKey = H;
note = F;
rightKerningGroup = F;
unicode = 0046;
},
{
color = 6;
glyphname = G;
lastChange = "2021-12-01 12:53:08 +0000";
layers = (
{
anchors = (
{
name = bottom;
position = "{145, -10}";
},
{
name = top;
position = "{228, 591}";
}
);
layerId = "9AA098C0-EDBC-463F-BC21-AFCD07A070D0";
paths = (
{
closed = 1;
nodes = (
"204 -12 OFFCURVE",
"258 18 OFFCURVE",
"281 69 CURVE",
"275 0 LINE",
"282 0 LINE",
"320 266 LINE",
"201 266 LINE",
"199 257 LINE",
"306 257 LINE",
"287 118 LINE SMOOTH",
"277 44 OFFCURVE",
"214 -3 OFFCURVE",
"145 -3 CURVE SMOOTH",
"77 -3 OFFCURVE",
"35 14 OFFCURVE",
"35 83 CURVE SMOOTH",
"35 94 OFFCURVE",
"36 105 OFFCURVE",
"38 118 CURVE SMOOTH",
"87 468 LINE SMOOTH",
"101 566 OFFCURVE",
"142 589 OFFCURVE",
"228 589 CURVE SMOOTH",
"302 589 OFFCURVE",
"339 572 OFFCURVE",
"339 506 CURVE SMOOTH",
"339 495 OFFCURVE",
"338 482 OFFCURVE",
"336 468 CURVE SMOOTH",
"327 401 LINE",
"339 401 LINE",
"348 469 LINE SMOOTH",
"350 483 OFFCURVE",
"351 495 OFFCURVE",
"351 506 CURVE SMOOTH",
"351 580 OFFCURVE",
"308 599 OFFCURVE",
"231 599 CURVE SMOOTH",
"142 599 OFFCURVE",
"90 577 OFFCURVE",
"75 469 CURVE SMOOTH",
"26 118 LINE SMOOTH",
"24 105 OFFCURVE",
"23 93 OFFCURVE",
"23 82 CURVE SMOOTH",
"23 7 OFFCURVE",
"67 -12 OFFCURVE",
"143 -12 CURVE SMOOTH"
);
}
);
userData = {
assembly = "SVTCA[0]	/* SetFreedomAndProjectionVectorToAxis */\012PUSHW[ ]	/* 1 value pushed */\0120 \012RCVT[ ]	/* ReadCVT */\012IF[ ]	/* If */\012PUSHW[ ]	/* 1 value pushed */\01238 \012MDAP[1]	/* MoveDirectAbsPt */\012ELSE[ ]	/* Else */\012PUSHW[ ]	/* 2 values pushed */\01238 5 \012MIAP[0]	/* MoveIndirectAbsPt */\012EIF[ ]	/* EndIf */\012PUSHW[ ]	/* 1 value pushed */\0120 \012RCVT[ ]	/* ReadCVT */\012IF[ ]	/* If */\012PUSHW[ ]	/* 1 value pushed */\01248 \012MDAP[1]	/* MoveDirectAbsPt */\012ELSE[ ]	/* Else */\012PUSHW[ ]	/* 2 values pushed */\01248 5 \012MIAP[0]	/* MoveIndirectAbsPt */\012EIF[ ]	/* EndIf */\012IUP[0]	/* InterpolateUntPts */\012IUP[1]	/* InterpolateUntPts */";
};
width = 359;
}
);
leftKerningGroup = O;
leftMetricsKey = O;
note = G;
rightKerningGroup = G;
rightMetricsKey = "=O-2";
unicode = 0047;
},
{
color = 6;
glyphname = H;
lastChange = "2021-12-01 12:53:44 +0000";
layers = (
{
anchors = (
{
name = bottom;
position = "{152, 0}";
},
{
name = center;
position = "{194, 296}";
},
{
name = top;
position = "{235, 591}";
},
{
name = topleft;
position = "{68, 591}";
}
);
layerId = "9AA098C0-EDBC-463F-BC21-AFCD07A070D0";
paths = (
{
closed = 1;
nodes = (
"27 0 LINE",
"70 306 LINE",
"319 306 LINE",
"276 0 LINE",
"288 0 LINE",
"371 591 LINE",
"359 591 LINE",
"320 316 LINE",
"71 316 LINE",
"110 591 LINE",
"98 591 LINE",
"15 0 LINE"
);
}
);
userData = {
assembly = "SVTCA[0]	/* SetFreedomAndProjectionVectorToAxis */\012PUSHW[ ]	/* 1 value pushed */\0120 \012RCVT[ ]	/* ReadCVT */\012IF[ ]	/* If */\012PUSHW[ ]	/* 1 value pushed */\0120 \012MDAP[1]	/* MoveDirectAbsPt */\012ELSE[ ]	/* Else */\012PUSHW[ ]	/* 2 values pushed */\0120 5 \012MIAP[0]	/* MoveIndirectAbsPt */\012EIF[ ]	/* EndIf */\012PUSHW[ ]	/* 1 value pushed */\0120 \012RCVT[ ]	/* ReadCVT */\012IF[ ]	/* If */\012PUSHW[ ]	/* 1 value pushed */\0124 \012MDAP[1]	/* MoveDirectAbsPt */\012ELSE[ ]	/* Else */\012PUSHW[ ]	/* 2 values pushed */\0124 5 \012MIAP[0]	/* MoveIndirectAbsPt */\012EIF[ ]	/* EndIf */\012IUP[0]	/* InterpolateUntPts */\012IUP[1]	/* InterpolateUntPts */";
};
width = 373;
}
);
leftKerningGroup = H;
note = H;
rightKerningGroup = H;
unicode = 0048;
},
{
color = 6;
glyphname = I;
lastChange = "2021-12-01 12:54:07 +0000";
layers = (
{
anchors = (
{
name = bottom;
position = "{21, 0}";
},
{
name = ogonek;
position = "{38, 0}";
},
{
name = top;
position = "{104, 591}";
},
{
name = topleft;
position = "{68, 591}";
}
);
layerId = "9AA098C0-EDBC-463F-BC21-AFCD07A070D0";
paths = (
{
closed = 1;
nodes = (
"27 0 LINE",
"110 591 LINE",
"98 591 LINE",
"15 0 LINE"
);
}
);
userData = {
assembly = "SVTCA[0]	/* SetFreedomAndProjectionVectorToAxis */\012PUSHW[ ]	/* 1 value pushed */\0120 \012RCVT[ ]	/* ReadCVT */\012IF[ ]	/* If */\012PUSHW[ ]	/* 1 value pushed */\0120 \012MDAP[1]	/* MoveDirectAbsPt */\012ELSE[ ]	/* Else */\012PUSHW[ ]	/* 2 values pushed */\0120 5 \012MIAP[0]	/* MoveIndirectAbsPt */\012EIF[ ]	/* EndIf */\012IUP[0]	/* InterpolateUntPts */\012IUP[1]	/* InterpolateUntPts */";
};
width = 112;
}
);
leftKerningGroup = H;
leftMetricsKey = H;
note = I;
rightKerningGroup = H;
rightMetricsKey = H;
unicode = 0049;
},
{
color = 6;
glyphname = J;
lastChange = "2021-11-24 17:22:58 +0000";
layers = (
{
layerId = "9AA098C0-EDBC-463F-BC21-AFCD07A070D0";
paths = (
{
closed = 1;
nodes = (
"-27 0 LINE",
"-15 0 LINE SMOOTH",
"63 0 OFFCURVE",
"71 34 OFFCURVE",
"84 117 CURVE SMOOTH",
"151 591 LINE",
"139 591 LINE",
"68 86 LINE SMOOTH",
"60 29 OFFCURVE",
"34 10 OFFCURVE",
"-14 10 CURVE SMOOTH",
"-48 10 LINE",
"-49 0 LINE",
"-46 -1 OFFCURVE",
"-42 -1 OFFCURVE",
"-38 -1 CURVE SMOOTH"
);
}
);
width = 153;
}
);
leftKerningGroup = J;
note = J;
rightKerningGroup = J;
rightMetricsKey = H;
unicode = 004A;
},
{
color = 6;
glyphname = K;
lastChange = "2021-12-01 12:54:23 +0000";
layers = (
{
anchors = (
{
name = bottom;
position = "{113, 0}";
},
{
name = top;
position = "{196, 591}";
}
);
layerId = "9AA098C0-EDBC-463F-BC21-AFCD07A070D0";
paths = (
{
closed = 1;
nodes = (
"256 0 LINE",
"113 306 LINE",
"334 591 LINE",
"320 591 LINE",
"99 306 LINE",
"241 0 LINE"
);
},
{
closed = 1;
nodes = (
"27 0 LINE",
"110 591 LINE",
"98 591 LINE",
"15 0 LINE"
);
}
);
userData = {
assembly = "SVTCA[0]	/* SetFreedomAndProjectionVectorToAxis */\012PUSHW[ ]	/* 1 value pushed */\0120 \012RCVT[ ]	/* ReadCVT */\012IF[ ]	/* If */\012PUSHW[ ]	/* 1 value pushed */\0124 \012MDAP[1]	/* MoveDirectAbsPt */\012ELSE[ ]	/* Else */\012PUSHW[ ]	/* 2 values pushed */\0124 5 \012MIAP[0]	/* MoveIndirectAbsPt */\012EIF[ ]	/* EndIf */\012PUSHW[ ]	/* 1 value pushed */\0120 \012RCVT[ ]	/* ReadCVT */\012IF[ ]	/* If */\012PUSHW[ ]	/* 1 value pushed */\0126 \012MDAP[1]	/* MoveDirectAbsPt */\012ELSE[ ]	/* Else */\012PUSHW[ ]	/* 2 values pushed */\0126 5 \012MIAP[0]	/* MoveIndirectAbsPt */\012EIF[ ]	/* EndIf */\012IUP[0]	/* InterpolateUntPts */\012IUP[1]	/* InterpolateUntPts */";
};
width = 295;
}
);
leftKerningGroup = H;
leftMetricsKey = H;
note = K;
rightKerningGroup = K;
unicode = 004B;
},
{
color = 6;
glyphname = L;
lastChange = "2021-12-01 12:54:43 +0000";
layers = (
{
anchors = (
{
name = bottom;
position = "{116, 0}";
},
{
name = center;
position = "{140, 296}";
},
{
name = top;
position = "{110, 591}";
},
{
name = topright;
position = "{209, 481}";
}
);
layerId = "9AA098C0-EDBC-463F-BC21-AFCD07A070D0";
paths = (
{
closed = 1;
nodes = (
"225 0 LINE",
"226 11 LINE",
"28 11 LINE",
"110 591 LINE",
"98 591 LINE",
"15 0 LINE"
);
}
);
width = 265;
}
);
leftKerningGroup = H;
leftMetricsKey = H;
note = L;
rightKerningGroup = L;
unicode = 004C;
},
{
color = 11;
glyphname = Lslash;
lastChange = "2021-11-24 17:22:56 +0000";
layers = (
{
layerId = "9AA098C0-EDBC-463F-BC21-AFCD07A070D0";
paths = (
{
closed = 1;
nodes = (
"307 0 LINE",
"308 11 LINE",
"110 11 LINE",
"136 197 LINE",
"229 237 LINE",
"230 247 LINE",
"138 207 LINE",
"192 591 LINE",
"180 591 LINE",
"125 202 LINE",
"52 171 LINE",
"50 160 LINE",
"123 191 LINE",
"97 0 LINE"
);
}
);
userData = {
assembly = "PUSHW[ ]	/* 4 values pushed */\0122 4 12 4 \012CALL[ ]	/* CallFunction */\012IUP[0]	/* InterpolateUntPts */\012IUP[1]	/* InterpolateUntPts */";
};
width = 353;
}
);
leftKerningGroup = H;
note = Lslash;
rightKerningGroup = L;
unicode = 0141;
},
{
color = 6;
glyphname = M;
lastChange = "2021-11-24 17:22:58 +0000";
layers = (
{
layerId = "9AA098C0-EDBC-463F-BC21-AFCD07A070D0";
paths = (
{
closed = 1;
nodes = (
"27 0 LINE",
"102 537 LINE",
"191 0 LINE",
"205 0 LINE",
"237 74 OFFCURVE",
"273 155 OFFCURVE",
"314 244 CURVE SMOOTH",
"354 333 OFFCURVE",
"397 430 OFFCURVE",
"444 537 CURVE",
"369 0 LINE",
"381 0 LINE",
"464 591 LINE",
"456 591 LINE",
"200 16 LINE",
"107 591 LINE",
"98 591 LINE",
"15 0 LINE"
);
}
);
userData = {
assembly = "SVTCA[0]	/* SetFreedomAndProjectionVectorToAxis */\012PUSHW[ ]	/* 1 value pushed */\0120 \012RCVT[ ]	/* ReadCVT */\012IF[ ]	/* If */\012PUSHW[ ]	/* 1 value pushed */\0120 \012MDAP[1]	/* MoveDirectAbsPt */\012ELSE[ ]	/* Else */\012PUSHW[ ]	/* 2 values pushed */\0120 5 \012MIAP[0]	/* MoveIndirectAbsPt */\012EIF[ ]	/* EndIf */\012PUSHW[ ]	/* 1 value pushed */\0120 \012RCVT[ ]	/* ReadCVT */\012IF[ ]	/* If */\012PUSHW[ ]	/* 1 value pushed */\0125 \012MDAP[1]	/* MoveDirectAbsPt */\012ELSE[ ]	/* Else */\012PUSHW[ ]	/* 2 values pushed */\0125 5 \012MIAP[0]	/* MoveIndirectAbsPt */\012EIF[ ]	/* EndIf */\012PUSHW[ ]	/* 1 value pushed */\0120 \012RCVT[ ]	/* ReadCVT */\012IF[ ]	/* If */\012PUSHW[ ]	/* 1 value pushed */\0128 \012MDAP[1]	/* MoveDirectAbsPt */\012ELSE[ ]	/* Else */\012PUSHW[ ]	/* 2 values pushed */\0128 5 \012MIAP[0]	/* MoveIndirectAbsPt */\012EIF[ ]	/* EndIf */\012IUP[0]	/* InterpolateUntPts */\012IUP[1]	/* InterpolateUntPts */";
};
width = 466;
}
);
leftKerningGroup = H;
leftMetricsKey = H;
note = M;
rightKerningGroup = H;
rightMetricsKey = H;
unicode = 004D;
},
{
color = 6;
glyphname = N;
lastChange = "2021-12-01 12:55:30 +0000";
layers = (
{
anchors = (
{
name = bottom;
position = "{152, 0}";
},
{
name = top;
position = "{235, 591}";
}
);
layerId = "9AA098C0-EDBC-463F-BC21-AFCD07A070D0";
paths = (
{
closed = 1;
nodes = (
"27 0 LINE",
"106 564 LINE",
"272 0 LINE",
"288 0 LINE",
"371 591 LINE",
"360 591 LINE",
"279 17 LINE",
"112 591 LINE",
"98 591 LINE",
"15 0 LINE"
);
}
);
userData = {
assembly = "SVTCA[0]	/* SetFreedomAndProjectionVectorToAxis */\012PUSHW[ ]	/* 1 value pushed */\0120 \012RCVT[ ]	/* ReadCVT */\012IF[ ]	/* If */\012PUSHW[ ]	/* 1 value pushed */\0123 \012MDAP[1]	/* MoveDirectAbsPt */\012ELSE[ ]	/* Else */\012PUSHW[ ]	/* 2 values pushed */\0123 5 \012MIAP[0]	/* MoveIndirectAbsPt */\012EIF[ ]	/* EndIf */\012PUSHW[ ]	/* 1 value pushed */\0120 \012RCVT[ ]	/* ReadCVT */\012IF[ ]	/* If */\012PUSHW[ ]	/* 1 value pushed */\0126 \012MDAP[1]	/* MoveDirectAbsPt */\012ELSE[ ]	/* Else */\012PUSHW[ ]	/* 2 values pushed */\0126 5 \012MIAP[0]	/* MoveIndirectAbsPt */\012EIF[ ]	/* EndIf */\012IUP[0]	/* InterpolateUntPts */\012IUP[1]	/* InterpolateUntPts */";
};
width = 373;
}
);
leftKerningGroup = H;
leftMetricsKey = H;
note = N;
rightKerningGroup = H;
rightMetricsKey = H;
unicode = 004E;
},
{
color = 6;
glyphname = Eng;
lastChange = "2021-11-24 17:22:58 +0000";
layers = (
{
layerId = "9AA098C0-EDBC-463F-BC21-AFCD07A070D0";
paths = (
{
closed = 1;
nodes = (
"194 -247 LINE",
"206 -247 LINE SMOOTH",
"284 -247 OFFCURVE",
"292 -213 OFFCURVE",
"305 -130 CURVE SMOOTH",
"406 591 LINE",
"395 591 LINE",
"315 17 LINE",
"147 591 LINE",
"133 591 LINE",
"50 0 LINE",
"62 0 LINE",
"142 564 LINE",
"310 -9 LINE",
"289 -161 LINE SMOOTH",
"281 -218 OFFCURVE",
"255 -237 OFFCURVE",
"207 -237 CURVE SMOOTH",
"173 -237 LINE",
"172 -247 LINE",
"175 -248 OFFCURVE",
"179 -248 OFFCURVE",
"183 -248 CURVE SMOOTH"
);
}
);
userData = {
assembly = "SVTCA[0]	/* SetFreedomAndProjectionVectorToAxis */\012PUSHW[ ]	/* 1 value pushed */\0120 \012RCVT[ ]	/* ReadCVT */\012IF[ ]	/* If */\012PUSHW[ ]	/* 1 value pushed */\0127 \012MDAP[1]	/* MoveDirectAbsPt */\012ELSE[ ]	/* Else */\012PUSHW[ ]	/* 2 values pushed */\0127 5 \012MIAP[0]	/* MoveIndirectAbsPt */\012EIF[ ]	/* EndIf */\012IUP[0]	/* InterpolateUntPts */\012IUP[1]	/* InterpolateUntPts */";
};
width = 456;
}
);
leftKerningGroup = H;
note = Eng;
rightKerningGroup = H;
unicode = 014A;
},
{
color = 6;
glyphname = O;
lastChange = "2021-12-01 12:55:51 +0000";
layers = (
{
anchors = (
{
name = bottom;
position = "{146, 0}";
},
{
name = center;
position = "{188, 296}";
},
{
name = ogonek;
position = "{163, -9}";
},
{
name = top;
position = "{229, 591}";
},
{
name = topleft;
position = "{68, 591}";
},
{
name = topright;
position = "{287, 591}";
}
);
layerId = "9AA098C0-EDBC-463F-BC21-AFCD07A070D0";
paths = (
{
closed = 1;
nodes = (
"231 -12 OFFCURVE",
"284 9 OFFCURVE",
"299 118 CURVE SMOOTH",
"348 469 LINE SMOOTH",
"350 482 OFFCURVE",
"351 494 OFFCURVE",
"351 505 CURVE SMOOTH",
"351 580 OFFCURVE",
"307 599 OFFCURVE",
"230 599 CURVE SMOOTH",
"142 599 OFFCURVE",
"90 577 OFFCURVE",
"75 469 CURVE SMOOTH",
"26 118 LINE SMOOTH",
"24 105 OFFCURVE",
"23 93 OFFCURVE",
"23 82 CURVE SMOOTH",
"23 7 OFFCURVE",
"67 -12 OFFCURVE",
"143 -12 CURVE SMOOTH"
);
},
{
closed = 1;
nodes = (
"76 -2 OFFCURVE",
"35 14 OFFCURVE",
"35 84 CURVE SMOOTH",
"35 94 OFFCURVE",
"35 104 OFFCURVE",
"37 115 CURVE SMOOTH",
"88 472 LINE SMOOTH",
"102 570 OFFCURVE",
"151 589 OFFCURVE",
"228 589 CURVE SMOOTH",
"297 589 OFFCURVE",
"339 573 OFFCURVE",
"339 502 CURVE SMOOTH",
"339 493 OFFCURVE",
"339 483 OFFCURVE",
"337 472 CURVE SMOOTH",
"286 115 LINE SMOOTH",
"272 17 OFFCURVE",
"222 -2 OFFCURVE",
"145 -2 CURVE SMOOTH"
);
}
);
width = 361;
}
);
leftKerningGroup = O;
note = O;
rightKerningGroup = O;
unicode = 004F;
},
{
color = 6;
glyphname = Oslash;
lastChange = "2021-12-01 12:56:43 +0000";
layers = (
{
anchors = (
{
name = bottom;
position = "{154, 0}";
},
{
name = top;
position = "{227, 591}";
}
);
layerId = "9AA098C0-EDBC-463F-BC21-AFCD07A070D0";
paths = (
{
closed = 1;
nodes = (
"-10 -46 LINE",
"35 25 LINE",
"55 -6 OFFCURVE",
"94 -12 OFFCURVE",
"141 -12 CURVE SMOOTH",
"228 -12 OFFCURVE",
"283 9 OFFCURVE",
"298 118 CURVE SMOOTH",
"347 469 LINE SMOOTH",
"349 484 OFFCURVE",
"350 497 OFFCURVE",
"350 510 CURVE",
"369 541 OFFCURVE",
"388 572 OFFCURVE",
"411 604 CURVE",
"398 604 LINE",
"348 527 LINE",
"340 588 OFFCURVE",
"292 599 OFFCURVE",
"229 599 CURVE SMOOTH",
"141 599 OFFCURVE",
"89 577 OFFCURVE",
"74 469 CURVE SMOOTH",
"25 118 LINE SMOOTH",
"23 104 OFFCURVE",
"21 91 OFFCURVE",
"21 79 CURVE SMOOTH",
"21 62 OFFCURVE",
"24 48 OFFCURVE",
"29 36 CURVE",
"-24 -46 LINE"
);
},
{
closed = 1;
nodes = (
"97 -3 OFFCURVE",
"59 3 OFFCURVE",
"43 36 CURVE",
"190 265 LINE SMOOTH",
"237 338 OFFCURVE",
"286 414 OFFCURVE",
"337 491 CURVE",
"336 488 OFFCURVE",
"336 485 OFFCURVE",
"336 482 CURVE SMOOTH",
"336 479 OFFCURVE",
"335 475 OFFCURVE",
"335 472 CURVE SMOOTH",
"285 114 LINE SMOOTH",
"271 16 OFFCURVE",
"223 -3 OFFCURVE",
"144 -3 CURVE SMOOTH"
);
},
{
closed = 1;
nodes = (
"34 57 OFFCURVE",
"33 67 OFFCURVE",
"33 79 CURVE SMOOTH",
"33 90 OFFCURVE",
"34 101 OFFCURVE",
"36 114 CURVE SMOOTH",
"86 472 LINE SMOOTH",
"100 569 OFFCURVE",
"150 589 OFFCURVE",
"227 589 CURVE SMOOTH",
"290 589 OFFCURVE",
"333 577 OFFCURVE",
"338 511 CURVE",
"37 49 LINE"
);
}
);
width = 361;
}
);
leftKerningGroup = O;
note = Oslash;
rightKerningGroup = O;
unicode = 00D8;
},
{
color = 6;
glyphname = OE;
lastChange = "2021-11-24 17:22:58 +0000";
layers = (
{
layerId = "9AA098C0-EDBC-463F-BC21-AFCD07A070D0";
paths = (
{
closed = 1;
nodes = (
"229 -12 OFFCURVE",
"276 -4 OFFCURVE",
"304 45 CURVE",
"297 0 LINE",
"538 0 LINE",
"540 11 LINE",
"311 11 LINE",
"352 306 LINE",
"530 306 LINE",
"532 317 LINE",
"354 317 LINE",
"391 580 LINE",
"620 580 LINE",
"621 591 LINE",
"380 591 LINE",
"373 541 LINE",
"358 590 OFFCURVE",
"314 599 OFFCURVE",
"257 599 CURVE SMOOTH",
"169 599 OFFCURVE",
"117 577 OFFCURVE",
"102 469 CURVE SMOOTH",
"53 118 LINE SMOOTH",
"51 105 OFFCURVE",
"50 93 OFFCURVE",
"50 82 CURVE SMOOTH",
"50 7 OFFCURVE",
"94 -12 OFFCURVE",
"170 -12 CURVE SMOOTH"
);
},
{
closed = 1;
nodes = (
"103 -3 OFFCURVE",
"62 13 OFFCURVE",
"62 83 CURVE SMOOTH",
"62 93 OFFCURVE",
"63 103 OFFCURVE",
"64 114 CURVE SMOOTH",
"115 472 LINE SMOOTH",
"128 570 OFFCURVE",
"178 589 OFFCURVE",
"255 589 CURVE SMOOTH",
"324 589 OFFCURVE",
"366 573 OFFCURVE",
"366 502 CURVE SMOOTH",
"366 493 OFFCURVE",
"365 483 OFFCURVE",
"364 472 CURVE SMOOTH",
"312 106 LINE SMOOTH",
"299 15 OFFCURVE",
"249 -3 OFFCURVE",
"172 -3 CURVE SMOOTH"
);
}
);
width = 663;
}
);
leftKerningGroup = O;
note = OE;
rightKerningGroup = E;
unicode = 0152;
},
{
color = 6;
glyphname = P;
lastChange = "2021-11-24 17:22:58 +0000";
layers = (
{
layerId = "9AA098C0-EDBC-463F-BC21-AFCD07A070D0";
paths = (
{
closed = 1;
nodes = (
"27 0 LINE",
"65 271 LINE",
"176 271 LINE SMOOTH",
"296 271 OFFCURVE",
"324 308 OFFCURVE",
"341 418 CURVE SMOOTH",
"352 494 LINE SMOOTH",
"353 501 OFFCURVE",
"353 508 OFFCURVE",
"353 515 CURVE SMOOTH",
"353 572 OFFCURVE",
"317 591 OFFCURVE",
"246 591 CURVE SMOOTH",
"98 591 LINE",
"15 0 LINE"
);
},
{
closed = 1;
nodes = (
"108 580 LINE",
"243 580 LINE SMOOTH",
"314 580 OFFCURVE",
"340 564 OFFCURVE",
"340 511 CURVE SMOOTH",
"340 501 OFFCURVE",
"339 489 OFFCURVE",
"337 476 CURVE SMOOTH",
"329 417 LINE SMOOTH",
"315 313 OFFCURVE",
"285 282 OFFCURVE",
"177 282 CURVE SMOOTH",
"66 282 LINE"
);
}
);
userData = {
assembly = "SVTCA[0]	/* SetFreedomAndProjectionVectorToAxis */\012PUSHW[ ]	/* 1 value pushed */\0120 \012RCVT[ ]	/* ReadCVT */\012IF[ ]	/* If */\012PUSHW[ ]	/* 1 value pushed */\0121 \012MDAP[1]	/* MoveDirectAbsPt */\012ELSE[ ]	/* Else */\012PUSHW[ ]	/* 2 values pushed */\0121 5 \012MIAP[0]	/* MoveIndirectAbsPt */\012EIF[ ]	/* EndIf */\012IUP[0]	/* InterpolateUntPts */\012IUP[1]	/* InterpolateUntPts */";
};
width = 344;
}
);
leftKerningGroup = H;
leftMetricsKey = H;
note = P;
rightKerningGroup = P;
unicode = 0050;
},
{
color = 6;
glyphname = Thorn;
lastChange = "2021-11-24 17:22:58 +0000";
layers = (
{
layerId = "9AA098C0-EDBC-463F-BC21-AFCD07A070D0";
paths = (
{
closed = 1;
nodes = (
"62 0 LINE",
"83 151 LINE",
"219 151 LINE SMOOTH",
"306 151 OFFCURVE",
"346 204 OFFCURVE",
"355 270 CURVE SMOOTH",
"370 374 LINE SMOOTH",
"371 381 OFFCURVE",
"372 387 OFFCURVE",
"372 393 CURVE SMOOTH",
"372 448 OFFCURVE",
"332 471 OFFCURVE",
"278 471 CURVE SMOOTH",
"128 471 LINE",
"145 591 LINE",
"133 591 LINE",
"50 0 LINE"
);
},
{
closed = 1;
nodes = (
"126 460 LINE",
"284 460 LINE SMOOTH",
"325 460 OFFCURVE",
"359 438 OFFCURVE",
"359 391 CURVE SMOOTH",
"359 386 OFFCURVE",
"359 381 OFFCURVE",
"358 376 CURVE SMOOTH",
"343 265 LINE SMOOTH",
"332 197 OFFCURVE",
"285 162 OFFCURVE",
"220 162 CURVE SMOOTH",
"84 162 LINE"
);
}
);
userData = {
assembly = "SVTCA[0]	/* SetFreedomAndProjectionVectorToAxis */\012PUSHW[ ]	/* 1 value pushed */\0120 \012RCVT[ ]	/* ReadCVT */\012IF[ ]	/* If */\012PUSHW[ ]	/* 1 value pushed */\0121 \012MDAP[1]	/* MoveDirectAbsPt */\012ELSE[ ]	/* Else */\012PUSHW[ ]	/* 2 values pushed */\0121 5 \012MIAP[0]	/* MoveIndirectAbsPt */\012EIF[ ]	/* EndIf */\012IUP[0]	/* InterpolateUntPts */\012IUP[1]	/* InterpolateUntPts */";
};
width = 422;
}
);
note = Thorn;
unicode = 00DE;
},
{
color = 6;
glyphname = Q;
lastChange = "2021-11-24 17:22:58 +0000";
layers = (
{
layerId = "9AA098C0-EDBC-463F-BC21-AFCD07A070D0";
paths = (
{
closed = 1;
nodes = (
"253 -103 LINE",
"209 -6 LINE",
"256 5 OFFCURVE",
"288 37 OFFCURVE",
"299 118 CURVE SMOOTH",
"349 469 LINE SMOOTH",
"351 482 OFFCURVE",
"352 494 OFFCURVE",
"352 505 CURVE SMOOTH",
"352 580 OFFCURVE",
"308 599 OFFCURVE",
"231 599 CURVE SMOOTH",
"143 599 OFFCURVE",
"91 577 OFFCURVE",
"76 469 CURVE SMOOTH",
"26 118 LINE SMOOTH",
"24 105 OFFCURVE",
"23 93 OFFCURVE",
"23 82 CURVE SMOOTH",
"23 7 OFFCURVE",
"67 -12 OFFCURVE",
"143 -12 CURVE SMOOTH",
"162 -12 OFFCURVE",
"179 -11 OFFCURVE",
"198 -8 CURVE",
"243 -109 LINE"
);
},
{
closed = 1;
nodes = (
"78 -3 OFFCURVE",
"35 12 OFFCURVE",
"35 80 CURVE SMOOTH",
"35 90 OFFCURVE",
"36 101 OFFCURVE",
"38 114 CURVE SMOOTH",
"88 472 LINE SMOOTH",
"103 569 OFFCURVE",
"152 589 OFFCURVE",
"229 589 CURVE SMOOTH",
"294 589 OFFCURVE",
"340 574 OFFCURVE",
"340 505 CURVE SMOOTH",
"340 495 OFFCURVE",
"339 484 OFFCURVE",
"337 472 CURVE SMOOTH",
"287 114 LINE SMOOTH",
"272 16 OFFCURVE",
"223 -3 OFFCURVE",
"145 -3 CURVE SMOOTH"
);
}
);
userData = {
assembly = "PUSHW[ ]	/* 4 values pushed */\01225 4 6 4 \012CALL[ ]	/* CallFunction */\012PUSHW[ ]	/* 1 value pushed */\01225 \012SRP0[ ]	/* SetRefPoint0 */\012PUSHW[ ]	/* 1 value pushed */\01249 \012MDRP[11100]	/* MoveDirectRelPt */\012SVTCA[0]	/* SetFreedomAndProjectionVectorToAxis */\012PUSHW[ ]	/* 1 value pushed */\0120 \012RCVT[ ]	/* ReadCVT */\012IF[ ]	/* If */\012PUSHW[ ]	/* 1 value pushed */\0123 \012MDAP[1]	/* MoveDirectAbsPt */\012ELSE[ ]	/* Else */\012PUSHW[ ]	/* 2 values pushed */\0123 5 \012MIAP[0]	/* MoveIndirectAbsPt */\012EIF[ ]	/* EndIf */\012PUSHW[ ]	/* 1 value pushed */\0120 \012RCVT[ ]	/* ReadCVT */\012IF[ ]	/* If */\012PUSHW[ ]	/* 1 value pushed */\0126 \012MDAP[1]	/* MoveDirectAbsPt */\012ELSE[ ]	/* Else */\012PUSHW[ ]	/* 2 values pushed */\0126 5 \012MIAP[0]	/* MoveIndirectAbsPt */\012EIF[ ]	/* EndIf */\012PUSHW[ ]	/* 1 value pushed */\0120 \012RCVT[ ]	/* ReadCVT */\012IF[ ]	/* If */\012PUSHW[ ]	/* 1 value pushed */\01242 \012MDAP[1]	/* MoveDirectAbsPt */\012ELSE[ ]	/* Else */\012PUSHW[ ]	/* 2 values pushed */\01242 5 \012MIAP[0]	/* MoveIndirectAbsPt */\012EIF[ ]	/* EndIf */\012IUP[0]	/* InterpolateUntPts */\012IUP[1]	/* InterpolateUntPts */";
};
width = 362;
}
);
leftKerningGroup = O;
leftMetricsKey = O;
note = Q;
rightKerningGroup = O;
rightMetricsKey = O;
unicode = 0051;
},
{
color = 6;
glyphname = R;
lastChange = "2021-12-01 12:57:49 +0000";
layers = (
{
anchors = (
{
name = bottom;
position = "{143, 0}";
},
{
name = top;
position = "{226, 591}";
}
);
background = {
paths = (
{
closed = 1;
nodes = (
"27 0 LINE",
"68 292 LINE",
"187 292 LINE SMOOTH",
"228 292 OFFCURVE",
"249 257 OFFCURVE",
"257 205 CURVE SMOOTH",
"290 0 LINE",
"304 0 LINE",
"266 224 LINE SMOOTH",
"259 256 OFFCURVE",
"242 293 OFFCURVE",
"210 296 CURVE",
"277 296 OFFCURVE",
"330 333 OFFCURVE",
"340 411 CURVE SMOOTH",
"352 494 LINE SMOOTH",
"353 501 OFFCURVE",
"354 507 OFFCURVE",
"354 513 CURVE SMOOTH",
"354 568 OFFCURVE",
"314 591 OFFCURVE",
"260 591 CURVE SMOOTH",
"98 591 LINE",
"15 0 LINE"
);
},
{
closed = 1;
nodes = (
"108 580 LINE",
"266 580 LINE SMOOTH",
"307 580 OFFCURVE",
"341 558 OFFCURVE",
"341 511 CURVE SMOOTH",
"341 506 OFFCURVE",
"341 501 OFFCURVE",
"340 496 CURVE SMOOTH",
"328 409 LINE SMOOTH",
"318 333 OFFCURVE",
"264 303 OFFCURVE",
"194 303 CURVE SMOOTH",
"69 303 LINE"
);
}
);
};
layerId = "9AA098C0-EDBC-463F-BC21-AFCD07A070D0";
paths = (
{
closed = 1;
nodes = (
"27 0 LINE",
"68 292 LINE",
"187 292 LINE SMOOTH",
"228 292 OFFCURVE",
"249 257 OFFCURVE",
"257 205 CURVE SMOOTH",
"290 0 LINE",
"304 0 LINE",
"266 224 LINE SMOOTH",
"261 256 OFFCURVE",
"242 293 OFFCURVE",
"210 296 CURVE",
"277 296 OFFCURVE",
"329 333 OFFCURVE",
"340 411 CURVE SMOOTH",
"352 494 LINE SMOOTH",
"353 501 OFFCURVE",
"354 507 OFFCURVE",
"354 513 CURVE SMOOTH",
"354 568 OFFCURVE",
"314 591 OFFCURVE",
"260 591 CURVE SMOOTH",
"98 591 LINE",
"15 0 LINE"
);
},
{
closed = 1;
nodes = (
"108 580 LINE",
"266 580 LINE SMOOTH",
"307 580 OFFCURVE",
"341 558 OFFCURVE",
"341 511 CURVE SMOOTH",
"341 506 OFFCURVE",
"341 501 OFFCURVE",
"340 496 CURVE SMOOTH",
"328 409 LINE SMOOTH",
"318 339 OFFCURVE",
"270 302 OFFCURVE",
"194 302 CURVE SMOOTH",
"69 302 LINE"
);
}
);
userData = {
assembly = "SVTCA[0]	/* SetFreedomAndProjectionVectorToAxis */\012PUSHW[ ]	/* 1 value pushed */\0120 \012RCVT[ ]	/* ReadCVT */\012IF[ ]	/* If */\012PUSHW[ ]	/* 1 value pushed */\0121 \012MDAP[1]	/* MoveDirectAbsPt */\012ELSE[ ]	/* Else */\012PUSHW[ ]	/* 2 values pushed */\0121 5 \012MIAP[0]	/* MoveIndirectAbsPt */\012EIF[ ]	/* EndIf */\012PUSHW[ ]	/* 1 value pushed */\0120 \012RCVT[ ]	/* ReadCVT */\012IF[ ]	/* If */\012PUSHW[ ]	/* 1 value pushed */\01219 \012MDAP[1]	/* MoveDirectAbsPt */\012ELSE[ ]	/* Else */\012PUSHW[ ]	/* 2 values pushed */\01219 5 \012MIAP[0]	/* MoveIndirectAbsPt */\012EIF[ ]	/* EndIf */\012PUSHW[ ]	/* 4 values pushed */\01215 1 18 4 \012CALL[ ]	/* CallFunction */\012PUSHW[ ]	/* 1 value pushed */\01215 \012SRP0[ ]	/* SetRefPoint0 */\012PUSHW[ ]	/* 1 value pushed */\0120 \012MDRP[10000]	/* MoveDirectRelPt */\012PUSHW[ ]	/* 1 value pushed */\0120 \012MDAP[1]	/* MoveDirectAbsPt */\012PUSHW[ ]	/* 1 value pushed */\01215 \012SRP0[ ]	/* SetRefPoint0 */\012PUSHW[ ]	/* 1 value pushed */\01225 \012MDRP[10000]	/* MoveDirectRelPt */\012PUSHW[ ]	/* 1 value pushed */\01225 \012MDAP[1]	/* MoveDirectAbsPt */\012IUP[0]	/* InterpolateUntPts */\012IUP[1]	/* InterpolateUntPts */";
};
width = 355;
}
);
leftKerningGroup = H;
leftMetricsKey = H;
note = R;
rightKerningGroup = R;
unicode = 0052;
},
{
color = 6;
glyphname = S;
lastChange = "2021-12-01 12:58:02 +0000";
layers = (
{
anchors = (
{
name = bottom;
position = "{128, 0}";
},
{
name = top;
position = "{210, 591}";
}
);
layerId = "9AA098C0-EDBC-463F-BC21-AFCD07A070D0";
paths = (
{
closed = 1;
nodes = (
"206 -9 OFFCURVE",
"264 39 OFFCURVE",
"279 146 CURVE SMOOTH",
"281 159 OFFCURVE",
"282 171 OFFCURVE",
"282 182 CURVE SMOOTH",
"282 218 OFFCURVE",
"272 243 OFFCURVE",
"255 260 CURVE SMOOTH",
"225 290 OFFCURVE",
"175 304 OFFCURVE",
"134 324 CURVE SMOOTH",
"95 343 OFFCURVE",
"72 373 OFFCURVE",
"72 422 CURVE SMOOTH",
"72 430 OFFCURVE",
"73 439 OFFCURVE",
"74 448 CURVE SMOOTH",
"87 540 OFFCURVE",
"126 583 OFFCURVE",
"209 583 CURVE SMOOTH",
"273 583 OFFCURVE",
"309 550 OFFCURVE",
"309 493 CURVE SMOOTH",
"309 485 OFFCURVE",
"308 477 OFFCURVE",
"307 469 CURVE SMOOTH",
"301 429 LINE",
"313 429 LINE",
"319 469 LINE SMOOTH",
"320 478 OFFCURVE",
"321 486 OFFCURVE",
"321 494 CURVE SMOOTH",
"321 558 OFFCURVE",
"281 595 OFFCURVE",
"210 595 CURVE SMOOTH",
"118 595 OFFCURVE",
"75 544 OFFCURVE",
"62 448 CURVE SMOOTH",
"61 438 OFFCURVE",
"60 428 OFFCURVE",
"60 420 CURVE SMOOTH",
"60 352 OFFCURVE",
"102 321 OFFCURVE",
"159 298 CURVE SMOOTH",
"228 271 OFFCURVE",
"270 251 OFFCURVE",
"270 182 CURVE SMOOTH",
"270 171 OFFCURVE",
"269 159 OFFCURVE",
"267 146 CURVE SMOOTH",
"252 45 OFFCURVE",
"201 3 OFFCURVE",
"123 3 CURVE SMOOTH",
"59 3 OFFCURVE",
"27 35 OFFCURVE",
"27 110 CURVE SMOOTH",
"27 126 OFFCURVE",
"29 143 OFFCURVE",
"31 163 CURVE SMOOTH",
"32 175 LINE",
"20 175 LINE",
"19 163 LINE SMOOTH",
"17 143 OFFCURVE",
"15 125 OFFCURVE",
"15 109 CURVE SMOOTH",
"15 27 OFFCURVE",
"50 -9 OFFCURVE",
"122 -9 CURVE SMOOTH"
);
}
);
width = 325;
}
);
leftKerningGroup = S;
note = S;
rightKerningGroup = S;
unicode = 0053;
},
{
color = 6;
glyphname = Germandbls;
lastChange = "2021-11-24 17:22:58 +0000";
layers = (
{
associatedMasterId = "9AA098C0-EDBC-463F-BC21-AFCD07A070D0";
background = {
paths = (
{
closed = 1;
nodes = (
"718 -8 OFFCURVE",
"794 36 OFFCURVE",
"794 171 CURVE SMOOTH",
"794 290 OFFCURVE",
"757 313 OFFCURVE",
"669 345 CURVE SMOOTH",
"626 361 OFFCURVE",
"587 368 OFFCURVE",
"587 427 CURVE SMOOTH",
"587 456 OFFCURVE",
"590 467 OFFCURVE",
"607 467 CURVE SMOOTH",
"628 467 OFFCURVE",
"628 453 OFFCURVE",
"628 399 CURVE SMOOTH",
"628 373 LINE",
"681 373 OFFCURVE",
"734 373 OFFCURVE",
"787 373 CURVE",
"787 449 LINE SMOOTH",
"787 546 OFFCURVE",
"725 593 OFFCURVE",
"605 593 CURVE SMOOTH",
"465 593 OFFCURVE",
"422 548 OFFCURVE",
"422 422 CURVE SMOOTH",
"422 332 OFFCURVE",
"443 279 OFFCURVE",
"518 246 CURVE SMOOTH",
"598 211 OFFCURVE",
"625 211 OFFCURVE",
"625 147 CURVE SMOOTH",
"625 101 OFFCURVE",
"620 92 OFFCURVE",
"605 92 CURVE SMOOTH",
"591 92 OFFCURVE",
"584 101 OFFCURVE",
"584 155 CURVE SMOOTH",
"584 206 LINE",
"528 206 OFFCURVE",
"473 206 OFFCURVE",
"417 206 CURVE",
"417 169 LINE SMOOTH",
"417 26 OFFCURVE",
"480 -8 OFFCURVE",
"599 -8 CURVE SMOOTH"
);
},
{
closed = 1;
nodes = (
"321 -8 OFFCURVE",
"397 36 OFFCURVE",
"397 171 CURVE SMOOTH",
"397 290 OFFCURVE",
"360 313 OFFCURVE",
"272 345 CURVE SMOOTH",
"229 361 OFFCURVE",
"190 368 OFFCURVE",
"190 427 CURVE SMOOTH",
"190 456 OFFCURVE",
"193 467 OFFCURVE",
"210 467 CURVE SMOOTH",
"231 467 OFFCURVE",
"231 453 OFFCURVE",
"231 399 CURVE SMOOTH",
"231 373 LINE",
"284 373 OFFCURVE",
"337 373 OFFCURVE",
"390 373 CURVE",
"390 449 LINE SMOOTH",
"390 546 OFFCURVE",
"328 593 OFFCURVE",
"208 593 CURVE SMOOTH",
"68 593 OFFCURVE",
"25 548 OFFCURVE",
"25 422 CURVE SMOOTH",
"25 332 OFFCURVE",
"46 279 OFFCURVE",
"121 246 CURVE SMOOTH",
"201 211 OFFCURVE",
"228 211 OFFCURVE",
"228 147 CURVE SMOOTH",
"228 101 OFFCURVE",
"223 92 OFFCURVE",
"208 92 CURVE SMOOTH",
"194 92 OFFCURVE",
"187 101 OFFCURVE",
"187 155 CURVE SMOOTH",
"187 206 LINE",
"131 206 OFFCURVE",
"76 206 OFFCURVE",
"20 206 CURVE",
"20 169 LINE SMOOTH",
"20 26 OFFCURVE",
"83 -8 OFFCURVE",
"202 -8 CURVE SMOOTH"
);
}
);
};
layerId = "6ADAA0BD-4310-4C3A-8DC7-22C991837926";
name = Black;
paths = (
{
closed = 1;
nodes = (
"215 -25 LINE",
"214 542 LINE SMOOTH",
"214 556 OFFCURVE",
"221 558 OFFCURVE",
"258 558 CURVE SMOOTH",
"302 558 OFFCURVE",
"302 538 OFFCURVE",
"302 483 CURVE SMOOTH",
"302 435 LINE SMOOTH",
"302 396 OFFCURVE",
"298 373 OFFCURVE",
"276 373 CURVE SMOOTH",
"239 373 LINE",
"238 293 LINE",
"256 293 LINE SMOOTH",
"301 293 OFFCURVE",
"301 270 OFFCURVE",
"301 239 CURVE SMOOTH",
"301 186 LINE SMOOTH",
"301 94 OFFCURVE",
"298 78 OFFCURVE",
"261 78 CURVE SMOOTH",
"241 78 LINE",
"241 0 LINE",
"285 0 LINE SMOOTH",
"398 0 OFFCURVE",
"474 16 OFFCURVE",
"474 121 CURVE SMOOTH",
"474 244 LINE SMOOTH",
"474 303 OFFCURVE",
"419 334 OFFCURVE",
"371 338 CURVE",
"371 342 LINE",
"413 345 OFFCURVE",
"456 382 OFFCURVE",
"456 438 CURVE SMOOTH",
"456 533 LINE SMOOTH",
"456 606 OFFCURVE",
"385 631 OFFCURVE",
"256 631 CURVE SMOOTH",
"89 631 OFFCURVE",
"58 624 OFFCURVE",
"58 584 CURVE",
"58 -25 LINE"
);
}
);
width = 499;
},
{
layerId = "9AA098C0-EDBC-463F-BC21-AFCD07A070D0";
paths = (
{
closed = 1;
nodes = (
"79 -59 LINE",
"161 525 LINE SMOOTH",
"166 558 OFFCURVE",
"165 583 OFFCURVE",
"273 583 CURVE SMOOTH",
"337 583 OFFCURVE",
"368 563 OFFCURVE",
"368 517 CURVE SMOOTH",
"368 511 OFFCURVE",
"367 504 OFFCURVE",
"366 497 CURVE SMOOTH",
"359 448 LINE SMOOTH",
"351 385 OFFCURVE",
"325 346 OFFCURVE",
"254 346 CURVE SMOOTH",
"200 346 LINE",
"199 336 LINE",
"242 336 LINE SMOOTH",
"296 336 OFFCURVE",
"344 319 OFFCURVE",
"344 259 CURVE SMOOTH",
"344 253 OFFCURVE",
"343 246 OFFCURVE",
"342 239 CURVE SMOOTH",
"326 123 LINE SMOOTH",
"312 24 OFFCURVE",
"269 9 OFFCURVE",
"210 9 CURVE SMOOTH",
"133 9 LINE",
"132 0 LINE",
"209 0 LINE SMOOTH",
"274 0 OFFCURVE",
"321 15 OFFCURVE",
"335 119 CURVE SMOOTH",
"353 244 LINE SMOOTH",
"354 250 OFFCURVE",
"354 256 OFFCURVE",
"354 261 CURVE SMOOTH",
"354 307 OFFCURVE",
"325 335 OFFCURVE",
"285 340 CURVE",
"286 343 LINE",
"329 347 OFFCURVE",
"362 385 OFFCURVE",
"369 441 CURVE SMOOTH",
"377 498 LINE SMOOTH",
"378 506 OFFCURVE",
"379 513 OFFCURVE",
"379 520 CURVE SMOOTH",
"379 575 OFFCURVE",
"342 593 OFFCURVE",
"275 593 CURVE SMOOTH",
"168 593 OFFCURVE",
"156 573 OFFCURVE",
"149 527 CURVE SMOOTH",
"67 -59 LINE"
);
}
);
width = 419;
}
);
unicode = 1E9E;
},
{
glyphname = Schwa;
lastChange = "2021-11-24 17:22:58 +0000";
layers = (
{
layerId = "9AA098C0-EDBC-463F-BC21-AFCD07A070D0";
paths = (
{
closed = 1;
nodes = (
"214 -8 OFFCURVE",
"276 6 OFFCURVE",
"292 122 CURVE SMOOTH",
"342 473 LINE SMOOTH",
"344 486 OFFCURVE",
"344 497 OFFCURVE",
"344 507 CURVE SMOOTH",
"344 590 OFFCURVE",
"293 603 OFFCURVE",
"225 603 CURVE SMOOTH",
"145 603 OFFCURVE",
"85 589 OFFCURVE",
"69 473 CURVE SMOOTH",
"59 402 LINE",
"71 402 LINE",
"81 475 LINE SMOOTH",
"95 579 OFFCURVE",
"152 594 OFFCURVE",
"222 594 CURVE SMOOTH",
"283 594 OFFCURVE",
"332 582 OFFCURVE",
"332 506 CURVE SMOOTH",
"332 497 OFFCURVE",
"332 486 OFFCURVE",
"330 475 CURVE SMOOTH",
"281 124 LINE SMOOTH",
"266 19 OFFCURVE",
"215 2 OFFCURVE",
"140 2 CURVE SMOOTH",
"74 2 OFFCURVE",
"29 14 OFFCURVE",
"29 86 CURVE SMOOTH",
"29 96 OFFCURVE",
"29 106 OFFCURVE",
"31 118 CURVE SMOOTH",
"49 247 LINE",
"37 247 LINE",
"19 122 LINE SMOOTH",
"17 109 OFFCURVE",
"17 98 OFFCURVE",
"17 88 CURVE SMOOTH",
"17 5 OFFCURVE",
"68 -8 OFFCURVE",
"137 -8 CURVE SMOOTH"
);
},
{
closed = 1;
nodes = (
"300 236 LINE",
"302 247 LINE",
"37 247 LINE",
"35 236 LINE"
);
}
);
width = 355;
},
{
anchors = (
{
name = bottom;
position = "{197, 0}";
},
{
name = top;
position = "{197, 591}";
}
);
associatedMasterId = "9AA098C0-EDBC-463F-BC21-AFCD07A070D0";
layerId = "EEA0EE5D-DDBE-4C62-9355-9D48BAED48A9";
name = Black;
paths = (
{
closed = 1;
nodes = (
"302 -12 OFFCURVE",
"375 14 OFFCURVE",
"375 173 CURVE SMOOTH",
"375 465 LINE SMOOTH",
"375 564 OFFCURVE",
"302 600 OFFCURVE",
"193 600 CURVE SMOOTH",
"84 600 OFFCURVE",
"18 564 OFFCURVE",
"18 465 CURVE SMOOTH",
"18 327 LINE",
"177 327 LINE",
"177 473 LINE SMOOTH",
"177 496 OFFCURVE",
"184 503 OFFCURVE",
"193 503 CURVE SMOOTH",
"203 503 OFFCURVE",
"209 496 OFFCURVE",
"209 473 CURVE SMOOTH",
"209 110 LINE SMOOTH",
"209 87 OFFCURVE",
"203 80 OFFCURVE",
"193 80 CURVE SMOOTH",
"184 80 OFFCURVE",
"177 87 OFFCURVE",
"177 110 CURVE SMOOTH",
"177 248 LINE",
"18 248 LINE",
"18 174 LINE SMOOTH",
"18 14 OFFCURVE",
"84 -12 OFFCURVE",
"193 -12 CURVE SMOOTH"
);
},
{
closed = 1;
nodes = (
"230 216 LINE",
"230 289 LINE",
"18 289 LINE",
"18 216 LINE"
);
}
);
width = 395;
}
);
leftMetricsKey = "=o-8";
rightKerningGroup = o;
rightMetricsKey = o;
unicode = 018F;
},
{
color = 6;
glyphname = T;
lastChange = "2021-12-01 12:58:18 +0000";
layers = (
{
anchors = (
{
name = bottom;
position = "{87, 0}";
},
{
name = center;
position = "{145, 411}";
},
{
name = top;
position = "{170, 591}";
}
);
layerId = "9AA098C0-EDBC-463F-BC21-AFCD07A070D0";
paths = (
{
closed = 1;
nodes = (
"93 0 LINE",
"174 580 LINE",
"288 580 LINE",
"290 591 LINE",
"51 591 LINE",
"49 580 LINE",
"162 580 LINE",
"81 0 LINE"
);
}
);
userData = {
assembly = "SVTCA[0]	/* SetFreedomAndProjectionVectorToAxis */\012PUSHW[ ]	/* 1 value pushed */\0120 \012RCVT[ ]	/* ReadCVT */\012IF[ ]	/* If */\012PUSHW[ ]	/* 1 value pushed */\0123 \012MDAP[1]	/* MoveDirectAbsPt */\012ELSE[ ]	/* Else */\012PUSHW[ ]	/* 2 values pushed */\0123 5 \012MIAP[0]	/* MoveIndirectAbsPt */\012EIF[ ]	/* EndIf */\012IUP[0]	/* InterpolateUntPts */\012IUP[1]	/* InterpolateUntPts */";
};
width = 244;
}
);
leftKerningGroup = T;
note = T;
rightKerningGroup = T;
unicode = 0054;
},
{
color = 6;
glyphname = U;
lastChange = "2021-12-01 12:58:37 +0000";
layers = (
{
anchors = (
{
name = bottom;
position = "{150, 0}";
},
{
name = ogonek;
position = "{162, -10}";
},
{
name = top;
position = "{233, 591}";
},
{
name = topright;
position = "{350, 591}";
}
);
layerId = "9AA098C0-EDBC-463F-BC21-AFCD07A070D0";
paths = (
{
closed = 1;
nodes = (
"225 -12 OFFCURVE",
"288 13 OFFCURVE",
"302 110 CURVE SMOOTH",
"369 591 LINE",
"357 591 LINE",
"289 106 LINE SMOOTH",
"277 19 OFFCURVE",
"214 -3 OFFCURVE",
"144 -3 CURVE SMOOTH",
"82 -3 OFFCURVE",
"38 15 OFFCURVE",
"38 81 CURVE SMOOTH",
"38 88 OFFCURVE",
"39 97 OFFCURVE",
"40 106 CURVE SMOOTH",
"108 591 LINE",
"96 591 LINE",
"29 110 LINE SMOOTH",
"27 99 OFFCURVE",
"26 88 OFFCURVE",
"26 79 CURVE SMOOTH",
"26 8 OFFCURVE",
"73 -12 OFFCURVE",
"143 -12 CURVE SMOOTH"
);
}
);
width = 369;
}
);
leftKerningGroup = U;
leftMetricsKey = "=H-2";
note = U;
rightKerningGroup = U;
rightMetricsKey = "=H-2";
unicode = 0055;
},
{
color = 6;
glyphname = V;
lastChange = "2021-11-24 17:22:58 +0000";
layers = (
{
layerId = "9AA098C0-EDBC-463F-BC21-AFCD07A070D0";
paths = (
{
closed = 1;
nodes = (
"120 0 LINE",
"155 101 OFFCURVE",
"189 199 OFFCURVE",
"223 296 CURVE SMOOTH",
"325 591 LINE",
"313 591 LINE",
"117 24 LINE",
"75 591 LINE",
"63 591 LINE",
"69 491 OFFCURVE",
"76 393 OFFCURVE",
"85 296 CURVE SMOOTH",
"93 199 OFFCURVE",
"100 101 OFFCURVE",
"107 0 CURVE"
);
}
);
userData = {
assembly = "SVTCA[0]	/* SetFreedomAndProjectionVectorToAxis */\012PUSHW[ ]	/* 1 value pushed */\0120 \012RCVT[ ]	/* ReadCVT */\012IF[ ]	/* If */\012PUSHW[ ]	/* 1 value pushed */\0126 \012MDAP[1]	/* MoveDirectAbsPt */\012ELSE[ ]	/* Else */\012PUSHW[ ]	/* 2 values pushed */\0126 5 \012MIAP[0]	/* MoveIndirectAbsPt */\012EIF[ ]	/* EndIf */\012IUP[0]	/* InterpolateUntPts */\012IUP[1]	/* InterpolateUntPts */";
};
width = 292;
}
);
leftKerningGroup = V;
note = V;
rightKerningGroup = V;
unicode = 0056;
},
{
color = 6;
glyphname = W;
lastChange = "2021-12-01 12:58:48 +0000";
layers = (
{
anchors = (
{
name = bottom;
position = "{210, 0}";
},
{
name = top;
position = "{293, 591}";
}
);
background = {
paths = (
{
closed = 1;
nodes = (
"88 0 LINE",
"288 565 LINE",
"326 0 LINE",
"341 0 LINE",
"371 101 OFFCURVE",
"401 199 OFFCURVE",
"432 296 CURVE SMOOTH",
"463 392 OFFCURVE",
"493 490 OFFCURVE",
"524 591 CURVE",
"511 591 LINE",
"338 38 LINE",
"299 591 LINE",
"285 591 LINE",
"89 38 LINE",
"72 591 LINE",
"59 591 LINE",
"61 491 OFFCURVE",
"64 393 OFFCURVE",
"68 296 CURVE SMOOTH",
"71 199 OFFCURVE",
"74 101 OFFCURVE",
"76 0 CURVE"
);
},
{
closed = 1;
nodes = (
"88 0 LINE",
"289 569 LINE",
"326 0 LINE",
"341 0 LINE",
"402 201 OFFCURVE",
"464 390 OFFCURVE",
"525 591 CURVE",
"514 591 LINE",
"337 26 LINE",
"300 591 LINE",
"287 591 LINE",
"86 26 LINE",
"72 591 LINE",
"60 591 LINE",
"76 0 LINE"
);
}
);
};
layerId = "9AA098C0-EDBC-463F-BC21-AFCD07A070D0";
paths = (
{
closed = 1;
nodes = (
"88 0 LINE",
"290 574 LINE",
"327 0 LINE",
"341 0 LINE",
"525 591 LINE",
"515 591 LINE",
"337 22 LINE",
"299 591 LINE",
"286 591 LINE",
"85 22 LINE",
"71 591 LINE",
"60 591 LINE",
"76 0 LINE"
);
}
);
userData = {
assembly = "SVTCA[0]	/* SetFreedomAndProjectionVectorToAxis */\012PUSHW[ ]	/* 1 value pushed */\0120 \012RCVT[ ]	/* ReadCVT */\012IF[ ]	/* If */\012PUSHW[ ]	/* 1 value pushed */\0129 \012MDAP[1]	/* MoveDirectAbsPt */\012ELSE[ ]	/* Else */\012PUSHW[ ]	/* 2 values pushed */\0129 5 \012MIAP[0]	/* MoveIndirectAbsPt */\012EIF[ ]	/* EndIf */\012PUSHW[ ]	/* 1 value pushed */\0120 \012RCVT[ ]	/* ReadCVT */\012IF[ ]	/* If */\012PUSHW[ ]	/* 1 value pushed */\01212 \012MDAP[1]	/* MoveDirectAbsPt */\012ELSE[ ]	/* Else */\012PUSHW[ ]	/* 2 values pushed */\01212 5 \012MIAP[0]	/* MoveIndirectAbsPt */\012EIF[ ]	/* EndIf */\012IUP[0]	/* InterpolateUntPts */\012IUP[1]	/* InterpolateUntPts */";
};
width = 489;
}
);
leftKerningGroup = W;
note = W;
rightKerningGroup = W;
unicode = 0057;
},
{
color = 6;
glyphname = X;
lastChange = "2021-11-24 17:22:56 +0000";
layers = (
{
layerId = "9AA098C0-EDBC-463F-BC21-AFCD07A070D0";
paths = (
{
closed = 1;
nodes = (
"-15 0 LINE",
"124 292 LINE",
"142 292 LINE",
"197 0 LINE",
"212 0 LINE",
"153 298 LINE",
"297 591 LINE",
"283 591 LINE",
"143 303 LINE",
"125 303 LINE",
"78 591 LINE",
"64 591 LINE",
"114 298 LINE",
"-30 0 LINE"
);
}
);
userData = {
assembly = "SVTCA[0]	/* SetFreedomAndProjectionVectorToAxis */\012PUSHW[ ]	/* 1 value pushed */\0120 \012RCVT[ ]	/* ReadCVT */\012IF[ ]	/* If */\012PUSHW[ ]	/* 1 value pushed */\0120 \012MDAP[1]	/* MoveDirectAbsPt */\012ELSE[ ]	/* Else */\012PUSHW[ ]	/* 2 values pushed */\0120 5 \012MIAP[0]	/* MoveIndirectAbsPt */\012EIF[ ]	/* EndIf */\012PUSHW[ ]	/* 1 value pushed */\0120 \012RCVT[ ]	/* ReadCVT */\012IF[ ]	/* If */\012PUSHW[ ]	/* 1 value pushed */\0129 \012MDAP[1]	/* MoveDirectAbsPt */\012ELSE[ ]	/* Else */\012PUSHW[ ]	/* 2 values pushed */\0129 5 \012MIAP[0]	/* MoveIndirectAbsPt */\012EIF[ ]	/* EndIf */\012IUP[0]	/* InterpolateUntPts */\012IUP[1]	/* InterpolateUntPts */";
};
width = 254;
}
);
note = X;
unicode = 0058;
},
{
color = 6;
glyphname = Y;
lastChange = "2021-12-01 12:59:05 +0000";
layers = (
{
anchors = (
{
name = bottom;
position = "{92, 0}";
},
{
name = top;
position = "{175, 591}";
},
{
name = topleft;
position = "{68, 591}";
}
);
layerId = "9AA098C0-EDBC-463F-BC21-AFCD07A070D0";
paths = (
{
closed = 1;
nodes = (
"98 0 LINE",
"133 251 LINE",
"306 591 LINE",
"291 591 LINE",
"130 269 LINE",
"73 591 LINE",
"58 591 LINE",
"121 253 LINE",
"86 0 LINE"
);
}
);
userData = {
assembly = "SVTCA[0]	/* SetFreedomAndProjectionVectorToAxis */\012PUSHW[ ]	/* 1 value pushed */\0120 \012RCVT[ ]	/* ReadCVT */\012IF[ ]	/* If */\012PUSHW[ ]	/* 1 value pushed */\0120 \012MDAP[1]	/* MoveDirectAbsPt */\012ELSE[ ]	/* Else */\012PUSHW[ ]	/* 2 values pushed */\0120 5 \012MIAP[0]	/* MoveIndirectAbsPt */\012EIF[ ]	/* EndIf */\012IUP[0]	/* InterpolateUntPts */\012IUP[1]	/* InterpolateUntPts */";
};
width = 268;
}
);
leftKerningGroup = Y;
note = Y;
rightKerningGroup = Y;
unicode = 0059;
},
{
color = 6;
glyphname = Z;
lastChange = "2021-12-01 12:59:13 +0000";
layers = (
{
anchors = (
{
name = bottom;
position = "{92, 0}";
},
{
name = center;
position = "{134, 296}";
},
{
name = top;
position = "{175, 591}";
}
);
layerId = "9AA098C0-EDBC-463F-BC21-AFCD07A070D0";
paths = (
{
closed = 1;
nodes = (
"201 0 LINE",
"202 11 LINE",
"-5 11 LINE",
"274 577 LINE",
"276 591 LINE",
"76 591 LINE",
"74 580 LINE",
"263 580 LINE",
"-18 14 LINE",
"-19 0 LINE"
);
}
);
userData = {
assembly = "SVTCA[0]	/* SetFreedomAndProjectionVectorToAxis */\012PUSHW[ ]	/* 1 value pushed */\0120 \012RCVT[ ]	/* ReadCVT */\012IF[ ]	/* If */\012PUSHW[ ]	/* 1 value pushed */\0125 \012MDAP[1]	/* MoveDirectAbsPt */\012ELSE[ ]	/* Else */\012PUSHW[ ]	/* 2 values pushed */\0125 5 \012MIAP[0]	/* MoveIndirectAbsPt */\012EIF[ ]	/* EndIf */\012IUP[0]	/* InterpolateUntPts */\012IUP[1]	/* InterpolateUntPts */";
};
width = 253;
}
);
leftKerningGroup = Z;
note = Z;
rightKerningGroup = Z;
unicode = 005A;
},
{
color = 6;
glyphname = a;
lastChange = "2021-12-01 13:00:54 +0000";
layers = (
{
anchors = (
{
name = bottom;
position = "{127, 0}";
},
{
name = ogonek;
position = "{260, 0}";
},
{
name = top;
position = "{213, 495}";
}
);
layerId = "9AA098C0-EDBC-463F-BC21-AFCD07A070D0";
paths = (
{
closed = 1;
nodes = (
"188 -7 OFFCURVE",
"230 49 OFFCURVE",
"255 106 CURVE",
"239 0 LINE",
"250 0 LINE",
"320 494 LINE",
"309 494 LINE",
"305 459 LINE",
"287 486 OFFCURVE",
"250 503 OFFCURVE",
"202 503 CURVE SMOOTH",
"100 503 OFFCURVE",
"75 447 OFFCURVE",
"64 372 CURVE SMOOTH",
"28 124 LINE SMOOTH",
"26 108 OFFCURVE",
"25 93 OFFCURVE",
"25 79 CURVE SMOOTH",
"25 29 OFFCURVE",
"41 -7 OFFCURVE",
"104 -7 CURVE SMOOTH"
);
},
{
closed = 1;
nodes = (
"51 3 OFFCURVE",
"36 35 OFFCURVE",
"36 80 CURVE SMOOTH",
"36 94 OFFCURVE",
"38 110 OFFCURVE",
"40 127 CURVE SMOOTH",
"74 369 LINE SMOOTH",
"84 439 OFFCURVE",
"107 493 OFFCURVE",
"201 493 CURVE SMOOTH",
"261 493 OFFCURVE",
"297 465 OFFCURVE",
"302 437 CURVE",
"266 186 LINE SMOOTH",
"257 126 OFFCURVE",
"223 3 OFFCURVE",
"109 3 CURVE SMOOTH"
);
}
);
userData = {
assembly = "SVTCA[0]	/* SetFreedomAndProjectionVectorToAxis */\012PUSHW[ ]	/* 1 value pushed */\0120 \012RCVT[ ]	/* ReadCVT */\012IF[ ]	/* If */\012PUSHW[ ]	/* 1 value pushed */\01222 \012MDAP[1]	/* MoveDirectAbsPt */\012ELSE[ ]	/* Else */\012PUSHW[ ]	/* 2 values pushed */\01222 9 \012MIAP[0]	/* MoveIndirectAbsPt */\012EIF[ ]	/* EndIf */\012PUSHW[ ]	/* 1 value pushed */\0120 \012RCVT[ ]	/* ReadCVT */\012IF[ ]	/* If */\012PUSHW[ ]	/* 1 value pushed */\01240 \012MDAP[1]	/* MoveDirectAbsPt */\012ELSE[ ]	/* Else */\012PUSHW[ ]	/* 2 values pushed */\01240 9 \012MIAP[0]	/* MoveIndirectAbsPt */\012EIF[ ]	/* EndIf */\012PUSHW[ ]	/* 1 value pushed */\0120 \012RCVT[ ]	/* ReadCVT */\012IF[ ]	/* If */\012PUSHW[ ]	/* 1 value pushed */\0120 \012MDAP[1]	/* MoveDirectAbsPt */\012ELSE[ ]	/* Else */\012PUSHW[ ]	/* 2 values pushed */\0120 5 \012MIAP[0]	/* MoveIndirectAbsPt */\012EIF[ ]	/* EndIf */\012PUSHW[ ]	/* 1 value pushed */\0120 \012RCVT[ ]	/* ReadCVT */\012IF[ ]	/* If */\012PUSHW[ ]	/* 1 value pushed */\0127 \012MDAP[1]	/* MoveDirectAbsPt */\012ELSE[ ]	/* Else */\012PUSHW[ ]	/* 2 values pushed */\0127 5 \012MIAP[0]	/* MoveIndirectAbsPt */\012EIF[ ]	/* EndIf */\012PUSHW[ ]	/* 1 value pushed */\0120 \012RCVT[ ]	/* ReadCVT */\012IF[ ]	/* If */\012PUSHW[ ]	/* 1 value pushed */\01229 \012MDAP[1]	/* MoveDirectAbsPt */\012ELSE[ ]	/* Else */\012PUSHW[ ]	/* 2 values pushed */\01229 5 \012MIAP[0]	/* MoveIndirectAbsPt */\012EIF[ ]	/* EndIf */\012PUSHW[ ]	/* 3 values pushed */\0122 7 22 \012SRP1[ ]	/* SetRefPoint1 */\012SRP2[ ]	/* SetRefPoint2 */\012IP[ ]	/* InterpolatePts */\012PUSHW[ ]	/* 3 values pushed */\01221 7 22 \012SRP1[ ]	/* SetRefPoint1 */\012SRP2[ ]	/* SetRefPoint2 */\012IP[ ]	/* InterpolatePts */\012IUP[0]	/* InterpolateUntPts */\012IUP[1]	/* InterpolateUntPts */";
};
width = 335;
}
);
leftKerningGroup = a;
leftMetricsKey = o;
note = a;
rightKerningGroup = n;
unicode = 0061;
},
{
color = 6;
glyphname = ae;
lastChange = "2021-12-01 13:01:13 +0000";
layers = (
{
anchors = (
{
name = bottom;
position = "{264, 0}";
},
{
name = top;
position = "{334, 495}";
}
);
layerId = "9AA098C0-EDBC-463F-BC21-AFCD07A070D0";
paths = (
{
closed = 1;
nodes = (
"489 -14 OFFCURVE",
"511 41 OFFCURVE",
"521 117 CURVE SMOOTH",
"527 160 LINE",
"516 160 LINE",
"511 120 LINE SMOOTH",
"501 50 OFFCURVE",
"481 -4 OFFCURVE",
"386 -4 CURVE SMOOTH",
"310 -4 OFFCURVE",
"290 28 OFFCURVE",
"290 77 CURVE SMOOTH",
"290 90 OFFCURVE",
"292 105 OFFCURVE",
"294 120 CURVE SMOOTH",
"308 221 LINE",
"351 224 OFFCURVE",
"390 232 OFFCURVE",
"425 244 CURVE SMOOTH",
"487 264 OFFCURVE",
"547 302 OFFCURVE",
"557 365 CURVE SMOOTH",
"559 381 OFFCURVE",
"561 396 OFFCURVE",
"561 410 CURVE SMOOTH",
"561 462 OFFCURVE",
"540 496 OFFCURVE",
"457 496 CURVE SMOOTH",
"388 496 OFFCURVE",
"355 471 OFFCURVE",
"338 438 CURVE",
"346 494 LINE",
"335 494 LINE",
"331 466 LINE",
"328 472 OFFCURVE",
"319 480 OFFCURVE",
"303 489 CURVE SMOOTH",
"286 498 OFFCURVE",
"261 503 OFFCURVE",
"228 503 CURVE SMOOTH",
"126 503 OFFCURVE",
"100 447 OFFCURVE",
"90 372 CURVE SMOOTH",
"54 124 LINE SMOOTH",
"52 108 OFFCURVE",
"51 93 OFFCURVE",
"51 79 CURVE SMOOTH",
"51 29 OFFCURVE",
"67 -7 OFFCURVE",
"130 -7 CURVE SMOOTH",
"214 -7 OFFCURVE",
"255 47 OFFCURVE",
"281 105 CURVE",
"281 104 OFFCURVE",
"281 104 OFFCURVE",
"281 104 CURVE",
"280 101 LINE",
"265 0 LINE",
"276 0 LINE",
"282 43 LINE",
"290 10 OFFCURVE",
"317 -14 OFFCURVE",
"385 -14 CURVE SMOOTH"
);
},
{
closed = 1;
nodes = (
"77 3 OFFCURVE",
"62 35 OFFCURVE",
"62 80 CURVE SMOOTH",
"62 94 OFFCURVE",
"64 110 OFFCURVE",
"66 127 CURVE SMOOTH",
"100 369 LINE SMOOTH",
"110 439 OFFCURVE",
"133 493 OFFCURVE",
"227 493 CURVE SMOOTH",
"299 493 OFFCURVE",
"297 477 OFFCURVE",
"329 445 CURVE",
"292 186 LINE SMOOTH",
"281 126 OFFCURVE",
"249 3 OFFCURVE",
"135 3 CURVE SMOOTH"
);
},
{
closed = 1;
nodes = (
"328 362 LINE SMOOTH",
"338 432 OFFCURVE",
"362 486 OFFCURVE",
"456 486 CURVE SMOOTH",
"530 486 OFFCURVE",
"550 454 OFFCURVE",
"550 408 CURVE SMOOTH",
"550 395 OFFCURVE",
"548 381 OFFCURVE",
"546 367 CURVE SMOOTH",
"538 307 OFFCURVE",
"478 272 OFFCURVE",
"421 253 CURVE SMOOTH",
"388 242 OFFCURVE",
"351 234 OFFCURVE",
"310 231 CURVE"
);
}
);
userData = {
assembly = "SVTCA[0]	/* SetFreedomAndProjectionVectorToAxis */\012PUSHW[ ]	/* 1 value pushed */\0120 \012RCVT[ ]	/* ReadCVT */\012IF[ ]	/* If */\012PUSHW[ ]	/* 1 value pushed */\01235 \012MDAP[1]	/* MoveDirectAbsPt */\012ELSE[ ]	/* Else */\012PUSHW[ ]	/* 2 values pushed */\01235 9 \012MIAP[0]	/* MoveIndirectAbsPt */\012EIF[ ]	/* EndIf */\012PUSHW[ ]	/* 1 value pushed */\0120 \012RCVT[ ]	/* ReadCVT */\012IF[ ]	/* If */\012PUSHW[ ]	/* 1 value pushed */\01240 \012MDAP[1]	/* MoveDirectAbsPt */\012ELSE[ ]	/* Else */\012PUSHW[ ]	/* 2 values pushed */\01240 9 \012MIAP[0]	/* MoveIndirectAbsPt */\012EIF[ ]	/* EndIf */\012PUSHW[ ]	/* 1 value pushed */\0120 \012RCVT[ ]	/* ReadCVT */\012IF[ ]	/* If */\012PUSHW[ ]	/* 1 value pushed */\01281 \012MDAP[1]	/* MoveDirectAbsPt */\012ELSE[ ]	/* Else */\012PUSHW[ ]	/* 2 values pushed */\01281 9 \012MIAP[0]	/* MoveIndirectAbsPt */\012EIF[ ]	/* EndIf */\012PUSHW[ ]	/* 1 value pushed */\0120 \012RCVT[ ]	/* ReadCVT */\012IF[ ]	/* If */\012PUSHW[ ]	/* 1 value pushed */\01210 \012MDAP[1]	/* MoveDirectAbsPt */\012ELSE[ ]	/* Else */\012PUSHW[ ]	/* 2 values pushed */\01210 5 \012MIAP[0]	/* MoveIndirectAbsPt */\012EIF[ ]	/* EndIf */\012PUSHW[ ]	/* 1 value pushed */\0120 \012RCVT[ ]	/* ReadCVT */\012IF[ ]	/* If */\012PUSHW[ ]	/* 1 value pushed */\01220 \012MDAP[1]	/* MoveDirectAbsPt */\012ELSE[ ]	/* Else */\012PUSHW[ ]	/* 2 values pushed */\01220 5 \012MIAP[0]	/* MoveIndirectAbsPt */\012EIF[ ]	/* EndIf */\012PUSHW[ ]	/* 1 value pushed */\0120 \012RCVT[ ]	/* ReadCVT */\012IF[ ]	/* If */\012PUSHW[ ]	/* 1 value pushed */\01258 \012MDAP[1]	/* MoveDirectAbsPt */\012ELSE[ ]	/* Else */\012PUSHW[ ]	/* 2 values pushed */\01258 5 \012MIAP[0]	/* MoveIndirectAbsPt */\012EIF[ ]	/* EndIf */\012PUSHW[ ]	/* 1 value pushed */\0120 \012RCVT[ ]	/* ReadCVT */\012IF[ ]	/* If */\012PUSHW[ ]	/* 1 value pushed */\01270 \012MDAP[1]	/* MoveDirectAbsPt */\012ELSE[ ]	/* Else */\012PUSHW[ ]	/* 2 values pushed */\01270 5 \012MIAP[0]	/* MoveIndirectAbsPt */\012EIF[ ]	/* EndIf */\012PUSHW[ ]	/* 3 values pushed */\0129 20 40 \012SRP1[ ]	/* SetRefPoint1 */\012SRP2[ ]	/* SetRefPoint2 */\012IP[ ]	/* InterpolatePts */\012PUSHW[ ]	/* 3 values pushed */\01215 20 40 \012SRP1[ ]	/* SetRefPoint1 */\012SRP2[ ]	/* SetRefPoint2 */\012IP[ ]	/* InterpolatePts */\012PUSHW[ ]	/* 3 values pushed */\01234 20 40 \012SRP1[ ]	/* SetRefPoint1 */\012SRP2[ ]	/* SetRefPoint2 */\012IP[ ]	/* InterpolatePts */\012PUSHW[ ]	/* 3 values pushed */\01237 20 40 \012SRP1[ ]	/* SetRefPoint1 */\012SRP2[ ]	/* SetRefPoint2 */\012IP[ ]	/* InterpolatePts */\012IUP[0]	/* InterpolateUntPts */\012IUP[1]	/* InterpolateUntPts */";
};
width = 598;
}
);
leftKerningGroup = a;
note = ae;
rightKerningGroup = e;
unicode = 00E6;
},
{
color = 6;
glyphname = b;
lastChange = "2021-11-24 17:22:58 +0000";
layers = (
{
layerId = "9AA098C0-EDBC-463F-BC21-AFCD07A070D0";
paths = (
{
closed = 1;
nodes = (
"238 -7 OFFCURVE",
"259 47 OFFCURVE",
"269 124 CURVE SMOOTH",
"305 372 LINE SMOOTH",
"307 388 OFFCURVE",
"309 403 OFFCURVE",
"309 417 CURVE SMOOTH",
"309 469 OFFCURVE",
"288 503 OFFCURVE",
"205 503 CURVE SMOOTH",
"138 503 OFFCURVE",
"105 480 OFFCURVE",
"88 449 CURVE",
"114 630 LINE",
"103 630 LINE",
"30 124 LINE SMOOTH",
"28 110 OFFCURVE",
"27 97 OFFCURVE",
"27 85 CURVE SMOOTH",
"27 29 OFFCURVE",
"50 -7 OFFCURVE",
"133 -7 CURVE SMOOTH"
);
},
{
closed = 1;
nodes = (
"59 3 OFFCURVE",
"39 36 OFFCURVE",
"39 86 CURVE SMOOTH",
"39 98 OFFCURVE",
"40 112 OFFCURVE",
"42 127 CURVE SMOOTH",
"79 387 LINE SMOOTH",
"88 450 OFFCURVE",
"117 493 OFFCURVE",
"204 493 CURVE SMOOTH",
"278 493 OFFCURVE",
"297 462 OFFCURVE",
"297 414 CURVE SMOOTH",
"297 400 OFFCURVE",
"295 385 OFFCURVE",
"293 369 CURVE SMOOTH",
"259 127 LINE SMOOTH",
"249 57 OFFCURVE",
"229 3 OFFCURVE",
"134 3 CURVE SMOOTH"
);
}
);
userData = {
assembly = "SVTCA[0]	/* SetFreedomAndProjectionVectorToAxis */\012PUSHW[ ]	/* 1 value pushed */\01238 \012MDAP[1]	/* MoveDirectAbsPt */\012IUP[0]	/* InterpolateUntPts */\012IUP[1]	/* InterpolateUntPts */";
};
width = 333;
}
);
leftKerningGroup = b;
leftMetricsKey = "=n-3";
note = b;
rightKerningGroup = o;
rightMetricsKey = o;
unicode = 0062;
},
{
color = 6;
glyphname = c;
lastChange = "2021-12-01 13:01:28 +0000";
layers = (
{
anchors = (
{
name = bottom;
position = "{129, 0}";
},
{
name = top;
position = "{200, 495}";
}
);
layerId = "9AA098C0-EDBC-463F-BC21-AFCD07A070D0";
paths = (
{
closed = 1;
nodes = (
"233 -7 OFFCURVE",
"257 49 OFFCURVE",
"267 124 CURVE SMOOTH",
"273 167 LINE",
"262 167 LINE",
"256 127 LINE SMOOTH",
"246 57 OFFCURVE",
"226 3 OFFCURVE",
"131 3 CURVE SMOOTH",
"56 3 OFFCURVE",
"36 36 OFFCURVE",
"36 86 CURVE SMOOTH",
"36 98 OFFCURVE",
"37 112 OFFCURVE",
"39 127 CURVE SMOOTH",
"73 369 LINE SMOOTH",
"83 440 OFFCURVE",
"106 493 OFFCURVE",
"200 493 CURVE SMOOTH",
"259 493 OFFCURVE",
"285 463 OFFCURVE",
"285 426 CURVE SMOOTH",
"285 405 OFFCURVE",
"276 382 OFFCURVE",
"261 361 CURVE SMOOTH",
"229 315 LINE",
"242 315 LINE",
"274 361 LINE SMOOTH",
"289 383 OFFCURVE",
"297 406 OFFCURVE",
"297 428 CURVE SMOOTH",
"297 469 OFFCURVE",
"268 503 OFFCURVE",
"201 503 CURVE SMOOTH",
"97 503 OFFCURVE",
"73 446 OFFCURVE",
"63 372 CURVE SMOOTH",
"28 124 LINE SMOOTH",
"26 109 OFFCURVE",
"25 94 OFFCURVE",
"25 81 CURVE SMOOTH",
"25 27 OFFCURVE",
"46 -7 OFFCURVE",
"130 -7 CURVE SMOOTH"
);
}
);
width = 319;
}
);
leftKerningGroup = o;
leftMetricsKey = o;
note = c;
rightKerningGroup = c;
rightMetricsKey = "=o-10";
unicode = 0063;
},
{
color = 6;
glyphname = d;
lastChange = "2021-12-01 13:01:57 +0000";
layers = (
{
anchors = (
{
name = bottom;
position = "{86, 0}";
},
{
name = center;
position = "{287, 553}";
},
{
name = top;
position = "{332, 630}";
},
{
name = topright;
position = "{375, 503}";
}
);
layerId = "9AA098C0-EDBC-463F-BC21-AFCD07A070D0";
paths = (
{
closed = 1;
nodes = (
"234 -7 OFFCURVE",
"256 48 OFFCURVE",
"267 124 CURVE SMOOTH",
"340 630 LINE",
"329 630 LINE",
"303 449 LINE",
"294 480 OFFCURVE",
"269 503 OFFCURVE",
"202 503 CURVE SMOOTH",
"100 503 OFFCURVE",
"75 447 OFFCURVE",
"64 372 CURVE SMOOTH",
"28 124 LINE SMOOTH",
"26 110 OFFCURVE",
"25 96 OFFCURVE",
"25 84 CURVE SMOOTH",
"25 28 OFFCURVE",
"48 -7 OFFCURVE",
"130 -7 CURVE SMOOTH"
);
},
{
closed = 1;
nodes = (
"57 3 OFFCURVE",
"37 36 OFFCURVE",
"37 86 CURVE SMOOTH",
"37 98 OFFCURVE",
"38 112 OFFCURVE",
"40 127 CURVE SMOOTH",
"74 369 LINE SMOOTH",
"84 439 OFFCURVE",
"107 493 OFFCURVE",
"201 493 CURVE SMOOTH",
"273 493 OFFCURVE",
"296 463 OFFCURVE",
"296 415 CURVE SMOOTH",
"296 406 OFFCURVE",
"295 397 OFFCURVE",
"294 387 CURVE SMOOTH",
"257 127 LINE SMOOTH",
"247 56 OFFCURVE",
"227 3 OFFCURVE",
"131 3 CURVE SMOOTH"
);
}
);
userData = {
assembly = "SVTCA[0]	/* SetFreedomAndProjectionVectorToAxis */\012PUSHW[ ]	/* 1 value pushed */\01227 \012MDAP[1]	/* MoveDirectAbsPt */\012IUP[0]	/* InterpolateUntPts */\012IUP[1]	/* InterpolateUntPts */";
};
width = 333;
}
);
leftKerningGroup = o;
leftMetricsKey = o;
note = d;
rightKerningGroup = d;
rightMetricsKey = n;
unicode = 0064;
},
{
color = 6;
glyphname = eth;
lastChange = "2021-11-24 17:22:58 +0000";
layers = (
{
layerId = "9AA098C0-EDBC-463F-BC21-AFCD07A070D0";
paths = (
{
closed = 1;
nodes = (
"248 -7 OFFCURVE",
"282 39 OFFCURVE",
"293 123 CURVE SMOOTH",
"339 449 LINE SMOOTH",
"345 493 OFFCURVE",
"349 531 OFFCURVE",
"349 561 CURVE SMOOTH",
"349 576 OFFCURVE",
"348 588 OFFCURVE",
"346 599 CURVE SMOOTH",
"335 646 OFFCURVE",
"306 658 OFFCURVE",
"271 661 CURVE",
"303 707 LINE",
"291 707 LINE",
"260 661 LINE",
"221 660 OFFCURVE",
"189 653 OFFCURVE",
"170 646 CURVE",
"169 636 LINE",
"188 642 OFFCURVE",
"229 651 OFFCURVE",
"249 651 CURVE SMOOTH",
"253 651 LINE",
"214 591 LINE",
"226 591 LINE",
"265 650 LINE",
"321 646 OFFCURVE",
"336 613 OFFCURVE",
"336 557 CURVE SMOOTH",
"336 530 OFFCURVE",
"333 499 OFFCURVE",
"329 463 CURVE",
"312 486 OFFCURVE",
"281 503 OFFCURVE",
"226 503 CURVE SMOOTH",
"122 503 OFFCURVE",
"99 447 OFFCURVE",
"89 372 CURVE SMOOTH",
"54 124 LINE SMOOTH",
"52 109 OFFCURVE",
"51 94 OFFCURVE",
"51 81 CURVE SMOOTH",
"51 27 OFFCURVE",
"72 -7 OFFCURVE",
"155 -7 CURVE SMOOTH"
);
},
{
closed = 1;
nodes = (
"81 3 OFFCURVE",
"62 36 OFFCURVE",
"62 85 CURVE SMOOTH",
"62 98 OFFCURVE",
"63 112 OFFCURVE",
"65 127 CURVE SMOOTH",
"99 369 LINE SMOOTH",
"109 439 OFFCURVE",
"131 493 OFFCURVE",
"225 493 CURVE SMOOTH",
"291 493 OFFCURVE",
"297 475 OFFCURVE",
"327 445 CURVE",
"282 127 LINE SMOOTH",
"272 59 OFFCURVE",
"254 3 OFFCURVE",
"156 3 CURVE SMOOTH"
);
}
);
userData = {
assembly = "PUSHW[ ]	/* 3 values pushed */\01268 47 3 \012CALL[ ]	/* CallFunction */\012SVTCA[0]	/* SetFreedomAndProjectionVectorToAxis */\012PUSHW[ ]	/* 1 value pushed */\01252 \012MDAP[1]	/* MoveDirectAbsPt */\012IUP[0]	/* InterpolateUntPts */\012IUP[1]	/* InterpolateUntPts */";
};
width = 447;
}
);
leftKerningGroup = o;
note = eth;
rightKerningGroup = d;
unicode = 00F0;
},
{
color = 6;
glyphname = e;
lastChange = "2021-12-01 13:02:16 +0000";
layers = (
{
anchors = (
{
name = bottom;
position = "{129, 0}";
},
{
name = ogonek;
position = "{220, 10}";
},
{
name = top;
position = "{199, 495}";
}
);
layerId = "9AA098C0-EDBC-463F-BC21-AFCD07A070D0";
paths = (
{
closed = 1;
nodes = (
"235 -7 OFFCURVE",
"256 48 OFFCURVE",
"267 124 CURVE SMOOTH",
"273 167 LINE",
"262 167 LINE",
"257 127 LINE SMOOTH",
"248 57 OFFCURVE",
"227 3 OFFCURVE",
"132 3 CURVE SMOOTH",
"56 3 OFFCURVE",
"36 35 OFFCURVE",
"36 84 CURVE SMOOTH",
"36 97 OFFCURVE",
"38 112 OFFCURVE",
"40 127 CURVE SMOOTH",
"54 228 LINE",
"97 231 OFFCURVE",
"136 239 OFFCURVE",
"171 251 CURVE SMOOTH",
"233 271 OFFCURVE",
"293 309 OFFCURVE",
"303 372 CURVE SMOOTH",
"305 388 OFFCURVE",
"307 403 OFFCURVE",
"307 417 CURVE SMOOTH",
"307 469 OFFCURVE",
"286 503 OFFCURVE",
"203 503 CURVE SMOOTH",
"100 503 OFFCURVE",
"75 446 OFFCURVE",
"64 372 CURVE SMOOTH",
"28 124 LINE SMOOTH",
"26 109 OFFCURVE",
"25 95 OFFCURVE",
"25 82 CURVE SMOOTH",
"25 28 OFFCURVE",
"47 -7 OFFCURVE",
"131 -7 CURVE SMOOTH"
);
},
{
closed = 1;
nodes = (
"74 369 LINE SMOOTH",
"84 439 OFFCURVE",
"108 493 OFFCURVE",
"202 493 CURVE SMOOTH",
"276 493 OFFCURVE",
"296 461 OFFCURVE",
"296 415 CURVE SMOOTH",
"296 402 OFFCURVE",
"294 388 OFFCURVE",
"292 374 CURVE SMOOTH",
"284 314 OFFCURVE",
"224 279 OFFCURVE",
"167 260 CURVE SMOOTH",
"134 249 OFFCURVE",
"97 241 OFFCURVE",
"56 238 CURVE"
);
}
);
width = 328;
}
);
leftKerningGroup = o;
leftMetricsKey = o;
note = e;
rightKerningGroup = e;
rightMetricsKey = "=o-3";
unicode = 0065;
},
{
color = 6;
glyphname = f;
lastChange = "2021-11-24 17:56:52 +0000";
layers = (
{
background = {
paths = (
{
closed = 1;
nodes = (
"-78 -116 OFFCURVE",
"-74 -115 OFFCURVE",
"-70 -115 CURVE SMOOTH",
"-23 -112 OFFCURVE",
"14 -91 OFFCURVE",
"23 -31 CURVE SMOOTH",
"92 461 LINE",
"210 461 LINE",
"211 471 LINE",
"93 471 LINE",
"105 552 LINE SMOOTH",
"111 590 OFFCURVE",
"129 627 OFFCURVE",
"174 627 CURVE SMOOTH",
"191 627 OFFCURVE",
"206 626 OFFCURVE",
"217 625 CURVE SMOOTH",
"234 623 LINE",
"234 632 LINE",
"222 635 OFFCURVE",
"201 636 OFFCURVE",
"176 636 CURVE SMOOTH",
"124 636 OFFCURVE",
"101 603 OFFCURVE",
"93 547 CURVE SMOOTH",
"82 471 LINE",
"51 471 LINE",
"50 461 LINE",
"81 461 LINE",
"11 -32 LINE SMOOTH",
"4 -79 OFFCURVE",
"-27 -101 OFFCURVE",
"-68 -105 CURVE SMOOTH",
"-73 -106 OFFCURVE",
"-79 -106 OFFCURVE",
"-85 -106 CURVE SMOOTH",
"-91 -106 OFFCURVE",
"-97 -105 OFFCURVE",
"-104 -104 CURVE",
"-106 -114 LINE",
"-98 -115 OFFCURVE",
"-90 -116 OFFCURVE",
"-82 -116 CURVE SMOOTH"
);
}
);
};
layerId = "9AA098C0-EDBC-463F-BC21-AFCD07A070D0";
paths = (
{
closed = 1;
nodes = (
"-78 -116 OFFCURVE",
"-74 -115 OFFCURVE",
"-70 -115 CURVE SMOOTH",
"-23 -112 OFFCURVE",
"15 -91 OFFCURVE",
"23 -31 CURVE SMOOTH",
"92 462 LINE",
"210 462 LINE",
"211 471 LINE",
"93 471 LINE",
"105 552 LINE SMOOTH",
"111 590 OFFCURVE",
"129 627 OFFCURVE",
"174 627 CURVE SMOOTH",
"191 627 OFFCURVE",
"206 626 OFFCURVE",
"217 625 CURVE SMOOTH",
"234 623 LINE",
"234 632 LINE",
"222 635 OFFCURVE",
"201 636 OFFCURVE",
"176 636 CURVE SMOOTH",
"124 636 OFFCURVE",
"101 603 OFFCURVE",
"93 547 CURVE SMOOTH",
"82 471 LINE",
"51 471 LINE",
"50 462 LINE",
"81 462 LINE",
"11 -32 LINE SMOOTH",
"4 -79 OFFCURVE",
"-27 -101 OFFCURVE",
"-68 -105 CURVE SMOOTH",
"-73 -106 OFFCURVE",
"-79 -106 OFFCURVE",
"-85 -106 CURVE SMOOTH",
"-91 -106 OFFCURVE",
"-97 -105 OFFCURVE",
"-104 -104 CURVE",
"-106 -114 LINE",
"-98 -115 OFFCURVE",
"-90 -116 OFFCURVE",
"-82 -116 CURVE SMOOTH"
);
}
);
userData = {
assembly = "SVTCA[0]	/* SetFreedomAndProjectionVectorToAxis */\012PUSHW[ ]	/* 4 values pushed */\0127 3 21 4 \012CALL[ ]	/* CallFunction */\012IUP[0]	/* InterpolateUntPts */\012IUP[1]	/* InterpolateUntPts */";
};
width = 184;
}
);
note = f;
unicode = 0066;
},
{
color = 6;
glyphname = g;
lastChange = "2021-12-01 13:03:06 +0000";
layers = (
{
anchors = (
{
name = bottom;
position = "{115, -116}";
},
{
name = top;
position = "{201, 495}";
}
);
layerId = "9AA098C0-EDBC-463F-BC21-AFCD07A070D0";
paths = (
{
closed = 1;
nodes = (
"172 -115 OFFCURVE",
"237 -87 OFFCURVE",
"249 0 CURVE SMOOTH",
"320 495 LINE",
"309 495 LINE",
"305 466 LINE",
"278 495 OFFCURVE",
"243 503 OFFCURVE",
"201 503 CURVE SMOOTH",
"99 503 OFFCURVE",
"73 447 OFFCURVE",
"63 372 CURVE SMOOTH",
"33 156 LINE SMOOTH",
"30 136 OFFCURVE",
"28 118 OFFCURVE",
"28 102 CURVE SMOOTH",
"28 56 OFFCURVE",
"45 25 OFFCURVE",
"116 25 CURVE SMOOTH",
"183 25 OFFCURVE",
"234 73 OFFCURVE",
"258 137 CURVE",
"240 8 LINE SMOOTH",
"227 -88 OFFCURVE",
"155 -104 OFFCURVE",
"110 -104 CURVE SMOOTH",
"82 -104 OFFCURVE",
"61 -100 OFFCURVE",
"48 -93 CURVE SMOOTH",
"34 -86 OFFCURVE",
"28 -76 OFFCURVE",
"29 -65 CURVE",
"18 -65 LINE",
"13 -108 OFFCURVE",
"70 -115 OFFCURVE",
"110 -115 CURVE SMOOTH"
);
},
{
closed = 1;
nodes = (
"53 34 OFFCURVE",
"40 67 OFFCURVE",
"40 108 CURVE SMOOTH",
"40 124 OFFCURVE",
"42 142 OFFCURVE",
"44 159 CURVE SMOOTH",
"74 369 LINE SMOOTH",
"84 439 OFFCURVE",
"106 493 OFFCURVE",
"200 493 CURVE SMOOTH",
"255 493 OFFCURVE",
"280 480 OFFCURVE",
"303 451 CURVE",
"269 216 LINE SMOOTH",
"260 153 OFFCURVE",
"218 34 OFFCURVE",
"115 34 CURVE SMOOTH"
);
}
);
userData = {
assembly = "SVTCA[0]	/* SetFreedomAndProjectionVectorToAxis */\012PUSHW[ ]	/* 1 value pushed */\0120 \012RCVT[ ]	/* ReadCVT */\012IF[ ]	/* If */\012PUSHW[ ]	/* 1 value pushed */\01238 \012MDAP[1]	/* MoveDirectAbsPt */\012ELSE[ ]	/* Else */\012PUSHW[ ]	/* 2 values pushed */\01238 9 \012MIAP[0]	/* MoveIndirectAbsPt */\012EIF[ ]	/* EndIf */\012PUSHW[ ]	/* 1 value pushed */\0120 \012RCVT[ ]	/* ReadCVT */\012IF[ ]	/* If */\012PUSHW[ ]	/* 1 value pushed */\01256 \012MDAP[1]	/* MoveDirectAbsPt */\012ELSE[ ]	/* Else */\012PUSHW[ ]	/* 2 values pushed */\01256 9 \012MIAP[0]	/* MoveIndirectAbsPt */\012EIF[ ]	/* EndIf */\012PUSHW[ ]	/* 1 value pushed */\0120 \012RCVT[ ]	/* ReadCVT */\012IF[ ]	/* If */\012PUSHW[ ]	/* 1 value pushed */\0120 \012MDAP[1]	/* MoveDirectAbsPt */\012ELSE[ ]	/* Else */\012PUSHW[ ]	/* 2 values pushed */\0120 5 \012MIAP[0]	/* MoveIndirectAbsPt */\012EIF[ ]	/* EndIf */\012PUSHW[ ]	/* 3 values pushed */\01220 0 38 \012SRP1[ ]	/* SetRefPoint1 */\012SRP2[ ]	/* SetRefPoint2 */\012IP[ ]	/* InterpolatePts */\012PUSHW[ ]	/* 3 values pushed */\01237 0 38 \012SRP1[ ]	/* SetRefPoint1 */\012SRP2[ ]	/* SetRefPoint2 */\012IP[ ]	/* InterpolatePts */\012IUP[0]	/* InterpolateUntPts */\012IUP[1]	/* InterpolateUntPts */";
};
width = 332;
}
);
leftKerningGroup = o;
leftMetricsKey = o;
note = g;
rightKerningGroup = g;
rightMetricsKey = d;
unicode = 0067;
},
{
color = 6;
glyphname = h;
lastChange = "2021-12-01 13:03:23 +0000";
layers = (
{
anchors = (
{
name = bottom;
position = "{134, 0}";
},
{
name = center;
position = "{138, 560}";
},
{
name = top;
position = "{110, 630}";
}
);
layerId = "9AA098C0-EDBC-463F-BC21-AFCD07A070D0";
paths = (
{
closed = 1;
nodes = (
"29 0 LINE",
"75 335 LINE",
"86 384 OFFCURVE",
"150 493 OFFCURVE",
"230 493 CURVE SMOOTH",
"285 493 OFFCURVE",
"299 461 OFFCURVE",
"299 417 CURVE SMOOTH",
"299 402 OFFCURVE",
"297 386 OFFCURVE",
"295 369 CURVE SMOOTH",
"243 0 LINE",
"255 0 LINE",
"307 372 LINE SMOOTH",
"309 388 OFFCURVE",
"311 404 OFFCURVE",
"311 419 CURVE SMOOTH",
"311 467 OFFCURVE",
"295 503 OFFCURVE",
"234 503 CURVE SMOOTH",
"159 503 OFFCURVE",
"104 431 OFFCURVE",
"80 376 CURVE",
"116 630 LINE",
"104 630 LINE",
"18 0 LINE"
);
}
);
userData = {
assembly = "SVTCA[0]	/* SetFreedomAndProjectionVectorToAxis */\012PUSHW[ ]	/* 1 value pushed */\0120 \012RCVT[ ]	/* ReadCVT */\012IF[ ]	/* If */\012PUSHW[ ]	/* 1 value pushed */\01212 \012MDAP[1]	/* MoveDirectAbsPt */\012ELSE[ ]	/* Else */\012PUSHW[ ]	/* 2 values pushed */\01212 5 \012MIAP[0]	/* MoveIndirectAbsPt */\012EIF[ ]	/* EndIf */\012PUSHW[ ]	/* 1 value pushed */\0120 \012RCVT[ ]	/* ReadCVT */\012IF[ ]	/* If */\012PUSHW[ ]	/* 1 value pushed */\01225 \012MDAP[1]	/* MoveDirectAbsPt */\012ELSE[ ]	/* Else */\012PUSHW[ ]	/* 2 values pushed */\01225 5 \012MIAP[0]	/* MoveIndirectAbsPt */\012EIF[ ]	/* EndIf */\012IUP[0]	/* InterpolateUntPts */\012IUP[1]	/* InterpolateUntPts */";
};
width = 337;
}
);
leftKerningGroup = n;
leftMetricsKey = n;
note = h;
rightKerningGroup = n;
rightMetricsKey = n;
unicode = 0068;
},
{
color = 6;
glyphname = i;
lastChange = "2021-12-01 13:03:35 +0000";
layers = (
{
anchors = (
{
name = bottom;
position = "{26, 0}";
}
);
layerId = "9AA098C0-EDBC-463F-BC21-AFCD07A070D0";
paths = (
{
closed = 1;
nodes = (
"30 0 LINE",
"99 495 LINE",
"88 495 LINE",
"19 0 LINE"
);
},
{
closed = 1;
nodes = (
"121 619 OFFCURVE",
"126 624 OFFCURVE",
"126 634 CURVE SMOOTH",
"126 640 OFFCURVE",
"123 643 OFFCURVE",
"115 643 CURVE SMOOTH",
"106 643 OFFCURVE",
"101 639 OFFCURVE",
"100 631 CURVE SMOOTH",
"99 623 OFFCURVE",
"102 619 OFFCURVE",
"111 619 CURVE SMOOTH"
);
}
);
userData = {
assembly = "SVTCA[0]	/* SetFreedomAndProjectionVectorToAxis */\012PUSHW[ ]	/* 1 value pushed */\0120 \012RCVT[ ]	/* ReadCVT */\012IF[ ]	/* If */\012PUSHW[ ]	/* 1 value pushed */\0129 \012MDAP[1]	/* MoveDirectAbsPt */\012ELSE[ ]	/* Else */\012PUSHW[ ]	/* 2 values pushed */\0129 9 \012MIAP[0]	/* MoveIndirectAbsPt */\012EIF[ ]	/* EndIf */\012PUSHW[ ]	/* 1 value pushed */\0120 \012RCVT[ ]	/* ReadCVT */\012IF[ ]	/* If */\012PUSHW[ ]	/* 1 value pushed */\0128 \012MDAP[1]	/* MoveDirectAbsPt */\012ELSE[ ]	/* Else */\012PUSHW[ ]	/* 2 values pushed */\0128 5 \012MIAP[0]	/* MoveIndirectAbsPt */\012EIF[ ]	/* EndIf */\012IUP[0]	/* InterpolateUntPts */\012IUP[1]	/* InterpolateUntPts */";
};
width = 121;
}
);
note = i;
unicode = 0069;
},
{
color = 11;
glyphname = idotless;
lastChange = "2021-12-01 13:03:55 +0000";
layers = (
{
anchors = (
{
name = bottom;
position = "{59, 0}";
},
{
name = ogonek;
position = "{71, 0}";
},
{
name = top;
position = "{129, 495}";
}
);
layerId = "9AA098C0-EDBC-463F-BC21-AFCD07A070D0";
paths = (
{
closed = 1;
nodes = (
"61 0 LINE",
"130 495 LINE",
"119 495 LINE",
"50 0 LINE"
);
}
);
userData = {
assembly = "SVTCA[0]	/* SetFreedomAndProjectionVectorToAxis */\012PUSHW[ ]	/* 1 value pushed */\0120 \012RCVT[ ]	/* ReadCVT */\012IF[ ]	/* If */\012PUSHW[ ]	/* 1 value pushed */\0121 \012MDAP[1]	/* MoveDirectAbsPt */\012ELSE[ ]	/* Else */\012PUSHW[ ]	/* 2 values pushed */\0121 9 \012MIAP[0]	/* MoveIndirectAbsPt */\012EIF[ ]	/* EndIf */\012PUSHW[ ]	/* 1 value pushed */\0120 \012RCVT[ ]	/* ReadCVT */\012IF[ ]	/* If */\012PUSHW[ ]	/* 1 value pushed */\0120 \012MDAP[1]	/* MoveDirectAbsPt */\012ELSE[ ]	/* Else */\012PUSHW[ ]	/* 2 values pushed */\0120 5 \012MIAP[0]	/* MoveIndirectAbsPt */\012EIF[ ]	/* EndIf */\012IUP[0]	/* InterpolateUntPts */\012IUP[1]	/* InterpolateUntPts */";
};
width = 188;
}
);
note = dotlessi;
unicode = 0131;
},
{
color = 6;
glyphname = j;
lastChange = "2021-12-01 13:03:41 +0000";
layers = (
{
layerId = "9AA098C0-EDBC-463F-BC21-AFCD07A070D0";
paths = (
{
closed = 1;
nodes = (
"-74 -116 OFFCURVE",
"-71 -115 OFFCURVE",
"-67 -115 CURVE SMOOTH",
"-18 -112 OFFCURVE",
"20 -91 OFFCURVE",
"28 -31 CURVE SMOOTH",
"102 495 LINE",
"91 495 LINE",
"17 -32 LINE SMOOTH",
"10 -84 OFFCURVE",
"-28 -106 OFFCURVE",
"-80 -106 CURVE SMOOTH",
"-87 -106 OFFCURVE",
"-94 -105 OFFCURVE",
"-101 -104 CURVE",
"-102 -114 LINE",
"-95 -115 OFFCURVE",
"-86 -116 OFFCURVE",
"-78 -116 CURVE SMOOTH"
);
},
{
closed = 1;
nodes = (
"122 619 OFFCURVE",
"129 624 OFFCURVE",
"129 631 CURVE SMOOTH",
"130 639 OFFCURVE",
"127 643 OFFCURVE",
"118 643 CURVE SMOOTH",
"109 643 OFFCURVE",
"104 639 OFFCURVE",
"103 631 CURVE SMOOTH",
"103 623 OFFCURVE",
"107 619 OFFCURVE",
"115 619 CURVE SMOOTH"
);
}
);
userData = {
assembly = "SVTCA[0]	/* SetFreedomAndProjectionVectorToAxis */\012PUSHW[ ]	/* 1 value pushed */\0120 \012RCVT[ ]	/* ReadCVT */\012IF[ ]	/* If */\012PUSHW[ ]	/* 1 value pushed */\01213 \012MDAP[1]	/* MoveDirectAbsPt */\012ELSE[ ]	/* Else */\012PUSHW[ ]	/* 2 values pushed */\01213 9 \012MIAP[0]	/* MoveIndirectAbsPt */\012EIF[ ]	/* EndIf */\012IUP[0]	/* InterpolateUntPts */\012IUP[1]	/* InterpolateUntPts */";
};
width = 122;
}
);
leftKerningGroup = j;
note = j;
rightKerningGroup = j;
rightMetricsKey = d;
unicode = 006A;
},
{
color = 11;
glyphname = jdotless;
lastChange = "2021-12-01 13:05:15 +0000";
layers = (
{
anchors = (
{
name = bottom;
position = "{6, -116}";
},
{
name = top;
position = "{96, 495}";
}
);
layerId = "9AA098C0-EDBC-463F-BC21-AFCD07A070D0";
paths = (
{
closed = 1;
nodes = (
"-74 -116 OFFCURVE",
"-71 -115 OFFCURVE",
"-67 -115 CURVE SMOOTH",
"-18 -112 OFFCURVE",
"20 -91 OFFCURVE",
"28 -31 CURVE SMOOTH",
"102 495 LINE",
"91 495 LINE",
"17 -32 LINE SMOOTH",
"10 -84 OFFCURVE",
"-28 -106 OFFCURVE",
"-80 -106 CURVE SMOOTH",
"-87 -106 OFFCURVE",
"-94 -105 OFFCURVE",
"-101 -104 CURVE",
"-102 -114 LINE",
"-95 -115 OFFCURVE",
"-86 -116 OFFCURVE",
"-78 -116 CURVE SMOOTH"
);
}
);
width = 114;
}
);
leftKerningGroup = j;
leftMetricsKey = j;
rightKerningGroup = j;
rightMetricsKey = j;
unicode = 0237;
},
{
color = 6;
glyphname = k;
lastChange = "2021-12-01 13:05:27 +0000";
layers = (
{
anchors = (
{
name = bottom;
position = "{122, 0}";
},
{
name = top;
position = "{189, 630}";
}
);
layerId = "9AA098C0-EDBC-463F-BC21-AFCD07A070D0";
paths = (
{
closed = 1;
nodes = (
"27 0 LINE",
"66 283 LINE",
"101 283 LINE",
"158 252 OFFCURVE",
"214 89 OFFCURVE",
"214 0 CURVE",
"225 0 LINE",
"225 68 OFFCURVE",
"178 242 OFFCURVE",
"113 287 CURVE",
"150 302 OFFCURVE",
"269 413 OFFCURVE",
"292 495 CURVE",
"281 495 LINE",
"269 445 OFFCURVE",
"148 297 OFFCURVE",
"104 293 CURVE",
"68 293 LINE",
"115 630 LINE",
"104 630 LINE",
"16 0 LINE"
);
}
);
userData = {
assembly = "SVTCA[0]	/* SetFreedomAndProjectionVectorToAxis */\012PUSHW[ ]	/* 1 value pushed */\0120 \012RCVT[ ]	/* ReadCVT */\012IF[ ]	/* If */\012PUSHW[ ]	/* 1 value pushed */\0129 \012MDAP[1]	/* MoveDirectAbsPt */\012ELSE[ ]	/* Else */\012PUSHW[ ]	/* 2 values pushed */\0129 9 \012MIAP[0]	/* MoveIndirectAbsPt */\012EIF[ ]	/* EndIf */\012PUSHW[ ]	/* 1 value pushed */\0120 \012RCVT[ ]	/* ReadCVT */\012IF[ ]	/* If */\012PUSHW[ ]	/* 1 value pushed */\0120 \012MDAP[1]	/* MoveDirectAbsPt */\012ELSE[ ]	/* Else */\012PUSHW[ ]	/* 2 values pushed */\0120 5 \012MIAP[0]	/* MoveIndirectAbsPt */\012EIF[ ]	/* EndIf */\012PUSHW[ ]	/* 1 value pushed */\0120 \012RCVT[ ]	/* ReadCVT */\012IF[ ]	/* If */\012PUSHW[ ]	/* 1 value pushed */\01220 \012MDAP[1]	/* MoveDirectAbsPt */\012ELSE[ ]	/* Else */\012PUSHW[ ]	/* 2 values pushed */\01220 5 \012MIAP[0]	/* MoveIndirectAbsPt */\012EIF[ ]	/* EndIf */\012PUSHW[ ]	/* 3 values pushed */\01215 0 9 \012SRP1[ ]	/* SetRefPoint1 */\012SRP2[ ]	/* SetRefPoint2 */\012IP[ ]	/* InterpolatePts */\012IUP[0]	/* InterpolateUntPts */\012IUP[1]	/* InterpolateUntPts */";
};
width = 270;
}
);
leftKerningGroup = b;
leftMetricsKey = n;
note = k;
rightKerningGroup = k;
unicode = 006B;
},
{
color = 6;
glyphname = kgreenlandic;
lastChange = "2021-11-24 17:22:58 +0000";
layers = (
{
layerId = "9AA098C0-EDBC-463F-BC21-AFCD07A070D0";
paths = (
{
closed = 1;
nodes = (
"61 0 LINE",
"89 204 LINE",
"95 217 OFFCURVE",
"133 276 OFFCURVE",
"151 300 CURVE",
"257 0 LINE",
"269 0 LINE",
"158 311 LINE",
"206 375 OFFCURVE",
"278 447 OFFCURVE",
"342 468 CURVE",
"343 475 LINE",
"275 459 OFFCURVE",
"164 353 OFFCURVE",
"92 224 CURVE",
"149 631 LINE",
"138 631 LINE",
"50 0 LINE"
);
}
);
userData = {
assembly = "SVTCA[0]	/* SetFreedomAndProjectionVectorToAxis */\012PUSHW[ ]	/* 1 value pushed */\0120 \012RCVT[ ]	/* ReadCVT */\012IF[ ]	/* If */\012PUSHW[ ]	/* 1 value pushed */\0120 \012MDAP[1]	/* MoveDirectAbsPt */\012ELSE[ ]	/* Else */\012PUSHW[ ]	/* 2 values pushed */\0120 5 \012MIAP[0]	/* MoveIndirectAbsPt */\012EIF[ ]	/* EndIf */\012PUSHW[ ]	/* 1 value pushed */\0120 \012RCVT[ ]	/* ReadCVT */\012IF[ ]	/* If */\012PUSHW[ ]	/* 1 value pushed */\01215 \012MDAP[1]	/* MoveDirectAbsPt */\012ELSE[ ]	/* Else */\012PUSHW[ ]	/* 2 values pushed */\01215 5 \012MIAP[0]	/* MoveIndirectAbsPt */\012EIF[ ]	/* EndIf */\012IUP[0]	/* InterpolateUntPts */\012IUP[1]	/* InterpolateUntPts */";
};
width = 396;
}
);
leftKerningGroup = b;
note = kgreenlandic;
rightKerningGroup = k;
unicode = 0138;
},
{
color = 6;
glyphname = l;
lastChange = "2021-12-01 13:05:41 +0000";
layers = (
{
anchors = (
{
name = bottom;
position = "{20, 0}";
},
{
name = center;
position = "{64, 315}";
},
{
name = top;
position = "{109, 630}";
},
{
name = topright;
position = "{136, 514}";
}
);
layerId = "9AA098C0-EDBC-463F-BC21-AFCD07A070D0";
paths = (
{
closed = 1;
nodes = (
"27 0 LINE",
"115 630 LINE",
"104 630 LINE",
"16 0 LINE"
);
}
);
userData = {
assembly = "SVTCA[0]	/* SetFreedomAndProjectionVectorToAxis */\012PUSHW[ ]	/* 1 value pushed */\0120 \012RCVT[ ]	/* ReadCVT */\012IF[ ]	/* If */\012PUSHW[ ]	/* 1 value pushed */\0120 \012MDAP[1]	/* MoveDirectAbsPt */\012ELSE[ ]	/* Else */\012PUSHW[ ]	/* 2 values pushed */\0120 5 \012MIAP[0]	/* MoveIndirectAbsPt */\012EIF[ ]	/* EndIf */\012IUP[0]	/* InterpolateUntPts */\012IUP[1]	/* InterpolateUntPts */";
};
width = 109;
}
);
leftKerningGroup = b;
leftMetricsKey = n;
note = l;
rightKerningGroup = d;
rightMetricsKey = d;
unicode = 006C;
},
{
color = 11;
glyphname = lslash;
lastChange = "2021-11-24 17:22:56 +0000";
layers = (
{
layerId = "9AA098C0-EDBC-463F-BC21-AFCD07A070D0";
paths = (
{
closed = 1;
nodes = (
"116 0 LINE",
"144 200 LINE",
"229 237 LINE",
"230 247 LINE",
"145 211 LINE",
"204 630 LINE",
"193 630 LINE",
"133 206 LINE",
"52 171 LINE",
"50 160 LINE",
"132 195 LINE",
"105 0 LINE"
);
}
);
userData = {
assembly = "SVTCA[0]	/* SetFreedomAndProjectionVectorToAxis */\012PUSHW[ ]	/* 1 value pushed */\0120 \012RCVT[ ]	/* ReadCVT */\012IF[ ]	/* If */\012PUSHW[ ]	/* 1 value pushed */\0120 \012MDAP[1]	/* MoveDirectAbsPt */\012ELSE[ ]	/* Else */\012PUSHW[ ]	/* 2 values pushed */\0120 5 \012MIAP[0]	/* MoveIndirectAbsPt */\012EIF[ ]	/* EndIf */\012IUP[0]	/* InterpolateUntPts */\012IUP[1]	/* InterpolateUntPts */";
};
width = 282;
}
);
leftKerningGroup = b;
note = lslash;
rightKerningGroup = lslash;
unicode = 0142;
},
{
color = 6;
glyphname = m;
lastChange = "2021-11-24 17:22:58 +0000";
layers = (
{
layerId = "9AA098C0-EDBC-463F-BC21-AFCD07A070D0";
paths = (
{
closed = 1;
nodes = (
"27 0 LINE",
"73 334 LINE",
"84 383 OFFCURVE",
"148 493 OFFCURVE",
"228 493 CURVE SMOOTH",
"283 493 OFFCURVE",
"298 460 OFFCURVE",
"298 416 CURVE SMOOTH",
"298 401 OFFCURVE",
"296 385 OFFCURVE",
"294 369 CURVE SMOOTH",
"242 0 LINE",
"254 0 LINE",
"303 351 LINE",
"324 405 OFFCURVE",
"380 493 OFFCURVE",
"452 493 CURVE SMOOTH",
"507 493 OFFCURVE",
"522 460 OFFCURVE",
"522 416 CURVE SMOOTH",
"522 401 OFFCURVE",
"520 385 OFFCURVE",
"518 369 CURVE SMOOTH",
"466 0 LINE",
"478 0 LINE",
"530 372 LINE SMOOTH",
"532 388 OFFCURVE",
"533 403 OFFCURVE",
"533 417 CURVE SMOOTH",
"533 466 OFFCURVE",
"517 503 OFFCURVE",
"456 503 CURVE SMOOTH",
"387 503 OFFCURVE",
"334 442 OFFCURVE",
"307 388 CURVE",
"308 399 OFFCURVE",
"309 409 OFFCURVE",
"309 419 CURVE SMOOTH",
"309 468 OFFCURVE",
"293 503 OFFCURVE",
"232 503 CURVE SMOOTH",
"159 503 OFFCURVE",
"104 431 OFFCURVE",
"80 377 CURVE",
"97 495 LINE",
"85 495 LINE",
"15 0 LINE"
);
}
);
userData = {
assembly = "SVTCA[0]	/* SetFreedomAndProjectionVectorToAxis */\012PUSHW[ ]	/* 1 value pushed */\0120 \012RCVT[ ]	/* ReadCVT */\012IF[ ]	/* If */\012PUSHW[ ]	/* 1 value pushed */\01222 \012MDAP[1]	/* MoveDirectAbsPt */\012ELSE[ ]	/* Else */\012PUSHW[ ]	/* 2 values pushed */\01222 5 \012MIAP[0]	/* MoveIndirectAbsPt */\012EIF[ ]	/* EndIf */\012PUSHW[ ]	/* 1 value pushed */\0120 \012RCVT[ ]	/* ReadCVT */\012IF[ ]	/* If */\012PUSHW[ ]	/* 1 value pushed */\01235 \012MDAP[1]	/* MoveDirectAbsPt */\012ELSE[ ]	/* Else */\012PUSHW[ ]	/* 2 values pushed */\01235 5 \012MIAP[0]	/* MoveIndirectAbsPt */\012EIF[ ]	/* EndIf */\012PUSHW[ ]	/* 1 value pushed */\0120 \012RCVT[ ]	/* ReadCVT */\012IF[ ]	/* If */\012PUSHW[ ]	/* 1 value pushed */\01248 \012MDAP[1]	/* MoveDirectAbsPt */\012ELSE[ ]	/* Else */\012PUSHW[ ]	/* 2 values pushed */\01248 5 \012MIAP[0]	/* MoveIndirectAbsPt */\012EIF[ ]	/* EndIf */\012IUP[0]	/* InterpolateUntPts */\012IUP[1]	/* InterpolateUntPts */";
};
width = 563;
}
);
leftKerningGroup = n;
leftMetricsKey = n;
note = m;
rightKerningGroup = n;
rightMetricsKey = a;
unicode = 006D;
},
{
color = 6;
glyphname = n;
lastChange = "2021-12-01 13:06:11 +0000";
layers = (
{
anchors = (
{
name = bottom;
position = "{133, 0}";
},
{
name = top;
position = "{204, 495}";
}
);
layerId = "9AA098C0-EDBC-463F-BC21-AFCD07A070D0";
paths = (
{
closed = 1;
nodes = (
"28 0 LINE",
"74 334 LINE",
"85 382 OFFCURVE",
"149 493 OFFCURVE",
"228 493 CURVE SMOOTH",
"283 493 OFFCURVE",
"298 460 OFFCURVE",
"298 416 CURVE SMOOTH",
"298 401 OFFCURVE",
"296 385 OFFCURVE",
"294 369 CURVE SMOOTH",
"242 0 LINE",
"254 0 LINE",
"306 372 LINE SMOOTH",
"308 388 OFFCURVE",
"309 403 OFFCURVE",
"309 417 CURVE SMOOTH",
"309 466 OFFCURVE",
"293 503 OFFCURVE",
"232 503 CURVE SMOOTH",
"159 503 OFFCURVE",
"104 431 OFFCURVE",
"80 377 CURVE",
"97 495 LINE",
"85 495 LINE",
"15 0 LINE"
);
}
);
userData = {
assembly = "SVTCA[0]	/* SetFreedomAndProjectionVectorToAxis */\012PUSHW[ ]	/* 1 value pushed */\0120 \012RCVT[ ]	/* ReadCVT */\012IF[ ]	/* If */\012PUSHW[ ]	/* 1 value pushed */\01212 \012MDAP[1]	/* MoveDirectAbsPt */\012ELSE[ ]	/* Else */\012PUSHW[ ]	/* 2 values pushed */\01212 5 \012MIAP[0]	/* MoveIndirectAbsPt */\012EIF[ ]	/* EndIf */\012PUSHW[ ]	/* 1 value pushed */\0120 \012RCVT[ ]	/* ReadCVT */\012IF[ ]	/* If */\012PUSHW[ ]	/* 1 value pushed */\01225 \012MDAP[1]	/* MoveDirectAbsPt */\012ELSE[ ]	/* Else */\012PUSHW[ ]	/* 2 values pushed */\01225 5 \012MIAP[0]	/* MoveIndirectAbsPt */\012EIF[ ]	/* EndIf */\012IUP[0]	/* InterpolateUntPts */\012IUP[1]	/* InterpolateUntPts */";
};
width = 336;
}
);
leftKerningGroup = n;
note = n;
rightKerningGroup = n;
unicode = 006E;
},
{
color = 6;
glyphname = eng;
lastChange = "2021-11-24 17:22:58 +0000";
layers = (
{
layerId = "9AA098C0-EDBC-463F-BC21-AFCD07A070D0";
paths = (
{
closed = 1;
nodes = (
"183 -116 OFFCURVE",
"186 -115 OFFCURVE",
"190 -115 CURVE SMOOTH",
"239 -112 OFFCURVE",
"277 -91 OFFCURVE",
"285 -31 CURVE SMOOTH",
"342 372 LINE SMOOTH",
"344 387 OFFCURVE",
"345 401 OFFCURVE",
"345 414 CURVE SMOOTH",
"345 467 OFFCURVE",
"324 503 OFFCURVE",
"241 503 CURVE SMOOTH",
"178 503 OFFCURVE",
"143 476 OFFCURVE",
"124 445 CURVE",
"128 495 LINE",
"119 495 LINE",
"50 0 LINE",
"62 0 LINE",
"120 417 LINE",
"133 458 OFFCURVE",
"174 493 OFFCURVE",
"240 493 CURVE SMOOTH",
"315 493 OFFCURVE",
"334 461 OFFCURVE",
"334 413 CURVE SMOOTH",
"334 399 OFFCURVE",
"332 385 OFFCURVE",
"330 369 CURVE SMOOTH",
"273 -32 LINE SMOOTH",
"266 -84 OFFCURVE",
"229 -106 OFFCURVE",
"177 -106 CURVE SMOOTH",
"170 -106 OFFCURVE",
"162 -105 OFFCURVE",
"155 -104 CURVE",
"154 -114 LINE",
"162 -115 OFFCURVE",
"171 -116 OFFCURVE",
"179 -116 CURVE SMOOTH"
);
}
);
userData = {
assembly = "SVTCA[0]	/* SetFreedomAndProjectionVectorToAxis */\012PUSHW[ ]	/* 1 value pushed */\0120 \012RCVT[ ]	/* ReadCVT */\012IF[ ]	/* If */\012PUSHW[ ]	/* 1 value pushed */\01218 \012MDAP[1]	/* MoveDirectAbsPt */\012ELSE[ ]	/* Else */\012PUSHW[ ]	/* 2 values pushed */\01218 9 \012MIAP[0]	/* MoveIndirectAbsPt */\012EIF[ ]	/* EndIf */\012PUSHW[ ]	/* 1 value pushed */\0120 \012RCVT[ ]	/* ReadCVT */\012IF[ ]	/* If */\012PUSHW[ ]	/* 1 value pushed */\01226 \012MDAP[1]	/* MoveDirectAbsPt */\012ELSE[ ]	/* Else */\012PUSHW[ ]	/* 2 values pushed */\01226 9 \012MIAP[0]	/* MoveIndirectAbsPt */\012EIF[ ]	/* EndIf */\012PUSHW[ ]	/* 1 value pushed */\0120 \012RCVT[ ]	/* ReadCVT */\012IF[ ]	/* If */\012PUSHW[ ]	/* 1 value pushed */\01224 \012MDAP[1]	/* MoveDirectAbsPt */\012ELSE[ ]	/* Else */\012PUSHW[ ]	/* 2 values pushed */\01224 5 \012MIAP[0]	/* MoveIndirectAbsPt */\012EIF[ ]	/* EndIf */\012PUSHW[ ]	/* 4 values pushed */\01231 3 23 4 \012CALL[ ]	/* CallFunction */\012PUSHW[ ]	/* 3 values pushed */\01228 23 31 \012SRP1[ ]	/* SetRefPoint1 */\012SRP2[ ]	/* SetRefPoint2 */\012IP[ ]	/* InterpolatePts */\012IUP[0]	/* InterpolateUntPts */\012IUP[1]	/* InterpolateUntPts */";
};
width = 396;
}
);
leftKerningGroup = n;
note = eng;
rightKerningGroup = n;
unicode = 014B;
},
{
color = 6;
glyphname = o;
lastChange = "2021-12-01 13:06:37 +0000";
layers = (
{
anchors = (
{
name = bottom;
position = "{130, 0}";
},
{
name = center;
position = "{165, 248}";
},
{
name = ogonek;
position = "{159, 0}";
},
{
name = top;
position = "{200, 495}";
},
{
name = topright;
position = "{233, 495}";
}
);
layerId = "9AA098C0-EDBC-463F-BC21-AFCD07A070D0";
paths = (
{
closed = 1;
nodes = (
"233 -7 OFFCURVE",
"256 49 OFFCURVE",
"267 124 CURVE SMOOTH",
"302 372 LINE SMOOTH",
"304 387 OFFCURVE",
"305 401 OFFCURVE",
"305 414 CURVE SMOOTH",
"305 467 OFFCURVE",
"284 503 OFFCURVE",
"201 503 CURVE SMOOTH",
"97 503 OFFCURVE",
"73 446 OFFCURVE",
"63 372 CURVE SMOOTH",
"28 124 LINE SMOOTH",
"26 109 OFFCURVE",
"25 94 OFFCURVE",
"25 81 CURVE SMOOTH",
"25 27 OFFCURVE",
"46 -7 OFFCURVE",
"130 -7 CURVE SMOOTH"
);
},
{
closed = 1;
nodes = (
"56 3 OFFCURVE",
"36 36 OFFCURVE",
"36 86 CURVE SMOOTH",
"36 98 OFFCURVE",
"37 112 OFFCURVE",
"39 127 CURVE SMOOTH",
"73 369 LINE SMOOTH",
"83 440 OFFCURVE",
"106 493 OFFCURVE",
"200 493 CURVE SMOOTH",
"275 493 OFFCURVE",
"294 461 OFFCURVE",
"294 413 CURVE SMOOTH",
"294 399 OFFCURVE",
"292 385 OFFCURVE",
"290 369 CURVE SMOOTH",
"256 127 LINE SMOOTH",
"246 57 OFFCURVE",
"226 3 OFFCURVE",
"131 3 CURVE SMOOTH"
);
}
);
width = 330;
}
);
leftKerningGroup = o;
note = o;
rightKerningGroup = o;
unicode = 006F;
},
{
color = 6;
glyphname = oslash;
lastChange = "2021-12-01 13:07:46 +0000";
layers = (
{
anchors = (
{
name = top;
position = "{200, 495}";
}
);
layerId = "9AA098C0-EDBC-463F-BC21-AFCD07A070D0";
paths = (
{
closed = 1;
nodes = (
"-27 -46 LINE",
"30 42 LINE",
"41 13 OFFCURVE",
"66 -7 OFFCURVE",
"130 -7 CURVE SMOOTH",
"233 -7 OFFCURVE",
"257 47 OFFCURVE",
"267 124 CURVE SMOOTH",
"302 372 LINE SMOOTH",
"304 386 OFFCURVE",
"306 401 OFFCURVE",
"306 414 CURVE SMOOTH",
"306 430 OFFCURVE",
"304 444 OFFCURVE",
"298 457 CURVE",
"358 548 LINE",
"346 548 LINE",
"294 467 LINE",
"279 488 OFFCURVE",
"253 503 OFFCURVE",
"202 503 CURVE SMOOTH",
"99 503 OFFCURVE",
"73 446 OFFCURVE",
"63 372 CURVE SMOOTH",
"28 124 LINE SMOOTH",
"26 110 OFFCURVE",
"25 96 OFFCURVE",
"25 82 CURVE SMOOTH",
"25 73 OFFCURVE",
"25 64 OFFCURVE",
"27 56 CURVE",
"-39 -46 LINE"
);
},
{
closed = 1;
nodes = (
"70 3 OFFCURVE",
"46 25 OFFCURVE",
"39 56 CURVE",
"123 187 OFFCURVE",
"205 313 OFFCURVE",
"290 444 CURVE",
"293 434 OFFCURVE",
"294 423 OFFCURVE",
"294 412 CURVE SMOOTH",
"294 398 OFFCURVE",
"292 384 OFFCURVE",
"291 369 CURVE",
"257 127 LINE SMOOTH",
"247 57 OFFCURVE",
"226 3 OFFCURVE",
"131 3 CURVE SMOOTH"
);
},
{
closed = 1;
nodes = (
"33 88 OFFCURVE",
"37 108 OFFCURVE",
"40 127 CURVE SMOOTH",
"74 369 LINE SMOOTH",
"84 440 OFFCURVE",
"104 493 OFFCURVE",
"200 493 CURVE SMOOTH",
"249 493 OFFCURVE",
"274 478 OFFCURVE",
"286 455 CURVE",
"36 71 LINE"
);
}
);
userData = {
assembly = "PUSHW[ ]	/* 4 values pushed */\01213 4 9 4 \012CALL[ ]	/* CallFunction */\012PUSHW[ ]	/* 3 values pushed */\01233 9 13 \012SRP1[ ]	/* SetRefPoint1 */\012SRP2[ ]	/* SetRefPoint2 */\012IP[ ]	/* InterpolatePts */\012PUSHW[ ]	/* 1 value pushed */\01213 \012SRP0[ ]	/* SetRefPoint0 */\012PUSHW[ ]	/* 1 value pushed */\01259 \012MDRP[11100]	/* MoveDirectRelPt */\012SVTCA[0]	/* SetFreedomAndProjectionVectorToAxis */\012PUSHW[ ]	/* 3 values pushed */\01213 28 3 \012CALL[ ]	/* CallFunction */\012PUSHW[ ]	/* 3 values pushed */\01233 28 13 \012SRP1[ ]	/* SetRefPoint1 */\012SRP2[ ]	/* SetRefPoint2 */\012IP[ ]	/* InterpolatePts */\012PUSHW[ ]	/* 3 values pushed */\01248 28 13 \012SRP1[ ]	/* SetRefPoint1 */\012SRP2[ ]	/* SetRefPoint2 */\012IP[ ]	/* InterpolatePts */\012IUP[0]	/* InterpolateUntPts */\012IUP[1]	/* InterpolateUntPts */";
};
width = 330;
}
);
leftKerningGroup = o;
note = oslash;
rightKerningGroup = o;
unicode = 00F8;
},
{
color = 6;
glyphname = oe;
lastChange = "2021-11-24 17:22:58 +0000";
layers = (
{
layerId = "9AA098C0-EDBC-463F-BC21-AFCD07A070D0";
paths = (
{
closed = 1;
nodes = (
"230 -7 OFFCURVE",
"262 25 OFFCURVE",
"277 64 CURVE",
"283 18 OFFCURVE",
"314 -7 OFFCURVE",
"383 -7 CURVE SMOOTH",
"487 -7 OFFCURVE",
"509 48 OFFCURVE",
"519 124 CURVE SMOOTH",
"525 167 LINE",
"514 167 LINE",
"509 127 LINE SMOOTH",
"499 57 OFFCURVE",
"479 3 OFFCURVE",
"384 3 CURVE SMOOTH",
"308 3 OFFCURVE",
"288 35 OFFCURVE",
"288 84 CURVE SMOOTH",
"288 97 OFFCURVE",
"290 112 OFFCURVE",
"292 127 CURVE SMOOTH",
"306 228 LINE",
"349 231 OFFCURVE",
"388 239 OFFCURVE",
"423 251 CURVE SMOOTH",
"485 271 OFFCURVE",
"545 309 OFFCURVE",
"555 372 CURVE SMOOTH",
"557 388 OFFCURVE",
"559 403 OFFCURVE",
"559 417 CURVE SMOOTH",
"559 469 OFFCURVE",
"538 503 OFFCURVE",
"455 503 CURVE SMOOTH",
"376 503 OFFCURVE",
"344 469 OFFCURVE",
"329 428 CURVE",
"323 476 OFFCURVE",
"298 503 OFFCURVE",
"225 503 CURVE SMOOTH",
"121 503 OFFCURVE",
"97 446 OFFCURVE",
"87 372 CURVE SMOOTH",
"52 124 LINE SMOOTH",
"50 109 OFFCURVE",
"49 94 OFFCURVE",
"49 81 CURVE SMOOTH",
"49 27 OFFCURVE",
"70 -7 OFFCURVE",
"154 -7 CURVE SMOOTH"
);
},
{
closed = 1;
nodes = (
"80 3 OFFCURVE",
"60 36 OFFCURVE",
"60 86 CURVE SMOOTH",
"60 98 OFFCURVE",
"61 112 OFFCURVE",
"63 127 CURVE SMOOTH",
"97 369 LINE SMOOTH",
"107 440 OFFCURVE",
"130 493 OFFCURVE",
"224 493 CURVE SMOOTH",
"299 493 OFFCURVE",
"318 461 OFFCURVE",
"318 413 CURVE SMOOTH",
"318 399 OFFCURVE",
"316 385 OFFCURVE",
"314 369 CURVE SMOOTH",
"280 127 LINE SMOOTH",
"270 57 OFFCURVE",
"250 3 OFFCURVE",
"155 3 CURVE SMOOTH"
);
},
{
closed = 1;
nodes = (
"326 369 LINE SMOOTH",
"336 439 OFFCURVE",
"360 493 OFFCURVE",
"454 493 CURVE SMOOTH",
"528 493 OFFCURVE",
"548 461 OFFCURVE",
"548 415 CURVE SMOOTH",
"548 402 OFFCURVE",
"546 388 OFFCURVE",
"544 374 CURVE SMOOTH",
"536 314 OFFCURVE",
"476 279 OFFCURVE",
"419 260 CURVE SMOOTH",
"386 249 OFFCURVE",
"349 241 OFFCURVE",
"308 238 CURVE"
);
}
);
userData = {
assembly = "SVTCA[0]	/* SetFreedomAndProjectionVectorToAxis */\012PUSHW[ ]	/* 4 values pushed */\01225 1 30 4 \012CALL[ ]	/* CallFunction */\012PUSHW[ ]	/* 1 value pushed */\01225 \012SRP0[ ]	/* SetRefPoint0 */\012PUSHW[ ]	/* 1 value pushed */\01233 \012MDRP[10000]	/* MoveDirectRelPt */\012IUP[0]	/* InterpolateUntPts */\012IUP[1]	/* InterpolateUntPts */";
};
width = 596;
}
);
leftKerningGroup = o;
note = oe;
rightKerningGroup = e;
unicode = 0153;
},
{
color = 6;
glyphname = p;
lastChange = "2021-11-24 17:22:58 +0000";
layers = (
{
layerId = "9AA098C0-EDBC-463F-BC21-AFCD07A070D0";
paths = (
{
closed = 1;
nodes = (
"11 -116 LINE",
"33 47 LINE",
"42 16 OFFCURVE",
"68 -7 OFFCURVE",
"135 -7 CURVE SMOOTH",
"238 -7 OFFCURVE",
"262 47 OFFCURVE",
"272 124 CURVE SMOOTH",
"307 372 LINE SMOOTH",
"309 387 OFFCURVE",
"310 401 OFFCURVE",
"310 414 CURVE SMOOTH",
"310 467 OFFCURVE",
"289 503 OFFCURVE",
"206 503 CURVE SMOOTH",
"137 503 OFFCURVE",
"104 472 OFFCURVE",
"88 436 CURVE",
"93 495 LINE",
"85 495 LINE",
"0 -116 LINE"
);
},
{
closed = 1;
nodes = (
"61 3 OFFCURVE",
"41 34 OFFCURVE",
"41 83 CURVE SMOOTH",
"41 97 OFFCURVE",
"43 111 OFFCURVE",
"45 127 CURVE SMOOTH",
"78 363 LINE SMOOTH",
"87 436 OFFCURVE",
"116 493 OFFCURVE",
"205 493 CURVE SMOOTH",
"280 493 OFFCURVE",
"299 460 OFFCURVE",
"299 411 CURVE SMOOTH",
"299 398 OFFCURVE",
"298 384 OFFCURVE",
"296 369 CURVE SMOOTH",
"262 127 LINE SMOOTH",
"252 57 OFFCURVE",
"230 3 OFFCURVE",
"136 3 CURVE SMOOTH"
);
}
);
userData = {
assembly = "SVTCA[0]	/* SetFreedomAndProjectionVectorToAxis */\012PUSHW[ ]	/* 1 value pushed */\01238 \012MDAP[1]	/* MoveDirectAbsPt */\012IUP[0]	/* InterpolateUntPts */\012IUP[1]	/* InterpolateUntPts */";
};
width = 335;
}
);
leftKerningGroup = n;
leftMetricsKey = n;
note = p;
rightKerningGroup = o;
rightMetricsKey = o;
unicode = 0070;
},
{
color = 6;
glyphname = thorn;
lastChange = "2021-11-24 17:22:58 +0000";
layers = (
{
layerId = "9AA098C0-EDBC-463F-BC21-AFCD07A070D0";
paths = (
{
closed = 1;
nodes = (
"61 -116 LINE",
"83 47 LINE",
"92 16 OFFCURVE",
"118 -7 OFFCURVE",
"185 -7 CURVE SMOOTH",
"288 -7 OFFCURVE",
"312 47 OFFCURVE",
"322 124 CURVE SMOOTH",
"357 372 LINE SMOOTH",
"359 387 OFFCURVE",
"360 401 OFFCURVE",
"360 414 CURVE SMOOTH",
"360 467 OFFCURVE",
"339 503 OFFCURVE",
"256 503 CURVE SMOOTH",
"189 503 OFFCURVE",
"157 480 OFFCURVE",
"140 449 CURVE",
"165 630 LINE",
"154 630 LINE",
"50 -116 LINE"
);
},
{
closed = 1;
nodes = (
"111 3 OFFCURVE",
"91 34 OFFCURVE",
"91 83 CURVE SMOOTH",
"91 97 OFFCURVE",
"93 111 OFFCURVE",
"95 127 CURVE SMOOTH",
"131 387 LINE SMOOTH",
"140 450 OFFCURVE",
"169 493 OFFCURVE",
"255 493 CURVE SMOOTH",
"330 493 OFFCURVE",
"349 460 OFFCURVE",
"349 411 CURVE SMOOTH",
"349 398 OFFCURVE",
"348 384 OFFCURVE",
"346 369 CURVE SMOOTH",
"312 127 LINE SMOOTH",
"302 57 OFFCURVE",
"280 3 OFFCURVE",
"186 3 CURVE SMOOTH"
);
}
);
userData = {
assembly = "SVTCA[0]	/* SetFreedomAndProjectionVectorToAxis */\012PUSHW[ ]	/* 1 value pushed */\01238 \012MDAP[1]	/* MoveDirectAbsPt */\012IUP[0]	/* InterpolateUntPts */\012IUP[1]	/* InterpolateUntPts */";
};
width = 461;
}
);
note = thorn;
rightKerningGroup = lslash;
unicode = 00FE;
},
{
color = 6;
glyphname = q;
lastChange = "2021-11-24 17:22:58 +0000";
layers = (
{
layerId = "9AA098C0-EDBC-463F-BC21-AFCD07A070D0";
paths = (
{
closed = 1;
nodes = (
"234 -116 LINE",
"319 495 LINE",
"312 495 LINE",
"302 449 LINE",
"293 480 OFFCURVE",
"267 503 OFFCURVE",
"200 503 CURVE SMOOTH",
"97 503 OFFCURVE",
"73 445 OFFCURVE",
"63 372 CURVE SMOOTH",
"28 124 LINE SMOOTH",
"26 109 OFFCURVE",
"25 94 OFFCURVE",
"25 81 CURVE SMOOTH",
"25 27 OFFCURVE",
"46 -7 OFFCURVE",
"129 -7 CURVE SMOOTH",
"196 -7 OFFCURVE",
"228 16 OFFCURVE",
"245 47 CURVE",
"223 -116 LINE"
);
},
{
closed = 1;
nodes = (
"55 3 OFFCURVE",
"36 35 OFFCURVE",
"36 83 CURVE SMOOTH",
"36 97 OFFCURVE",
"38 111 OFFCURVE",
"40 127 CURVE SMOOTH",
"74 369 LINE SMOOTH",
"84 439 OFFCURVE",
"104 493 OFFCURVE",
"199 493 CURVE SMOOTH",
"271 493 OFFCURVE",
"295 463 OFFCURVE",
"295 415 CURVE SMOOTH",
"295 406 OFFCURVE",
"294 397 OFFCURVE",
"293 387 CURVE SMOOTH",
"257 127 LINE SMOOTH",
"247 56 OFFCURVE",
"224 3 OFFCURVE",
"130 3 CURVE SMOOTH"
);
}
);
userData = {
assembly = "SVTCA[0]	/* SetFreedomAndProjectionVectorToAxis */\012PUSHW[ ]	/* 1 value pushed */\01216 \012MDAP[1]	/* MoveDirectAbsPt */\012PUSHW[ ]	/* 1 value pushed */\01227 \012MDAP[1]	/* MoveDirectAbsPt */\012PUSHW[ ]	/* 3 values pushed */\0122 27 16 \012SRP1[ ]	/* SetRefPoint1 */\012SRP2[ ]	/* SetRefPoint2 */\012IP[ ]	/* InterpolatePts */\012PUSHW[ ]	/* 3 values pushed */\01219 27 16 \012SRP1[ ]	/* SetRefPoint1 */\012SRP2[ ]	/* SetRefPoint2 */\012IP[ ]	/* InterpolatePts */\012IUP[0]	/* InterpolateUntPts */\012IUP[1]	/* InterpolateUntPts */";
};
width = 332;
}
);
leftKerningGroup = o;
leftMetricsKey = o;
note = q;
rightKerningGroup = d;
rightMetricsKey = d;
unicode = 0071;
},
{
color = 6;
glyphname = r;
lastChange = "2021-12-01 13:08:41 +0000";
layers = (
{
anchors = (
{
name = bottom;
position = "{21, 0}";
},
{
name = top;
position = "{155, 495}";
}
);
layerId = "9AA098C0-EDBC-463F-BC21-AFCD07A070D0";
paths = (
{
closed = 1;
nodes = (
"27 0 LINE",
"58 224 LINE",
"74 309 OFFCURVE",
"94 380 OFFCURVE",
"150 439 CURVE SMOOTH",
"181 472 OFFCURVE",
"211 491 OFFCURVE",
"232 491 CURVE SMOOTH",
"233 491 OFFCURVE",
"234 491 OFFCURVE",
"235 491 CURVE SMOOTH",
"238 490 LINE",
"242 490 LINE",
"243 501 LINE",
"235 501 LINE SMOOTH",
"173 501 OFFCURVE",
"100 417 OFFCURVE",
"71 319 CURVE",
"97 495 LINE",
"85 495 LINE",
"15 0 LINE"
);
}
);
userData = {
assembly = "SVTCA[0]	/* SetFreedomAndProjectionVectorToAxis */\012PUSHW[ ]	/* 1 value pushed */\0120 \012RCVT[ ]	/* ReadCVT */\012IF[ ]	/* If */\012PUSHW[ ]	/* 1 value pushed */\01211 \012MDAP[1]	/* MoveDirectAbsPt */\012ELSE[ ]	/* Else */\012PUSHW[ ]	/* 2 values pushed */\01211 5 \012MIAP[0]	/* MoveIndirectAbsPt */\012EIF[ ]	/* EndIf */\012IUP[0]	/* InterpolateUntPts */\012IUP[1]	/* InterpolateUntPts */";
};
width = 208;
}
);
leftKerningGroup = n;
leftMetricsKey = n;
note = r;
rightKerningGroup = r;
unicode = 0072;
},
{
color = 6;
glyphname = s;
lastChange = "2021-12-01 13:08:53 +0000";
layers = (
{
anchors = (
{
name = bottom;
position = "{123, 0}";
},
{
name = top;
position = "{202, 495}";
}
);
layerId = "9AA098C0-EDBC-463F-BC21-AFCD07A070D0";
paths = (
{
closed = 1;
nodes = (
"190 -6 OFFCURVE",
"246 24 OFFCURVE",
"259 114 CURVE SMOOTH",
"260 124 OFFCURVE",
"261 134 OFFCURVE",
"261 143 CURVE SMOOTH",
"261 216 OFFCURVE",
"216 236 OFFCURVE",
"155 265 CURVE SMOOTH",
"109 285 OFFCURVE",
"79 309 OFFCURVE",
"79 362 CURVE SMOOTH",
"79 374 OFFCURVE",
"80 389 OFFCURVE",
"84 405 CURVE SMOOTH",
"96 459 OFFCURVE",
"132 492 OFFCURVE",
"201 492 CURVE SMOOTH",
"251 492 OFFCURVE",
"283 471 OFFCURVE",
"283 427 CURVE SMOOTH",
"283 405 OFFCURVE",
"275 377 OFFCURVE",
"258 344 CURVE",
"269 344 LINE",
"287 377 OFFCURVE",
"294 405 OFFCURVE",
"294 427 CURVE SMOOTH",
"294 477 OFFCURVE",
"256 502 OFFCURVE",
"202 502 CURVE SMOOTH",
"125 502 OFFCURVE",
"88 461 OFFCURVE",
"73 405 CURVE SMOOTH",
"69 389 OFFCURVE",
"67 374 OFFCURVE",
"67 361 CURVE SMOOTH",
"67 303 OFFCURVE",
"104 275 OFFCURVE",
"151 254 CURVE SMOOTH",
"207 229 OFFCURVE",
"249 209 OFFCURVE",
"249 139 CURVE SMOOTH",
"249 45 OFFCURVE",
"195 4 OFFCURVE",
"114 4 CURVE SMOOTH",
"53 4 OFFCURVE",
"23 35 OFFCURVE",
"23 75 CURVE SMOOTH",
"23 103 OFFCURVE",
"37 136 OFFCURVE",
"66 166 CURVE",
"53 166 LINE",
"24 137 OFFCURVE",
"11 105 OFFCURVE",
"11 77 CURVE SMOOTH",
"11 31 OFFCURVE",
"46 -6 OFFCURVE",
"112 -6 CURVE SMOOTH"
);
}
);
userData = {
assembly = "SVTCA[0]	/* SetFreedomAndProjectionVectorToAxis */\012PUSHW[ ]	/* 1 value pushed */\01236 \012MDAP[1]	/* MoveDirectAbsPt */\012PUSHW[ ]	/* 1 value pushed */\0125 \012MDAP[1]	/* MoveDirectAbsPt */\012PUSHW[ ]	/* 3 values pushed */\0120 36 5 \012SRP1[ ]	/* SetRefPoint1 */\012SRP2[ ]	/* SetRefPoint2 */\012IP[ ]	/* InterpolatePts */\012PUSHW[ ]	/* 3 values pushed */\01231 36 5 \012SRP1[ ]	/* SetRefPoint1 */\012SRP2[ ]	/* SetRefPoint2 */\012IP[ ]	/* InterpolatePts */\012IUP[0]	/* InterpolateUntPts */\012IUP[1]	/* InterpolateUntPts */";
};
width = 316;
}
);
leftKerningGroup = s;
note = s;
rightKerningGroup = s;
unicode = 0073;
},
{
color = 6;
glyphname = germandbls;
lastChange = "2021-11-24 17:22:58 +0000";
layers = (
{
layerId = "9AA098C0-EDBC-463F-BC21-AFCD07A070D0";
paths = (
{
closed = 1;
nodes = (
"60 -146 OFFCURVE",
"83 -115 OFFCURVE",
"91 -60 CURVE SMOOTH",
"174 534 LINE SMOOTH",
"181 585 OFFCURVE",
"208 625 OFFCURVE",
"291 625 CURVE SMOOTH",
"354 625 OFFCURVE",
"385 604 OFFCURVE",
"385 558 CURVE SMOOTH",
"385 551 OFFCURVE",
"384 544 OFFCURVE",
"383 537 CURVE SMOOTH",
"371 448 LINE SMOOTH",
"362 385 OFFCURVE",
"337 346 OFFCURVE",
"266 346 CURVE SMOOTH",
"212 346 LINE",
"210 336 LINE",
"253 336 LINE SMOOTH",
"311 336 OFFCURVE",
"355 315 OFFCURVE",
"355 257 CURVE SMOOTH",
"355 252 OFFCURVE",
"355 246 OFFCURVE",
"354 239 CURVE SMOOTH",
"337 123 LINE SMOOTH",
"325 33 OFFCURVE",
"288 9 OFFCURVE",
"221 9 CURVE SMOOTH",
"144 9 LINE",
"143 0 LINE",
"220 0 LINE SMOOTH",
"295 0 OFFCURVE",
"332 23 OFFCURVE",
"347 119 CURVE SMOOTH",
"364 244 LINE SMOOTH",
"365 251 OFFCURVE",
"365 257 OFFCURVE",
"365 263 CURVE SMOOTH",
"365 307 OFFCURVE",
"341 331 OFFCURVE",
"315 335 CURVE",
"317 348 LINE",
"342 351 OFFCURVE",
"373 385 OFFCURVE",
"381 441 CURVE SMOOTH",
"395 538 LINE SMOOTH",
"396 545 OFFCURVE",
"396 551 OFFCURVE",
"396 557 CURVE SMOOTH",
"396 613 OFFCURVE",
"358 633 OFFCURVE",
"292 633 CURVE SMOOTH",
"199 633 OFFCURVE",
"172 604 OFFCURVE",
"161 527 CURVE SMOOTH",
"150 450 LINE",
"119 450 LINE",
"119 447 LINE",
"150 447 LINE",
"79 -55 LINE SMOOTH",
"73 -101 OFFCURVE",
"52 -136 OFFCURVE",
"2 -136 CURVE SMOOTH",
"-18 -136 LINE SMOOTH",
"-25 -136 OFFCURVE",
"-31 -136 OFFCURVE",
"-38 -135 CURVE SMOOTH",
"-60 -133 LINE",
"-61 -143 LINE",
"-45 -146 OFFCURVE",
"-17 -146 OFFCURVE",
"7 -146 CURVE SMOOTH"
);
}
);
width = 436;
}
);
note = germandbls;
rightKerningGroup = lslash;
unicode = 00DF;
},
{
color = 6;
glyphname = longs;
lastChange = "2021-11-24 17:22:58 +0000";
layers = (
{
layerId = "9AA098C0-EDBC-463F-BC21-AFCD07A070D0";
paths = (
{
closed = 1;
nodes = (
"161 -147 OFFCURVE",
"183 -114 OFFCURVE",
"191 -58 CURVE SMOOTH",
"277 552 LINE SMOOTH",
"283 590 OFFCURVE",
"299 627 OFFCURVE",
"345 627 CURVE SMOOTH",
"362 627 OFFCURVE",
"377 626 OFFCURVE",
"388 625 CURVE SMOOTH",
"405 623 LINE",
"406 632 LINE",
"393 635 OFFCURVE",
"373 636 OFFCURVE",
"348 636 CURVE SMOOTH",
"296 636 OFFCURVE",
"273 603 OFFCURVE",
"265 547 CURVE SMOOTH",
"250 438 LINE",
"219 438 LINE",
"217 428 LINE",
"248 428 LINE",
"179 -63 LINE SMOOTH",
"173 -101 OFFCURVE",
"157 -138 OFFCURVE",
"111 -138 CURVE SMOOTH",
"94 -138 OFFCURVE",
"79 -137 OFFCURVE",
"68 -136 CURVE SMOOTH",
"51 -134 LINE",
"50 -143 LINE",
"63 -146 OFFCURVE",
"84 -147 OFFCURVE",
"109 -147 CURVE SMOOTH"
);
}
);
userData = {
assembly = "PUSHW[ ]	/* 4 values pushed */\01236 4 30 4 \012CALL[ ]	/* CallFunction */\012PUSHW[ ]	/* 1 value pushed */\01236 \012SRP0[ ]	/* SetRefPoint0 */\012PUSHW[ ]	/* 1 value pushed */\01239 \012MDRP[10000]	/* MoveDirectRelPt */\012PUSHW[ ]	/* 1 value pushed */\01239 \012MDAP[1]	/* MoveDirectAbsPt */\012SVTCA[0]	/* SetFreedomAndProjectionVectorToAxis */\012PUSHW[ ]	/* 4 values pushed */\0123 3 17 4 \012CALL[ ]	/* CallFunction */\012IUP[0]	/* InterpolateUntPts */\012IUP[1]	/* InterpolateUntPts */";
};
width = 480;
}
);
note = longs;
rightKerningGroup = lslash;
unicode = 017F;
},
{
color = 6;
glyphname = t;
lastChange = "2021-12-01 13:10:59 +0000";
layers = (
{
anchors = (
{
name = bottom;
position = "{90, 0}";
},
{
name = center;
position = "{107, 334}";
},
{
name = top;
position = "{131, 495}";
},
{
name = topright;
position = "{178, 540}";
}
);
layerId = "9AA098C0-EDBC-463F-BC21-AFCD07A070D0";
paths = (
{
closed = 1;
nodes = (
"107 -1 OFFCURVE",
"120 0 OFFCURVE",
"131 2 CURVE SMOOTH",
"138 3 OFFCURVE",
"144 4 OFFCURVE",
"149 5 CURVE",
"151 14 LINE",
"145 13 OFFCURVE",
"139 12 OFFCURVE",
"132 11 CURVE SMOOTH",
"121 10 OFFCURVE",
"106 9 OFFCURVE",
"93 9 CURVE SMOOTH",
"54 9 OFFCURVE",
"42 35 OFFCURVE",
"42 69 CURVE SMOOTH",
"42 80 OFFCURVE",
"43 92 OFFCURVE",
"45 104 CURVE SMOOTH",
"99 485 LINE",
"217 485 LINE",
"218 495 LINE",
"100 495 LINE",
"114 591 LINE",
"106 591 LINE",
"89 495 LINE",
"48 493 LINE",
"47 485 LINE",
"88 485 LINE",
"34 100 LINE SMOOTH",
"32 88 OFFCURVE",
"31 76 OFFCURVE",
"31 65 CURVE SMOOTH",
"31 27 OFFCURVE",
"45 -1 OFFCURVE",
"92 -1 CURVE SMOOTH"
);
}
);
userData = {
assembly = "SVTCA[0]	/* SetFreedomAndProjectionVectorToAxis */\012PUSHW[ ]	/* 1 value pushed */\0120 \012RCVT[ ]	/* ReadCVT */\012IF[ ]	/* If */\012PUSHW[ ]	/* 1 value pushed */\01213 \012MDAP[1]	/* MoveDirectAbsPt */\012ELSE[ ]	/* Else */\012PUSHW[ ]	/* 2 values pushed */\01213 5 \012MIAP[0]	/* MoveIndirectAbsPt */\012EIF[ ]	/* EndIf */\012PUSHW[ ]	/* 1 value pushed */\0120 \012RCVT[ ]	/* ReadCVT */\012IF[ ]	/* If */\012PUSHW[ ]	/* 1 value pushed */\01219 \012MDAP[1]	/* MoveDirectAbsPt */\012ELSE[ ]	/* Else */\012PUSHW[ ]	/* 2 values pushed */\01219 5 \012MIAP[0]	/* MoveIndirectAbsPt */\012EIF[ ]	/* EndIf */\012PUSHW[ ]	/* 1 value pushed */\0120 \012RCVT[ ]	/* ReadCVT */\012IF[ ]	/* If */\012PUSHW[ ]	/* 1 value pushed */\01221 \012MDAP[1]	/* MoveDirectAbsPt */\012ELSE[ ]	/* Else */\012PUSHW[ ]	/* 2 values pushed */\01221 5 \012MIAP[0]	/* MoveIndirectAbsPt */\012EIF[ ]	/* EndIf */\012PUSHW[ ]	/* 1 value pushed */\0120 \012RCVT[ ]	/* ReadCVT */\012IF[ ]	/* If */\012PUSHW[ ]	/* 1 value pushed */\01223 \012MDAP[1]	/* MoveDirectAbsPt */\012ELSE[ ]	/* Else */\012PUSHW[ ]	/* 2 values pushed */\01223 5 \012MIAP[0]	/* MoveIndirectAbsPt */\012EIF[ ]	/* EndIf */\012IUP[0]	/* InterpolateUntPts */\012IUP[1]	/* InterpolateUntPts */";
};
width = 191;
}
);
leftKerningGroup = t;
note = t;
rightKerningGroup = t;
unicode = 0074;
},
{
color = 6;
glyphname = u;
lastChange = "2021-12-01 13:09:18 +0000";
layers = (
{
anchors = (
{
name = bottom;
position = "{133, 0}";
},
{
name = ogonek;
position = "{260, 0}";
},
{
name = top;
position = "{203, 495}";
},
{
name = topright;
position = "{288, 495}";
}
);
layerId = "9AA098C0-EDBC-463F-BC21-AFCD07A070D0";
paths = (
{
closed = 1;
nodes = (
"179 -8 OFFCURVE",
"232 64 OFFCURVE",
"257 119 CURVE",
"239 0 LINE",
"251 0 LINE",
"319 495 LINE",
"308 495 LINE",
"262 161 LINE",
"252 112 OFFCURVE",
"188 2 OFFCURVE",
"108 2 CURVE SMOOTH",
"52 2 OFFCURVE",
"38 33 OFFCURVE",
"38 76 CURVE SMOOTH",
"38 92 OFFCURVE",
"39 108 OFFCURVE",
"42 126 CURVE SMOOTH",
"94 495 LINE",
"82 495 LINE",
"29 123 LINE SMOOTH",
"27 108 OFFCURVE",
"26 94 OFFCURVE",
"26 80 CURVE SMOOTH",
"26 30 OFFCURVE",
"43 -8 OFFCURVE",
"104 -8 CURVE SMOOTH"
);
}
);
userData = {
assembly = "SVTCA[0]	/* SetFreedomAndProjectionVectorToAxis */\012PUSHW[ ]	/* 1 value pushed */\0120 \012RCVT[ ]	/* ReadCVT */\012IF[ ]	/* If */\012PUSHW[ ]	/* 1 value pushed */\01212 \012MDAP[1]	/* MoveDirectAbsPt */\012ELSE[ ]	/* Else */\012PUSHW[ ]	/* 2 values pushed */\01212 9 \012MIAP[0]	/* MoveIndirectAbsPt */\012EIF[ ]	/* EndIf */\012PUSHW[ ]	/* 1 value pushed */\0120 \012RCVT[ ]	/* ReadCVT */\012IF[ ]	/* If */\012PUSHW[ ]	/* 1 value pushed */\01225 \012MDAP[1]	/* MoveDirectAbsPt */\012ELSE[ ]	/* Else */\012PUSHW[ ]	/* 2 values pushed */\01225 9 \012MIAP[0]	/* MoveIndirectAbsPt */\012EIF[ ]	/* EndIf */\012PUSHW[ ]	/* 1 value pushed */\0120 \012RCVT[ ]	/* ReadCVT */\012IF[ ]	/* If */\012PUSHW[ ]	/* 1 value pushed */\0120 \012MDAP[1]	/* MoveDirectAbsPt */\012ELSE[ ]	/* Else */\012PUSHW[ ]	/* 2 values pushed */\0120 5 \012MIAP[0]	/* MoveIndirectAbsPt */\012EIF[ ]	/* EndIf */\012PUSHW[ ]	/* 1 value pushed */\0120 \012RCVT[ ]	/* ReadCVT */\012IF[ ]	/* If */\012PUSHW[ ]	/* 1 value pushed */\01219 \012MDAP[1]	/* MoveDirectAbsPt */\012ELSE[ ]	/* Else */\012PUSHW[ ]	/* 2 values pushed */\01219 5 \012MIAP[0]	/* MoveIndirectAbsPt */\012EIF[ ]	/* EndIf */\012PUSHW[ ]	/* 3 values pushed */\0121 0 12 \012SRP1[ ]	/* SetRefPoint1 */\012SRP2[ ]	/* SetRefPoint2 */\012IP[ ]	/* InterpolatePts */\012IUP[0]	/* InterpolateUntPts */\012IUP[1]	/* InterpolateUntPts */";
};
width = 336;
}
);
leftKerningGroup = u;
leftMetricsKey = "=n-4";
note = u;
rightKerningGroup = u;
rightMetricsKey = a;
unicode = 0075;
},
{
color = 6;
glyphname = v;
lastChange = "2021-11-24 17:22:58 +0000";
layers = (
{
layerId = "9AA098C0-EDBC-463F-BC21-AFCD07A070D0";
paths = (
{
closed = 1;
nodes = (
"96 0 LINE",
"140 57 OFFCURVE",
"176 115 OFFCURVE",
"203 173 CURVE SMOOTH",
"234 237 OFFCURVE",
"259 313 OFFCURVE",
"259 385 CURVE SMOOTH",
"259 423 OFFCURVE",
"251 461 OFFCURVE",
"234 495 CURVE",
"222 495 LINE",
"239 458 OFFCURVE",
"247 420 OFFCURVE",
"247 381 CURVE SMOOTH",
"247 312 OFFCURVE",
"224 241 OFFCURVE",
"194 178 CURVE SMOOTH",
"167 122 OFFCURVE",
"133 67 OFFCURVE",
"92 14 CURVE",
"41 495 LINE",
"28 495 LINE",
"80 0 LINE"
);
}
);
userData = {
assembly = "SVTCA[0]	/* SetFreedomAndProjectionVectorToAxis */\012PUSHW[ ]	/* 1 value pushed */\0120 \012RCVT[ ]	/* ReadCVT */\012IF[ ]	/* If */\012PUSHW[ ]	/* 1 value pushed */\0120 \012MDAP[1]	/* MoveDirectAbsPt */\012ELSE[ ]	/* Else */\012PUSHW[ ]	/* 2 values pushed */\0120 9 \012MIAP[0]	/* MoveIndirectAbsPt */\012EIF[ ]	/* EndIf */\012PUSHW[ ]	/* 1 value pushed */\0120 \012RCVT[ ]	/* ReadCVT */\012IF[ ]	/* If */\012PUSHW[ ]	/* 1 value pushed */\0128 \012MDAP[1]	/* MoveDirectAbsPt */\012ELSE[ ]	/* Else */\012PUSHW[ ]	/* 2 values pushed */\0128 9 \012MIAP[0]	/* MoveIndirectAbsPt */\012EIF[ ]	/* EndIf */\012PUSHW[ ]	/* 1 value pushed */\0120 \012RCVT[ ]	/* ReadCVT */\012IF[ ]	/* If */\012PUSHW[ ]	/* 1 value pushed */\01216 \012MDAP[1]	/* MoveDirectAbsPt */\012ELSE[ ]	/* Else */\012PUSHW[ ]	/* 2 values pushed */\01216 5 \012MIAP[0]	/* MoveIndirectAbsPt */\012EIF[ ]	/* EndIf */\012PUSHW[ ]	/* 3 values pushed */\0121 16 0 \012SRP1[ ]	/* SetRefPoint1 */\012SRP2[ ]	/* SetRefPoint2 */\012IP[ ]	/* InterpolatePts */\012IUP[0]	/* InterpolateUntPts */\012IUP[1]	/* InterpolateUntPts */";
};
width = 263;
}
);
leftKerningGroup = v;
note = v;
rightKerningGroup = v;
unicode = 0076;
},
{
color = 6;
glyphname = w;
lastChange = "2021-12-01 13:09:34 +0000";
layers = (
{
anchors = (
{
name = bottom;
position = "{219, 0}";
},
{
name = top;
position = "{280, 495}";
}
);
layerId = "9AA098C0-EDBC-463F-BC21-AFCD07A070D0";
paths = (
{
closed = 1;
nodes = (
"96 0 LINE",
"276 466 LINE",
"325 0 LINE",
"341 0 LINE",
"385 57 OFFCURVE",
"421 115 OFFCURVE",
"448 173 CURVE SMOOTH",
"479 237 OFFCURVE",
"504 313 OFFCURVE",
"504 385 CURVE SMOOTH",
"504 423 OFFCURVE",
"496 461 OFFCURVE",
"479 495 CURVE",
"467 495 LINE",
"484 458 OFFCURVE",
"492 419 OFFCURVE",
"492 380 CURVE SMOOTH",
"492 347 OFFCURVE",
"487 314 OFFCURVE",
"478 282 CURVE SMOOTH",
"469 247 OFFCURVE",
"456 213 OFFCURVE",
"441 181 CURVE SMOOTH",
"410 117 OFFCURVE",
"379 68 OFFCURVE",
"355 37 CURVE SMOOTH",
"335 11 LINE",
"285 495 LINE",
"275 495 LINE",
"89 14 LINE",
"41 495 LINE",
"28 495 LINE",
"80 0 LINE"
);
}
);
userData = {
assembly = "SVTCA[0]	/* SetFreedomAndProjectionVectorToAxis */\012PUSHW[ ]	/* 1 value pushed */\0120 \012RCVT[ ]	/* ReadCVT */\012IF[ ]	/* If */\012PUSHW[ ]	/* 1 value pushed */\0124 \012MDAP[1]	/* MoveDirectAbsPt */\012ELSE[ ]	/* Else */\012PUSHW[ ]	/* 2 values pushed */\0124 9 \012MIAP[0]	/* MoveIndirectAbsPt */\012EIF[ ]	/* EndIf */\012PUSHW[ ]	/* 1 value pushed */\0120 \012RCVT[ ]	/* ReadCVT */\012IF[ ]	/* If */\012PUSHW[ ]	/* 1 value pushed */\0127 \012MDAP[1]	/* MoveDirectAbsPt */\012ELSE[ ]	/* Else */\012PUSHW[ ]	/* 2 values pushed */\0127 9 \012MIAP[0]	/* MoveIndirectAbsPt */\012EIF[ ]	/* EndIf */\012PUSHW[ ]	/* 1 value pushed */\0120 \012RCVT[ ]	/* ReadCVT */\012IF[ ]	/* If */\012PUSHW[ ]	/* 1 value pushed */\01216 \012MDAP[1]	/* MoveDirectAbsPt */\012ELSE[ ]	/* Else */\012PUSHW[ ]	/* 2 values pushed */\01216 9 \012MIAP[0]	/* MoveIndirectAbsPt */\012EIF[ ]	/* EndIf */\012PUSHW[ ]	/* 1 value pushed */\0120 \012RCVT[ ]	/* ReadCVT */\012IF[ ]	/* If */\012PUSHW[ ]	/* 1 value pushed */\0120 \012MDAP[1]	/* MoveDirectAbsPt */\012ELSE[ ]	/* Else */\012PUSHW[ ]	/* 2 values pushed */\0120 5 \012MIAP[0]	/* MoveIndirectAbsPt */\012EIF[ ]	/* EndIf */\012PUSHW[ ]	/* 1 value pushed */\0120 \012RCVT[ ]	/* ReadCVT */\012IF[ ]	/* If */\012PUSHW[ ]	/* 1 value pushed */\0122 \012MDAP[1]	/* MoveDirectAbsPt */\012ELSE[ ]	/* Else */\012PUSHW[ ]	/* 2 values pushed */\0122 5 \012MIAP[0]	/* MoveIndirectAbsPt */\012EIF[ ]	/* EndIf */\012PUSHW[ ]	/* 3 values pushed */\0121 0 4 \012SRP1[ ]	/* SetRefPoint1 */\012SRP2[ ]	/* SetRefPoint2 */\012IP[ ]	/* InterpolatePts */\012PUSHW[ ]	/* 3 values pushed */\0126 0 4 \012SRP1[ ]	/* SetRefPoint1 */\012SRP2[ ]	/* SetRefPoint2 */\012IP[ ]	/* InterpolatePts */\012IUP[0]	/* InterpolateUntPts */\012IUP[1]	/* InterpolateUntPts */";
};
width = 508;
}
);
leftKerningGroup = w;
leftMetricsKey = v;
note = w;
rightKerningGroup = w;
rightMetricsKey = v;
unicode = 0077;
},
{
color = 6;
glyphname = x;
lastChange = "2021-11-24 17:22:58 +0000";
layers = (
{
layerId = "9AA098C0-EDBC-463F-BC21-AFCD07A070D0";
paths = (
{
closed = 1;
nodes = (
"-2 0 LINE",
"-2 77 OFFCURVE",
"95.004 217.004 OFFCURVE",
"140 259 CURVE",
"158 259 LINE",
"215 191 OFFCURVE",
"214 71 OFFCURVE",
"214 0 CURVE",
"227 0 LINE",
"227 116 OFFCURVE",
"216 209 OFFCURVE",
"169 265 CURVE",
"209 286 OFFCURVE",
"286 422.995 OFFCURVE",
"286 495 CURVE",
"272 495 LINE",
"272 433 OFFCURVE",
"222 325 OFFCURVE",
"159 270 CURVE",
"141 270 LINE",
"106 327 OFFCURVE",
"82 414 OFFCURVE",
"82 495 CURVE",
"68 495 LINE",
"68 414 OFFCURVE",
"101 314 OFFCURVE",
"130 265 CURVE",
"84 219 OFFCURVE",
"-17 80 OFFCURVE",
"-17 0 CURVE"
);
}
);
userData = {
assembly = "SVTCA[0]	/* SetFreedomAndProjectionVectorToAxis */\012PUSHW[ ]	/* 1 value pushed */\0120 \012RCVT[ ]	/* ReadCVT */\012IF[ ]	/* If */\012PUSHW[ ]	/* 1 value pushed */\01210 \012MDAP[1]	/* MoveDirectAbsPt */\012ELSE[ ]	/* Else */\012PUSHW[ ]	/* 2 values pushed */\01210 9 \012MIAP[0]	/* MoveIndirectAbsPt */\012EIF[ ]	/* EndIf */\012PUSHW[ ]	/* 1 value pushed */\0120 \012RCVT[ ]	/* ReadCVT */\012IF[ ]	/* If */\012PUSHW[ ]	/* 1 value pushed */\01220 \012MDAP[1]	/* MoveDirectAbsPt */\012ELSE[ ]	/* Else */\012PUSHW[ ]	/* 2 values pushed */\01220 9 \012MIAP[0]	/* MoveIndirectAbsPt */\012EIF[ ]	/* EndIf */\012PUSHW[ ]	/* 1 value pushed */\0120 \012RCVT[ ]	/* ReadCVT */\012IF[ ]	/* If */\012PUSHW[ ]	/* 1 value pushed */\0120 \012MDAP[1]	/* MoveDirectAbsPt */\012ELSE[ ]	/* Else */\012PUSHW[ ]	/* 2 values pushed */\0120 5 \012MIAP[0]	/* MoveIndirectAbsPt */\012EIF[ ]	/* EndIf */\012PUSHW[ ]	/* 1 value pushed */\0120 \012RCVT[ ]	/* ReadCVT */\012IF[ ]	/* If */\012PUSHW[ ]	/* 1 value pushed */\01229 \012MDAP[1]	/* MoveDirectAbsPt */\012ELSE[ ]	/* Else */\012PUSHW[ ]	/* 2 values pushed */\01229 5 \012MIAP[0]	/* MoveIndirectAbsPt */\012EIF[ ]	/* EndIf */\012IUP[0]	/* InterpolateUntPts */\012IUP[1]	/* InterpolateUntPts */";
};
width = 279;
}
);
note = x;
unicode = 0078;
},
{
color = 6;
glyphname = y;
lastChange = "2021-12-01 13:09:49 +0000";
layers = (
{
anchors = (
{
name = bottom;
position = "{200, 0}";
},
{
name = top;
position = "{155, 495}";
}
);
layerId = "9AA098C0-EDBC-463F-BC21-AFCD07A070D0";
paths = (
{
closed = 1;
nodes = (
"41 -115 OFFCURVE",
"88 -86 OFFCURVE",
"128 -42 CURVE SMOOTH",
"147 -20 OFFCURVE",
"165 5 OFFCURVE",
"180 33 CURVE SMOOTH",
"211 88 OFFCURVE",
"234 146 OFFCURVE",
"249 201 CURVE SMOOTH",
"256 228 OFFCURVE",
"261 252 OFFCURVE",
"264 272 CURVE SMOOTH",
"270 313 OFFCURVE",
"274 354 OFFCURVE",
"274 393 CURVE SMOOTH",
"274 430 OFFCURVE",
"270 465 OFFCURVE",
"261 495 CURVE",
"249 495 LINE",
"258 458 OFFCURVE",
"262 422 OFFCURVE",
"262 387 CURVE SMOOTH",
"262 349 OFFCURVE",
"258 311 OFFCURVE",
"252 272 CURVE SMOOTH",
"235 153 OFFCURVE",
"167 20 OFFCURVE",
"123 -28 CURVE",
"46 495 LINE",
"33 495 LINE",
"112 -37 LINE",
"99 -64 OFFCURVE",
"35 -106 OFFCURVE",
"-12 -106 CURVE SMOOTH",
"-23 -106 OFFCURVE",
"-34 -105 OFFCURVE",
"-43 -104 CURVE SMOOTH",
"-52 -102 OFFCURVE",
"-58 -101 OFFCURVE",
"-59 -100 CURVE",
"-60 -109 LINE",
"-57 -110 OFFCURVE",
"-31 -115 OFFCURVE",
"-12 -115 CURVE SMOOTH"
);
}
);
userData = {
assembly = "SVTCA[0]	/* SetFreedomAndProjectionVectorToAxis */\012PUSHW[ ]	/* 1 value pushed */\0120 \012RCVT[ ]	/* ReadCVT */\012IF[ ]	/* If */\012PUSHW[ ]	/* 1 value pushed */\0120 \012MDAP[1]	/* MoveDirectAbsPt */\012ELSE[ ]	/* Else */\012PUSHW[ ]	/* 2 values pushed */\0120 9 \012MIAP[0]	/* MoveIndirectAbsPt */\012EIF[ ]	/* EndIf */\012PUSHW[ ]	/* 1 value pushed */\0120 \012RCVT[ ]	/* ReadCVT */\012IF[ ]	/* If */\012PUSHW[ ]	/* 1 value pushed */\0129 \012MDAP[1]	/* MoveDirectAbsPt */\012ELSE[ ]	/* Else */\012PUSHW[ ]	/* 2 values pushed */\0129 9 \012MIAP[0]	/* MoveIndirectAbsPt */\012EIF[ ]	/* EndIf */\012IUP[0]	/* InterpolateUntPts */\012IUP[1]	/* InterpolateUntPts */";
};
width = 281;
}
);
leftKerningGroup = y;
note = y;
rightKerningGroup = v;
rightMetricsKey = v;
unicode = 0079;
},
{
color = 6;
glyphname = z;
lastChange = "2021-12-01 13:09:55 +0000";
layers = (
{
anchors = (
{
name = bottom;
position = "{80, 0}";
},
{
name = center;
position = "{115, 248}";
},
{
name = top;
position = "{150, 495}";
}
);
layerId = "9AA098C0-EDBC-463F-BC21-AFCD07A070D0";
paths = (
{
closed = 1;
nodes = (
"179 0 LINE",
"180 10 LINE",
"-7 10 LINE",
"-7 33 OFFCURVE",
"29 95 OFFCURVE",
"59 148 CURVE SMOOTH",
"78 180 OFFCURVE",
"98 214 OFFCURVE",
"121 250 CURVE SMOOTH",
"165 322 OFFCURVE",
"204 389 OFFCURVE",
"229 440 CURVE SMOOTH",
"242 465 OFFCURVE",
"248 484 OFFCURVE",
"248 495 CURVE",
"55 495 LINE",
"54 485 LINE",
"233 485 LINE",
"233 464 OFFCURVE",
"197 404 OFFCURVE",
"167 352 CURVE SMOOTH",
"148 319 OFFCURVE",
"128 285 OFFCURVE",
"106 248 CURVE SMOOTH",
"61 175 OFFCURVE",
"22 107 OFFCURVE",
"-3 55 CURVE SMOOTH",
"-16 29 OFFCURVE",
"-22 11 OFFCURVE",
"-22 0 CURVE"
);
}
);
width = 229;
}
);
leftKerningGroup = z;
note = z;
rightKerningGroup = z;
unicode = 007A;
},
{
color = 6;
glyphname = f_f;
lastChange = "2021-11-24 17:22:58 +0000";
layers = (
{
layerId = "9AA098C0-EDBC-463F-BC21-AFCD07A070D0";
paths = (
{
closed = 1;
nodes = (
"78 -116 OFFCURVE",
"82 -115 OFFCURVE",
"86 -115 CURVE SMOOTH",
"133 -112 OFFCURVE",
"170 -91 OFFCURVE",
"179 -31 CURVE SMOOTH",
"248 461 LINE",
"444 461 LINE",
"374 -32 LINE SMOOTH",
"367 -79 OFFCURVE",
"337 -101 OFFCURVE",
"294 -105 CURVE SMOOTH",
"289 -106 OFFCURVE",
"283 -106 OFFCURVE",
"277 -106 CURVE SMOOTH",
"271 -106 OFFCURVE",
"265 -105 OFFCURVE",
"258 -104 CURVE",
"256 -114 LINE",
"264 -115 OFFCURVE",
"273 -116 OFFCURVE",
"281 -116 CURVE SMOOTH",
"285 -116 OFFCURVE",
"288 -115 OFFCURVE",
"292 -115 CURVE SMOOTH",
"339 -112 OFFCURVE",
"377 -91 OFFCURVE",
"386 -31 CURVE SMOOTH",
"455 461 LINE",
"573 461 LINE",
"574 471 LINE",
"456 471 LINE",
"468 552 LINE SMOOTH",
"474 590 OFFCURVE",
"492 627 OFFCURVE",
"537 627 CURVE SMOOTH",
"554 627 OFFCURVE",
"569 626 OFFCURVE",
"580 625 CURVE SMOOTH",
"597 623 LINE",
"597 632 LINE",
"585 635 OFFCURVE",
"564 636 OFFCURVE",
"539 636 CURVE SMOOTH",
"487 636 OFFCURVE",
"464 603 OFFCURVE",
"456 547 CURVE SMOOTH",
"445 471 LINE",
"249 471 LINE",
"260 552 LINE SMOOTH",
"266 594 OFFCURVE",
"289.998 627 OFFCURVE",
"355 627 CURVE SMOOTH",
"384 627 OFFCURVE",
"409 625 OFFCURVE",
"431 620 CURVE SMOOTH",
"470 611 LINE",
"474 618 LINE",
"457 624 OFFCURVE",
"394 636 OFFCURVE",
"354 636 CURVE SMOOTH",
"285 636 OFFCURVE",
"256 606 OFFCURVE",
"248 547 CURVE SMOOTH",
"238 471 LINE",
"207 471 LINE",
"206 461 LINE",
"237 461 LINE",
"167 -32 LINE SMOOTH",
"160 -84 OFFCURVE",
"121 -106 OFFCURVE",
"74 -106 CURVE SMOOTH",
"67 -106 OFFCURVE",
"59 -105 OFFCURVE",
"52 -104 CURVE",
"50 -114 LINE",
"58 -115 OFFCURVE",
"66 -116 OFFCURVE",
"74 -116 CURVE SMOOTH"
);
}
);
userData = {
assembly = "SVTCA[0]	/* SetFreedomAndProjectionVectorToAxis */\012PUSHW[ ]	/* 4 values pushed */\01271 3 8 4 \012CALL[ ]	/* CallFunction */\012PUSHW[ ]	/* 1 value pushed */\01271 \012SRP0[ ]	/* SetRefPoint0 */\012PUSHW[ ]	/* 1 value pushed */\01214 \012MDRP[10000]	/* MoveDirectRelPt */\012PUSHW[ ]	/* 3 values pushed */\01276 8 71 \012SRP1[ ]	/* SetRefPoint1 */\012SRP2[ ]	/* SetRefPoint2 */\012IP[ ]	/* InterpolatePts */\012IUP[0]	/* InterpolateUntPts */\012IUP[1]	/* InterpolateUntPts */";
};
width = 669;
}
);
note = f_f;
},
{
color = 6;
glyphname = f_f_i;
lastChange = "2021-11-24 17:22:58 +0000";
layers = (
{
layerId = "9AA098C0-EDBC-463F-BC21-AFCD07A070D0";
paths = (
{
closed = 1;
nodes = (
"78 -116 OFFCURVE",
"82 -115 OFFCURVE",
"86 -115 CURVE SMOOTH",
"133 -112 OFFCURVE",
"170 -91 OFFCURVE",
"179 -31 CURVE SMOOTH",
"248 461 LINE",
"444 461 LINE",
"374 -32 LINE SMOOTH",
"367 -84 OFFCURVE",
"329 -106 OFFCURVE",
"280 -106 CURVE SMOOTH",
"273 -106 OFFCURVE",
"265 -105 OFFCURVE",
"258 -104 CURVE",
"256 -114 LINE",
"264 -115 OFFCURVE",
"273 -116 OFFCURVE",
"281 -116 CURVE SMOOTH",
"285 -116 OFFCURVE",
"288 -115 OFFCURVE",
"292 -115 CURVE SMOOTH",
"339 -112 OFFCURVE",
"377 -91 OFFCURVE",
"386 -31 CURVE SMOOTH",
"455 461 LINE",
"652 461 LINE",
"585 0 LINE",
"596 0 LINE",
"664 471 LINE",
"456 471 LINE",
"467 552 LINE SMOOTH",
"473 594 OFFCURVE",
"496.998 627 OFFCURVE",
"562 627 CURVE SMOOTH",
"609 627 OFFCURVE",
"660 616 OFFCURVE",
"680 610 CURVE",
"684 617 LINE",
"670 624 OFFCURVE",
"600 636 OFFCURVE",
"561 636 CURVE SMOOTH",
"492 636 OFFCURVE",
"463 606 OFFCURVE",
"455 547 CURVE SMOOTH",
"445 471 LINE",
"249 471 LINE",
"260 552 LINE SMOOTH",
"266 594 OFFCURVE",
"289.998 627 OFFCURVE",
"355 627 CURVE SMOOTH",
"384 627 OFFCURVE",
"409 625 OFFCURVE",
"431 620 CURVE SMOOTH",
"470 611 LINE",
"474 618 LINE",
"457 624 OFFCURVE",
"394 636 OFFCURVE",
"354 636 CURVE SMOOTH",
"285 636 OFFCURVE",
"256 606 OFFCURVE",
"248 547 CURVE SMOOTH",
"238 471 LINE",
"207 471 LINE",
"206 461 LINE",
"237 461 LINE",
"167 -32 LINE SMOOTH",
"160 -84 OFFCURVE",
"121 -106 OFFCURVE",
"74 -106 CURVE SMOOTH",
"67 -106 OFFCURVE",
"59 -105 OFFCURVE",
"52 -104 CURVE",
"50 -114 LINE",
"58 -115 OFFCURVE",
"66 -116 OFFCURVE",
"74 -116 CURVE SMOOTH"
);
}
);
userData = {
assembly = "SVTCA[0]	/* SetFreedomAndProjectionVectorToAxis */\012PUSHW[ ]	/* 1 value pushed */\0120 \012RCVT[ ]	/* ReadCVT */\012IF[ ]	/* If */\012PUSHW[ ]	/* 1 value pushed */\0120 \012MDAP[1]	/* MoveDirectAbsPt */\012ELSE[ ]	/* Else */\012PUSHW[ ]	/* 2 values pushed */\0120 5 \012MIAP[0]	/* MoveIndirectAbsPt */\012EIF[ ]	/* EndIf */\012PUSHW[ ]	/* 4 values pushed */\01240 3 54 4 \012CALL[ ]	/* CallFunction */\012PUSHW[ ]	/* 3 values pushed */\01245 54 40 \012SRP1[ ]	/* SetRefPoint1 */\012SRP2[ ]	/* SetRefPoint2 */\012IP[ ]	/* InterpolatePts */\012PUSHW[ ]	/* 1 value pushed */\01240 \012SRP0[ ]	/* SetRefPoint0 */\012PUSHW[ ]	/* 1 value pushed */\01262 \012MDRP[10000]	/* MoveDirectRelPt */\012IUP[0]	/* InterpolateUntPts */\012IUP[1]	/* InterpolateUntPts */";
};
width = 749;
}
);
note = f_f_i;
},
{
color = 6;
glyphname = f_f_l;
lastChange = "2021-11-24 17:22:58 +0000";
layers = (
{
layerId = "9AA098C0-EDBC-463F-BC21-AFCD07A070D0";
paths = (
{
closed = 1;
nodes = (
"78 -116 OFFCURVE",
"82 -115 OFFCURVE",
"86 -115 CURVE SMOOTH",
"133 -112 OFFCURVE",
"170 -91 OFFCURVE",
"179 -31 CURVE SMOOTH",
"248 461 LINE",
"448 461 LINE",
"378 -32 LINE SMOOTH",
"371 -84 OFFCURVE",
"333 -106 OFFCURVE",
"284 -106 CURVE SMOOTH",
"277 -106 OFFCURVE",
"269 -105 OFFCURVE",
"262 -104 CURVE",
"260 -114 LINE",
"268 -115 OFFCURVE",
"277 -116 OFFCURVE",
"285 -116 CURVE SMOOTH",
"289 -116 OFFCURVE",
"292 -115 OFFCURVE",
"296 -115 CURVE SMOOTH",
"343 -112 OFFCURVE",
"381 -91 OFFCURVE",
"390 -31 CURVE SMOOTH",
"459 461 LINE",
"577 461 LINE",
"578 471 LINE",
"460 471 LINE",
"472 548 LINE",
"482 593 OFFCURVE",
"498 627 OFFCURVE",
"566 627 CURVE SMOOTH",
"617 627 OFFCURVE",
"660 617 OFFCURVE",
"677 612 CURVE",
"589 0 LINE",
"600 0 LINE",
"688 617 LINE",
"674 624 OFFCURVE",
"604 636 OFFCURVE",
"565 636 CURVE SMOOTH",
"494 636 OFFCURVE",
"471 602 OFFCURVE",
"460 543 CURVE SMOOTH",
"449 471 LINE",
"249 471 LINE",
"260 552 LINE SMOOTH",
"266 594 OFFCURVE",
"289.998 627 OFFCURVE",
"355 627 CURVE SMOOTH",
"384 627 OFFCURVE",
"409 625 OFFCURVE",
"431 620 CURVE SMOOTH",
"470 611 LINE",
"474 618 LINE",
"457 624 OFFCURVE",
"394 636 OFFCURVE",
"354 636 CURVE SMOOTH",
"285 636 OFFCURVE",
"256 606 OFFCURVE",
"248 547 CURVE SMOOTH",
"238 471 LINE",
"207 471 LINE",
"206 461 LINE",
"237 461 LINE",
"167 -32 LINE SMOOTH",
"160 -84 OFFCURVE",
"121 -106 OFFCURVE",
"74 -106 CURVE SMOOTH",
"67 -106 OFFCURVE",
"59 -105 OFFCURVE",
"52 -104 CURVE",
"50 -114 LINE",
"58 -115 OFFCURVE",
"66 -116 OFFCURVE",
"74 -116 CURVE SMOOTH"
);
}
);
userData = {
assembly = "SVTCA[0]	/* SetFreedomAndProjectionVectorToAxis */\012PUSHW[ ]	/* 1 value pushed */\0120 \012RCVT[ ]	/* ReadCVT */\012IF[ ]	/* If */\012PUSHW[ ]	/* 1 value pushed */\01252 \012MDAP[1]	/* MoveDirectAbsPt */\012ELSE[ ]	/* Else */\012PUSHW[ ]	/* 2 values pushed */\01252 5 \012MIAP[0]	/* MoveIndirectAbsPt */\012EIF[ ]	/* EndIf */\012PUSHW[ ]	/* 4 values pushed */\01224 3 38 4 \012CALL[ ]	/* CallFunction */\012PUSHW[ ]	/* 3 values pushed */\01229 38 24 \012SRP1[ ]	/* SetRefPoint1 */\012SRP2[ ]	/* SetRefPoint2 */\012IP[ ]	/* InterpolatePts */\012PUSHW[ ]	/* 1 value pushed */\01224 \012SRP0[ ]	/* SetRefPoint0 */\012PUSHW[ ]	/* 1 value pushed */\01246 \012MDRP[10000]	/* MoveDirectRelPt */\012IUP[0]	/* InterpolateUntPts */\012IUP[1]	/* InterpolateUntPts */";
};
width = 751;
}
);
note = f_f_l;
},
{
color = 6;
glyphname = fi;
lastChange = "2021-11-24 17:22:58 +0000";
layers = (
{
layerId = "9AA098C0-EDBC-463F-BC21-AFCD07A070D0";
paths = (
{
closed = 1;
nodes = (
"78 -116 OFFCURVE",
"82 -115 OFFCURVE",
"86 -115 CURVE SMOOTH",
"133 -112 OFFCURVE",
"170 -91 OFFCURVE",
"179 -31 CURVE SMOOTH",
"248 461 LINE",
"445 461 LINE",
"378 0 LINE",
"389 0 LINE",
"457 471 LINE",
"249 471 LINE",
"260 552 LINE SMOOTH",
"266 594 OFFCURVE",
"289.998 627 OFFCURVE",
"355 627 CURVE SMOOTH",
"402 627 OFFCURVE",
"453 616 OFFCURVE",
"473 610 CURVE",
"477 617 LINE",
"463 624 OFFCURVE",
"393 636 OFFCURVE",
"354 636 CURVE SMOOTH",
"285 636 OFFCURVE",
"256 606 OFFCURVE",
"248 547 CURVE SMOOTH",
"238 471 LINE",
"207 471 LINE",
"206 461 LINE",
"237 461 LINE",
"167 -32 LINE SMOOTH",
"160 -84 OFFCURVE",
"121 -106 OFFCURVE",
"74 -106 CURVE SMOOTH",
"67 -106 OFFCURVE",
"59 -105 OFFCURVE",
"52 -104 CURVE",
"50 -114 LINE",
"58 -115 OFFCURVE",
"66 -116 OFFCURVE",
"74 -116 CURVE SMOOTH"
);
}
);
userData = {
assembly = "SVTCA[0]	/* SetFreedomAndProjectionVectorToAxis */\012PUSHW[ ]	/* 1 value pushed */\0120 \012RCVT[ ]	/* ReadCVT */\012IF[ ]	/* If */\012PUSHW[ ]	/* 1 value pushed */\0120 \012MDAP[1]	/* MoveDirectAbsPt */\012ELSE[ ]	/* Else */\012PUSHW[ ]	/* 2 values pushed */\0120 5 \012MIAP[0]	/* MoveIndirectAbsPt */\012EIF[ ]	/* EndIf */\012PUSHW[ ]	/* 4 values pushed */\01225 3 41 4 \012CALL[ ]	/* CallFunction */\012IUP[0]	/* InterpolateUntPts */\012IUP[1]	/* InterpolateUntPts */";
};
width = 540;
}
);
note = fi;
unicode = FB01;
},
{
color = 6;
glyphname = fl;
lastChange = "2021-11-24 17:22:58 +0000";
layers = (
{
layerId = "9AA098C0-EDBC-463F-BC21-AFCD07A070D0";
paths = (
{
closed = 1;
nodes = (
"78 -116 OFFCURVE",
"82 -115 OFFCURVE",
"86 -115 CURVE SMOOTH",
"133 -112 OFFCURVE",
"170 -91 OFFCURVE",
"179 -31 CURVE SMOOTH",
"248 461 LINE",
"366 461 LINE",
"367 471 LINE",
"249 471 LINE",
"261 548 LINE",
"271 593 OFFCURVE",
"287 627 OFFCURVE",
"355 627 CURVE SMOOTH",
"406 627 OFFCURVE",
"449 617 OFFCURVE",
"466 612 CURVE",
"378 0 LINE",
"389 0 LINE",
"477 617 LINE",
"463 624 OFFCURVE",
"393 636 OFFCURVE",
"354 636 CURVE SMOOTH",
"283 636 OFFCURVE",
"260 602 OFFCURVE",
"249 543 CURVE SMOOTH",
"238 471 LINE",
"207 471 LINE",
"206 461 LINE",
"237 461 LINE",
"167 -32 LINE SMOOTH",
"160 -84 OFFCURVE",
"121 -106 OFFCURVE",
"74 -106 CURVE SMOOTH",
"67 -106 OFFCURVE",
"59 -105 OFFCURVE",
"52 -104 CURVE",
"50 -114 LINE",
"58 -115 OFFCURVE",
"66 -116 OFFCURVE",
"74 -116 CURVE SMOOTH"
);
}
);
userData = {
assembly = "SVTCA[0]	/* SetFreedomAndProjectionVectorToAxis */\012PUSHW[ ]	/* 1 value pushed */\0120 \012RCVT[ ]	/* ReadCVT */\012IF[ ]	/* If */\012PUSHW[ ]	/* 1 value pushed */\0120 \012MDAP[1]	/* MoveDirectAbsPt */\012ELSE[ ]	/* Else */\012PUSHW[ ]	/* 2 values pushed */\0120 5 \012MIAP[0]	/* MoveIndirectAbsPt */\012EIF[ ]	/* EndIf */\012IUP[0]	/* InterpolateUntPts */\012IUP[1]	/* InterpolateUntPts */";
};
width = 527;
}
);
note = fl;
unicode = FB02;
},
{
color = 6;
glyphname = longs_t;
lastChange = "2021-11-24 17:22:58 +0000";
layers = (
{
layerId = "9AA098C0-EDBC-463F-BC21-AFCD07A070D0";
paths = (
{
closed = 1;
nodes = (
"161 -147 OFFCURVE",
"183 -114 OFFCURVE",
"191 -58 CURVE SMOOTH",
"277 552 LINE SMOOTH",
"283 590 OFFCURVE",
"299 627 OFFCURVE",
"345 627 CURVE SMOOTH",
"365 627 OFFCURVE",
"446 622 OFFCURVE",
"467 619 CURVE",
"447 495 LINE",
"415 493 LINE",
"414 485 LINE",
"445 485 LINE",
"390 89 LINE SMOOTH",
"389 79 OFFCURVE",
"388 70 OFFCURVE",
"388 61 CURVE SMOOTH",
"388 22 OFFCURVE",
"404 0 OFFCURVE",
"447 0 CURVE SMOOTH",
"472 0 OFFCURVE",
"492 1 OFFCURVE",
"507 4 CURVE",
"508 14 LINE",
"503 13 OFFCURVE",
"497 12 OFFCURVE",
"490 11 CURVE SMOOTH",
"479 10 OFFCURVE",
"464 9 OFFCURVE",
"447 9 CURVE SMOOTH",
"414 9 OFFCURVE",
"399 37 OFFCURVE",
"399 69 CURVE SMOOTH",
"399 74 OFFCURVE",
"399 79 OFFCURVE",
"400 84 CURVE SMOOTH",
"456 485 LINE",
"574 485 LINE",
"576 495 LINE",
"458 495 LINE",
"476 624 LINE",
"455 627 OFFCURVE",
"374 636 OFFCURVE",
"348 636 CURVE SMOOTH",
"296 636 OFFCURVE",
"273 603 OFFCURVE",
"265 547 CURVE SMOOTH",
"250 438 LINE",
"219 438 LINE",
"217 428 LINE",
"248 428 LINE",
"179 -63 LINE SMOOTH",
"173 -101 OFFCURVE",
"157 -138 OFFCURVE",
"111 -138 CURVE SMOOTH",
"94 -138 OFFCURVE",
"79 -137 OFFCURVE",
"68 -136 CURVE SMOOTH",
"51 -134 LINE",
"50 -143 LINE",
"63 -146 OFFCURVE",
"84 -147 OFFCURVE",
"109 -147 CURVE SMOOTH"
);
}
);
userData = {
assembly = "PUSHW[ ]	/* 4 values pushed */\01251 4 36 4 \012CALL[ ]	/* CallFunction */\012PUSHW[ ]	/* 4 values pushed */\01220 4 32 4 \012CALL[ ]	/* CallFunction */\012PUSHW[ ]	/* 1 value pushed */\01251 \012SRP0[ ]	/* SetRefPoint0 */\012PUSHW[ ]	/* 1 value pushed */\01254 \012MDRP[10000]	/* MoveDirectRelPt */\012PUSHW[ ]	/* 1 value pushed */\01254 \012MDAP[1]	/* MoveDirectAbsPt */\012SVTCA[0]	/* SetFreedomAndProjectionVectorToAxis */\012PUSHW[ ]	/* 1 value pushed */\0120 \012RCVT[ ]	/* ReadCVT */\012IF[ ]	/* If */\012PUSHW[ ]	/* 1 value pushed */\01211 \012MDAP[1]	/* MoveDirectAbsPt */\012ELSE[ ]	/* Else */\012PUSHW[ ]	/* 2 values pushed */\01211 5 \012MIAP[0]	/* MoveIndirectAbsPt */\012EIF[ ]	/* EndIf */\012PUSHW[ ]	/* 1 value pushed */\0120 \012RCVT[ ]	/* ReadCVT */\012IF[ ]	/* If */\012PUSHW[ ]	/* 1 value pushed */\01214 \012MDAP[1]	/* MoveDirectAbsPt */\012ELSE[ ]	/* Else */\012PUSHW[ ]	/* 2 values pushed */\01214 5 \012MIAP[0]	/* MoveIndirectAbsPt */\012EIF[ ]	/* EndIf */\012PUSHW[ ]	/* 4 values pushed */\01258 3 32 4 \012CALL[ ]	/* CallFunction */\012IUP[0]	/* InterpolateUntPts */\012IUP[1]	/* InterpolateUntPts */";
};
width = 626;
}
);
note = longs_t;
},
{
color = 6;
glyphname = s_t;
lastChange = "2021-11-24 17:22:58 +0000";
layers = (
{
layerId = "9AA098C0-EDBC-463F-BC21-AFCD07A070D0";
paths = (
{
closed = 1;
nodes = (
"224 -6 OFFCURVE",
"280 24 OFFCURVE",
"293 114 CURVE SMOOTH",
"294 124 OFFCURVE",
"295 134 OFFCURVE",
"295 143 CURVE SMOOTH",
"295 216 OFFCURVE",
"250 236 OFFCURVE",
"189 265 CURVE SMOOTH",
"143 285 OFFCURVE",
"113 309 OFFCURVE",
"113 362 CURVE SMOOTH",
"113 374 OFFCURVE",
"114 389 OFFCURVE",
"118 405 CURVE SMOOTH",
"130 459 OFFCURVE",
"166 492 OFFCURVE",
"235 492 CURVE SMOOTH",
"279 492 OFFCURVE",
"317 473 OFFCURVE",
"317 423 CURVE SMOOTH",
"317 404 OFFCURVE",
"314 389 OFFCURVE",
"309 378 CURVE SMOOTH",
"292 344 LINE",
"303 344 LINE",
"308 351 OFFCURVE",
"319 372 OFFCURVE",
"324 396 CURVE SMOOTH",
"329 416 OFFCURVE",
"332 439 OFFCURVE",
"335 465 CURVE SMOOTH",
"338 491 OFFCURVE",
"341 517 OFFCURVE",
"345 543 CURVE SMOOTH",
"354 603 OFFCURVE",
"377 622 OFFCURVE",
"412 622 CURVE SMOOTH",
"439 622 OFFCURVE",
"476 607 OFFCURVE",
"485 600 CURVE",
"467 495 LINE",
"426 493 LINE",
"425 485 LINE",
"466 485 LINE",
"411 100 LINE SMOOTH",
"409 88 OFFCURVE",
"408 76 OFFCURVE",
"408 65 CURVE SMOOTH",
"408 27 OFFCURVE",
"422 -1 OFFCURVE",
"469 -1 CURVE SMOOTH",
"484 -1 OFFCURVE",
"497 0 OFFCURVE",
"508 2 CURVE SMOOTH",
"515 3 OFFCURVE",
"521 4 OFFCURVE",
"527 5 CURVE",
"528 14 LINE",
"523 13 OFFCURVE",
"517 12 OFFCURVE",
"510 11 CURVE SMOOTH",
"499 10 OFFCURVE",
"484 9 OFFCURVE",
"471 9 CURVE SMOOTH",
"432 9 OFFCURVE",
"420 35 OFFCURVE",
"420 69 CURVE SMOOTH",
"420 80 OFFCURVE",
"421 92 OFFCURVE",
"423 104 CURVE SMOOTH",
"477 485 LINE",
"595 485 LINE",
"596 495 LINE",
"478 495 LINE",
"494 606 LINE",
"479 614 OFFCURVE",
"443 630 OFFCURVE",
"414 630 CURVE SMOOTH",
"373 630 OFFCURVE",
"342 609 OFFCURVE",
"333 541 CURVE SMOOTH",
"322 459 LINE",
"307 490 OFFCURVE",
"271 502 OFFCURVE",
"236 502 CURVE SMOOTH",
"159 502 OFFCURVE",
"122 461 OFFCURVE",
"107 405 CURVE SMOOTH",
"103 389 OFFCURVE",
"101 374 OFFCURVE",
"101 361 CURVE SMOOTH",
"101 303 OFFCURVE",
"138 275 OFFCURVE",
"185 254 CURVE SMOOTH",
"241 229 OFFCURVE",
"283 209 OFFCURVE",
"283 139 CURVE SMOOTH",
"283 45 OFFCURVE",
"229 4 OFFCURVE",
"148 4 CURVE SMOOTH",
"87 4 OFFCURVE",
"57 35 OFFCURVE",
"57 75 CURVE SMOOTH",
"57 103 OFFCURVE",
"71 136 OFFCURVE",
"100 166 CURVE",
"87 166 LINE",
"58 137 OFFCURVE",
"45 105 OFFCURVE",
"45 77 CURVE SMOOTH",
"45 31 OFFCURVE",
"80 -6 OFFCURVE",
"146 -6 CURVE SMOOTH"
);
}
);
userData = {
assembly = "SVTCA[0]	/* SetFreedomAndProjectionVectorToAxis */\012PUSHW[ ]	/* 1 value pushed */\0120 \012RCVT[ ]	/* ReadCVT */\012IF[ ]	/* If */\012PUSHW[ ]	/* 1 value pushed */\0128 \012MDAP[1]	/* MoveDirectAbsPt */\012ELSE[ ]	/* Else */\012PUSHW[ ]	/* 2 values pushed */\0128 9 \012MIAP[0]	/* MoveIndirectAbsPt */\012EIF[ ]	/* EndIf */\012PUSHW[ ]	/* 1 value pushed */\0120 \012RCVT[ ]	/* ReadCVT */\012IF[ ]	/* If */\012PUSHW[ ]	/* 1 value pushed */\01255 \012MDAP[1]	/* MoveDirectAbsPt */\012ELSE[ ]	/* Else */\012PUSHW[ ]	/* 2 values pushed */\01255 9 \012MIAP[0]	/* MoveIndirectAbsPt */\012EIF[ ]	/* EndIf */\012PUSHW[ ]	/* 1 value pushed */\0120 \012RCVT[ ]	/* ReadCVT */\012IF[ ]	/* If */\012PUSHW[ ]	/* 1 value pushed */\01268 \012MDAP[1]	/* MoveDirectAbsPt */\012ELSE[ ]	/* Else */\012PUSHW[ ]	/* 2 values pushed */\01268 9 \012MIAP[0]	/* MoveIndirectAbsPt */\012EIF[ ]	/* EndIf */\012PUSHW[ ]	/* 1 value pushed */\0120 \012RCVT[ ]	/* ReadCVT */\012IF[ ]	/* If */\012PUSHW[ ]	/* 1 value pushed */\01295 \012MDAP[1]	/* MoveDirectAbsPt */\012ELSE[ ]	/* Else */\012PUSHW[ ]	/* 2 values pushed */\01295 9 \012MIAP[0]	/* MoveIndirectAbsPt */\012EIF[ ]	/* EndIf */\012PUSHW[ ]	/* 1 value pushed */\0120 \012RCVT[ ]	/* ReadCVT */\012IF[ ]	/* If */\012PUSHW[ ]	/* 1 value pushed */\01239 \012MDAP[1]	/* MoveDirectAbsPt */\012ELSE[ ]	/* Else */\012PUSHW[ ]	/* 2 values pushed */\01239 5 \012MIAP[0]	/* MoveIndirectAbsPt */\012EIF[ ]	/* EndIf */\012PUSHW[ ]	/* 1 value pushed */\0120 \012RCVT[ ]	/* ReadCVT */\012IF[ ]	/* If */\012PUSHW[ ]	/* 1 value pushed */\01277 \012MDAP[1]	/* MoveDirectAbsPt */\012ELSE[ ]	/* Else */\012PUSHW[ ]	/* 2 values pushed */\01277 5 \012MIAP[0]	/* MoveIndirectAbsPt */\012EIF[ ]	/* EndIf */\012PUSHW[ ]	/* 1 value pushed */\0120 \012RCVT[ ]	/* ReadCVT */\012IF[ ]	/* If */\012PUSHW[ ]	/* 1 value pushed */\01283 \012MDAP[1]	/* MoveDirectAbsPt */\012ELSE[ ]	/* Else */\012PUSHW[ ]	/* 2 values pushed */\01283 5 \012MIAP[0]	/* MoveIndirectAbsPt */\012EIF[ ]	/* EndIf */\012PUSHW[ ]	/* 1 value pushed */\0120 \012RCVT[ ]	/* ReadCVT */\012IF[ ]	/* If */\012PUSHW[ ]	/* 1 value pushed */\01285 \012MDAP[1]	/* MoveDirectAbsPt */\012ELSE[ ]	/* Else */\012PUSHW[ ]	/* 2 values pushed */\01285 5 \012MIAP[0]	/* MoveIndirectAbsPt */\012EIF[ ]	/* EndIf */\012PUSHW[ ]	/* 1 value pushed */\0120 \012RCVT[ ]	/* ReadCVT */\012IF[ ]	/* If */\012PUSHW[ ]	/* 1 value pushed */\01287 \012MDAP[1]	/* MoveDirectAbsPt */\012ELSE[ ]	/* Else */\012PUSHW[ ]	/* 2 values pushed */\01287 5 \012MIAP[0]	/* MoveIndirectAbsPt */\012EIF[ ]	/* EndIf */\012PUSHW[ ]	/* 3 values pushed */\0120 87 55 \012SRP1[ ]	/* SetRefPoint1 */\012SRP2[ ]	/* SetRefPoint2 */\012IP[ ]	/* InterpolatePts */\012PUSHW[ ]	/* 3 values pushed */\01234 87 55 \012SRP1[ ]	/* SetRefPoint1 */\012SRP2[ ]	/* SetRefPoint2 */\012IP[ ]	/* InterpolatePts */\012PUSHW[ ]	/* 3 values pushed */\01258 87 55 \012SRP1[ ]	/* SetRefPoint1 */\012SRP2[ ]	/* SetRefPoint2 */\012IP[ ]	/* InterpolatePts */\012PUSHW[ ]	/* 3 values pushed */\01282 87 55 \012SRP1[ ]	/* SetRefPoint1 */\012SRP2[ ]	/* SetRefPoint2 */\012IP[ ]	/* InterpolatePts */\012IUP[0]	/* InterpolateUntPts */\012IUP[1]	/* InterpolateUntPts */";
};
width = 661;
}
);
note = s_t;
},
{
color = 6;
glyphname = t_i;
lastChange = "2021-11-24 17:22:58 +0000";
layers = (
{
layerId = "9AA098C0-EDBC-463F-BC21-AFCD07A070D0";
paths = (
{
closed = 1;
nodes = (
"126 -1 OFFCURVE",
"139 0 OFFCURVE",
"150 2 CURVE SMOOTH",
"157 3 OFFCURVE",
"163 4 OFFCURVE",
"168 5 CURVE",
"170 14 LINE",
"164 13 OFFCURVE",
"158 12 OFFCURVE",
"151 11 CURVE SMOOTH",
"140 10 OFFCURVE",
"125 9 OFFCURVE",
"112 9 CURVE SMOOTH",
"73 9 OFFCURVE",
"61 35 OFFCURVE",
"61 69 CURVE SMOOTH",
"61 80 OFFCURVE",
"62 92 OFFCURVE",
"64 104 CURVE SMOOTH",
"118 485 LINE",
"331 485 LINE",
"263 0 LINE",
"274 0 LINE",
"343 495 LINE",
"119 495 LINE",
"133 591 LINE",
"125 591 LINE",
"108 495 LINE",
"67 493 LINE",
"66 485 LINE",
"107 485 LINE",
"53 100 LINE SMOOTH",
"51 88 OFFCURVE",
"50 76 OFFCURVE",
"50 65 CURVE SMOOTH",
"50 27 OFFCURVE",
"64 -1 OFFCURVE",
"111 -1 CURVE SMOOTH"
);
},
{
closed = 1;
nodes = (
"365 619 OFFCURVE",
"370 624 OFFCURVE",
"370 634 CURVE SMOOTH",
"370 640 OFFCURVE",
"367 643 OFFCURVE",
"359 643 CURVE SMOOTH",
"350 643 OFFCURVE",
"345 639 OFFCURVE",
"344 631 CURVE SMOOTH",
"343 623 OFFCURVE",
"347 619 OFFCURVE",
"356 619 CURVE SMOOTH"
);
}
);
userData = {
assembly = "SVTCA[0]	/* SetFreedomAndProjectionVectorToAxis */\012PUSHW[ ]	/* 1 value pushed */\0120 \012RCVT[ ]	/* ReadCVT */\012IF[ ]	/* If */\012PUSHW[ ]	/* 1 value pushed */\01227 \012MDAP[1]	/* MoveDirectAbsPt */\012ELSE[ ]	/* Else */\012PUSHW[ ]	/* 2 values pushed */\01227 9 \012MIAP[0]	/* MoveIndirectAbsPt */\012EIF[ ]	/* EndIf */\012PUSHW[ ]	/* 1 value pushed */\0120 \012RCVT[ ]	/* ReadCVT */\012IF[ ]	/* If */\012PUSHW[ ]	/* 1 value pushed */\01230 \012MDAP[1]	/* MoveDirectAbsPt */\012ELSE[ ]	/* Else */\012PUSHW[ ]	/* 2 values pushed */\01230 9 \012MIAP[0]	/* MoveIndirectAbsPt */\012EIF[ ]	/* EndIf */\012PUSHW[ ]	/* 1 value pushed */\0120 \012RCVT[ ]	/* ReadCVT */\012IF[ ]	/* If */\012PUSHW[ ]	/* 1 value pushed */\0120 \012MDAP[1]	/* MoveDirectAbsPt */\012ELSE[ ]	/* Else */\012PUSHW[ ]	/* 2 values pushed */\0120 5 \012MIAP[0]	/* MoveIndirectAbsPt */\012EIF[ ]	/* EndIf */\012PUSHW[ ]	/* 1 value pushed */\0120 \012RCVT[ ]	/* ReadCVT */\012IF[ ]	/* If */\012PUSHW[ ]	/* 1 value pushed */\01214 \012MDAP[1]	/* MoveDirectAbsPt */\012ELSE[ ]	/* Else */\012PUSHW[ ]	/* 2 values pushed */\01214 5 \012MIAP[0]	/* MoveIndirectAbsPt */\012EIF[ ]	/* EndIf */\012PUSHW[ ]	/* 1 value pushed */\0120 \012RCVT[ ]	/* ReadCVT */\012IF[ ]	/* If */\012PUSHW[ ]	/* 1 value pushed */\01216 \012MDAP[1]	/* MoveDirectAbsPt */\012ELSE[ ]	/* Else */\012PUSHW[ ]	/* 2 values pushed */\01216 5 \012MIAP[0]	/* MoveIndirectAbsPt */\012EIF[ ]	/* EndIf */\012PUSHW[ ]	/* 1 value pushed */\0120 \012RCVT[ ]	/* ReadCVT */\012IF[ ]	/* If */\012PUSHW[ ]	/* 1 value pushed */\01218 \012MDAP[1]	/* MoveDirectAbsPt */\012ELSE[ ]	/* Else */\012PUSHW[ ]	/* 2 values pushed */\01218 5 \012MIAP[0]	/* MoveIndirectAbsPt */\012EIF[ ]	/* EndIf */\012PUSHW[ ]	/* 3 values pushed */\01213 18 27 \012SRP1[ ]	/* SetRefPoint1 */\012SRP2[ ]	/* SetRefPoint2 */\012IP[ ]	/* InterpolatePts */\012IUP[0]	/* InterpolateUntPts */\012IUP[1]	/* InterpolateUntPts */";
};
width = 432;
}
);
note = t_i;
rightKerningGroup = lslash;
},
{
color = 6;
glyphname = t_u;
lastChange = "2021-11-24 17:22:58 +0000";
layers = (
{
layerId = "9AA098C0-EDBC-463F-BC21-AFCD07A070D0";
paths = (
{
closed = 1;
nodes = (
"418 -8 OFFCURVE",
"471 64 OFFCURVE",
"496 119 CURVE",
"478 0 LINE",
"490 0 LINE",
"558 495 LINE",
"547 495 LINE",
"501 161 LINE",
"491 112 OFFCURVE",
"427 2 OFFCURVE",
"347 2 CURVE SMOOTH",
"291 2 OFFCURVE",
"277 33 OFFCURVE",
"277 76 CURVE SMOOTH",
"277 92 OFFCURVE",
"279 108 OFFCURVE",
"281 126 CURVE SMOOTH",
"333 495 LINE",
"120 495 LINE",
"134 591 LINE",
"126 591 LINE",
"109 495 LINE",
"68 493 LINE",
"67 485 LINE",
"108 485 LINE",
"54 100 LINE SMOOTH",
"52 87 OFFCURVE",
"51 74 OFFCURVE",
"51 62 CURVE SMOOTH",
"51 25 OFFCURVE",
"64 -1 OFFCURVE",
"111 -1 CURVE SMOOTH",
"126 -1 OFFCURVE",
"139 0 OFFCURVE",
"150 2 CURVE SMOOTH",
"157 3 OFFCURVE",
"163 4 OFFCURVE",
"169 5 CURVE",
"171 14 LINE",
"165 13 OFFCURVE",
"159 12 OFFCURVE",
"152 11 CURVE SMOOTH",
"141 10 OFFCURVE",
"126 9 OFFCURVE",
"113 9 CURVE SMOOTH",
"74 9 OFFCURVE",
"62 35 OFFCURVE",
"62 69 CURVE SMOOTH",
"62 80 OFFCURVE",
"63 92 OFFCURVE",
"65 104 CURVE SMOOTH",
"119 485 LINE",
"319 485 LINE",
"268 123 LINE SMOOTH",
"266 108 OFFCURVE",
"265 94 OFFCURVE",
"265 80 CURVE SMOOTH",
"265 30 OFFCURVE",
"282 -8 OFFCURVE",
"343 -8 CURVE SMOOTH"
);
}
);
userData = {
assembly = "SVTCA[0]	/* SetFreedomAndProjectionVectorToAxis */\012PUSHW[ ]	/* 1 value pushed */\0120 \012RCVT[ ]	/* ReadCVT */\012IF[ ]	/* If */\012PUSHW[ ]	/* 1 value pushed */\01238 \012MDAP[1]	/* MoveDirectAbsPt */\012ELSE[ ]	/* Else */\012PUSHW[ ]	/* 2 values pushed */\01238 9 \012MIAP[0]	/* MoveIndirectAbsPt */\012EIF[ ]	/* EndIf */\012PUSHW[ ]	/* 1 value pushed */\0120 \012RCVT[ ]	/* ReadCVT */\012IF[ ]	/* If */\012PUSHW[ ]	/* 1 value pushed */\01241 \012MDAP[1]	/* MoveDirectAbsPt */\012ELSE[ ]	/* Else */\012PUSHW[ ]	/* 2 values pushed */\01241 9 \012MIAP[0]	/* MoveIndirectAbsPt */\012EIF[ ]	/* EndIf */\012PUSHW[ ]	/* 1 value pushed */\0120 \012RCVT[ ]	/* ReadCVT */\012IF[ ]	/* If */\012PUSHW[ ]	/* 1 value pushed */\01254 \012MDAP[1]	/* MoveDirectAbsPt */\012ELSE[ ]	/* Else */\012PUSHW[ ]	/* 2 values pushed */\01254 9 \012MIAP[0]	/* MoveIndirectAbsPt */\012EIF[ ]	/* EndIf */\012PUSHW[ ]	/* 1 value pushed */\0120 \012RCVT[ ]	/* ReadCVT */\012IF[ ]	/* If */\012PUSHW[ ]	/* 1 value pushed */\0120 \012MDAP[1]	/* MoveDirectAbsPt */\012ELSE[ ]	/* Else */\012PUSHW[ ]	/* 2 values pushed */\0120 5 \012MIAP[0]	/* MoveIndirectAbsPt */\012EIF[ ]	/* EndIf */\012PUSHW[ ]	/* 1 value pushed */\0120 \012RCVT[ ]	/* ReadCVT */\012IF[ ]	/* If */\012PUSHW[ ]	/* 1 value pushed */\01225 \012MDAP[1]	/* MoveDirectAbsPt */\012ELSE[ ]	/* Else */\012PUSHW[ ]	/* 2 values pushed */\01225 5 \012MIAP[0]	/* MoveIndirectAbsPt */\012EIF[ ]	/* EndIf */\012PUSHW[ ]	/* 1 value pushed */\0120 \012RCVT[ ]	/* ReadCVT */\012IF[ ]	/* If */\012PUSHW[ ]	/* 1 value pushed */\01227 \012MDAP[1]	/* MoveDirectAbsPt */\012ELSE[ ]	/* Else */\012PUSHW[ ]	/* 2 values pushed */\01227 5 \012MIAP[0]	/* MoveIndirectAbsPt */\012EIF[ ]	/* EndIf */\012PUSHW[ ]	/* 1 value pushed */\0120 \012RCVT[ ]	/* ReadCVT */\012IF[ ]	/* If */\012PUSHW[ ]	/* 1 value pushed */\01229 \012MDAP[1]	/* MoveDirectAbsPt */\012ELSE[ ]	/* Else */\012PUSHW[ ]	/* 2 values pushed */\01229 5 \012MIAP[0]	/* MoveIndirectAbsPt */\012EIF[ ]	/* EndIf */\012PUSHW[ ]	/* 1 value pushed */\0120 \012RCVT[ ]	/* ReadCVT */\012IF[ ]	/* If */\012PUSHW[ ]	/* 1 value pushed */\01248 \012MDAP[1]	/* MoveDirectAbsPt */\012ELSE[ ]	/* Else */\012PUSHW[ ]	/* 2 values pushed */\01248 5 \012MIAP[0]	/* MoveIndirectAbsPt */\012EIF[ ]	/* EndIf */\012PUSHW[ ]	/* 3 values pushed */\0121 29 38 \012SRP1[ ]	/* SetRefPoint1 */\012SRP2[ ]	/* SetRefPoint2 */\012IP[ ]	/* InterpolatePts */\012PUSHW[ ]	/* 3 values pushed */\01224 29 38 \012SRP1[ ]	/* SetRefPoint1 */\012SRP2[ ]	/* SetRefPoint2 */\012IP[ ]	/* InterpolatePts */\012IUP[0]	/* InterpolateUntPts */\012IUP[1]	/* InterpolateUntPts */";
};
width = 608;
}
);
note = t_u;
rightKerningGroup = lslash;
},
{
color = 6;
glyphname = ordfeminine;
lastChange = "2021-11-24 17:22:58 +0000";
layers = (
{
layerId = "9AA098C0-EDBC-463F-BC21-AFCD07A070D0";
paths = (
{
closed = 1;
nodes = (
"129 287 OFFCURVE",
"153 297 OFFCURVE",
"172 328 CURVE SMOOTH",
"181 344 LINE",
"173 292 LINE",
"185 292 LINE",
"216 509 LINE SMOOTH",
"218 524 OFFCURVE",
"219 537 OFFCURVE",
"219 548 CURVE SMOOTH",
"219 581 OFFCURVE",
"207 595 OFFCURVE",
"162 595 CURVE SMOOTH",
"97 595 OFFCURVE",
"85 565 OFFCURVE",
"79 513 CURVE SMOOTH",
"76 493 LINE",
"88 493 LINE",
"91 514 LINE SMOOTH",
"99 571 OFFCURVE",
"116 585 OFFCURVE",
"160 585 CURVE SMOOTH",
"199 585 OFFCURVE",
"208 569 OFFCURVE",
"208 547 CURVE SMOOTH",
"208 542 OFFCURVE",
"208 536 OFFCURVE",
"207 530 CURVE SMOOTH",
"206 524 LINE SMOOTH",
"202 496 OFFCURVE",
"176 479 OFFCURVE",
"144 466 CURVE SMOOTH",
"99 449 OFFCURVE",
"63 437 OFFCURVE",
"55 386 CURVE SMOOTH",
"51 358 LINE SMOOTH",
"50 351 OFFCURVE",
"50 345 OFFCURVE",
"50 339 CURVE SMOOTH",
"50 296 OFFCURVE",
"72 287 OFFCURVE",
"102 287 CURVE SMOOTH"
);
},
{
closed = 1;
nodes = (
"78 298 OFFCURVE",
"63 307 OFFCURVE",
"63 342 CURVE SMOOTH",
"63 349 OFFCURVE",
"64 358 OFFCURVE",
"65 368 CURVE SMOOTH",
"68 387 LINE SMOOTH",
"75 433 OFFCURVE",
"112 444 OFFCURVE",
"143 454 CURVE SMOOTH",
"178 467 OFFCURVE",
"194 481 OFFCURVE",
"201 493 CURVE",
"186 383 LINE SMOOTH",
"180 344 OFFCURVE",
"148 298 OFFCURVE",
"103 298 CURVE SMOOTH"
);
}
);
userData = {
assembly = "SVTCA[0]	/* SetFreedomAndProjectionVectorToAxis */\012PUSHW[ ]	/* 3 values pushed */\01240 43 3 \012CALL[ ]	/* CallFunction */\012PUSHW[ ]	/* 1 value pushed */\01243 \012SRP0[ ]	/* SetRefPoint0 */\012PUSHW[ ]	/* 1 value pushed */\01237 \012MDRP[10000]	/* MoveDirectRelPt */\012PUSHW[ ]	/* 1 value pushed */\01237 \012MDAP[1]	/* MoveDirectAbsPt */\012IUP[0]	/* InterpolateUntPts */\012IUP[1]	/* InterpolateUntPts */";
};
width = 271;
}
);
note = ordfeminine;
unicode = 00AA;
},
{
color = 6;
glyphname = ordmasculine;
lastChange = "2021-11-24 17:22:58 +0000";
layers = (
{
layerId = "9AA098C0-EDBC-463F-BC21-AFCD07A070D0";
paths = (
{
closed = 1;
nodes = (
"169 293 OFFCURVE",
"187 310 OFFCURVE",
"195 370 CURVE SMOOTH",
"218 529 LINE SMOOTH",
"219 537 OFFCURVE",
"220 545 OFFCURVE",
"220 551 CURVE SMOOTH",
"220 589 OFFCURVE",
"202 601 OFFCURVE",
"157 601 CURVE SMOOTH",
"102 601 OFFCURVE",
"82 585 OFFCURVE",
"75 529 CURVE SMOOTH",
"52 370 LINE SMOOTH",
"51 360 OFFCURVE",
"50 352 OFFCURVE",
"50 344 CURVE SMOOTH",
"50 305 OFFCURVE",
"68 293 OFFCURVE",
"114 293 CURVE SMOOTH"
);
},
{
closed = 1;
nodes = (
"75 304 OFFCURVE",
"62 315 OFFCURVE",
"62 345 CURVE SMOOTH",
"62 352 OFFCURVE",
"63 361 OFFCURVE",
"64 370 CURVE SMOOTH",
"87 529 LINE SMOOTH",
"94 572 OFFCURVE",
"108 592 OFFCURVE",
"156 592 CURVE SMOOTH",
"195 592 OFFCURVE",
"208 579 OFFCURVE",
"208 551 CURVE SMOOTH",
"208 544 OFFCURVE",
"207 537 OFFCURVE",
"206 529 CURVE SMOOTH",
"183 370 LINE SMOOTH",
"176 321 OFFCURVE",
"162 304 OFFCURVE",
"114 304 CURVE SMOOTH"
);
}
);
width = 266;
}
);
note = ordmasculine;
unicode = 00BA;
},
{
color = 6;
glyphname = "A-cy";
lastChange = "2021-11-24 17:22:56 +0000";
layers = (
{
layerId = "9AA098C0-EDBC-463F-BC21-AFCD07A070D0";
paths = (
{
closed = 1;
nodes = (
"62 0 LINE",
"125 162 LINE",
"333 162 LINE",
"353 0 LINE",
"365 0 LINE",
"296 591 LINE",
"283 591 LINE",
"50 0 LINE"
);
},
{
closed = 1;
nodes = (
"130 173 LINE",
"273 534 LINE",
"287 572 LINE",
"291 532 LINE",
"332 173 LINE"
);
}
);
width = 419;
}
);
note = uni0410;
unicode = 0410;
},
{
color = 6;
glyphname = "Be-cy";
lastChange = "2021-11-24 17:22:58 +0000";
layers = (
{
layerId = "9AA098C0-EDBC-463F-BC21-AFCD07A070D0";
paths = (
{
closed = 1;
nodes = (
"170 0 LINE SMOOTH",
"283 0 OFFCURVE",
"298 69 OFFCURVE",
"307 131 CURVE SMOOTH",
"331 304 LINE SMOOTH",
"333 319 OFFCURVE",
"335 334 OFFCURVE",
"335 349 CURVE SMOOTH",
"335 395 OFFCURVE",
"317 435 OFFCURVE",
"231 435 CURVE SMOOTH",
"122 435 LINE",
"142 580 LINE",
"372 580 LINE",
"373 591 LINE",
"132 591 LINE",
"50 0 LINE"
);
},
{
closed = 1;
nodes = (
"120 425 LINE",
"229 425 LINE SMOOTH",
"307 425 OFFCURVE",
"324 388 OFFCURVE",
"324 344 CURVE SMOOTH",
"324 330 OFFCURVE",
"322 315 OFFCURVE",
"320 301 CURVE SMOOTH",
"296 134 LINE SMOOTH",
"288 75 OFFCURVE",
"274 10 OFFCURVE",
"171 10 CURVE SMOOTH",
"62 10 LINE"
);
}
);
width = 434;
}
);
note = uni0411;
unicode = 0411;
},
{
color = 6;
glyphname = "Ve-cy";
lastChange = "2021-11-24 17:22:58 +0000";
layers = (
{
layerId = "9AA098C0-EDBC-463F-BC21-AFCD07A070D0";
paths = (
{
closed = 1;
nodes = (
"202 0 LINE SMOOTH",
"275 0 OFFCURVE",
"325 16 OFFCURVE",
"339 120 CURVE SMOOTH",
"352 209 LINE SMOOTH",
"353 216 OFFCURVE",
"353 223 OFFCURVE",
"353 229 CURVE SMOOTH",
"353 278 OFFCURVE",
"326 312 OFFCURVE",
"273 312 CURVE",
"331 321 OFFCURVE",
"368 363 OFFCURVE",
"376 419 CURVE SMOOTH",
"387 494 LINE SMOOTH",
"388 501 OFFCURVE",
"388 507 OFFCURVE",
"388 513 CURVE SMOOTH",
"388 570 OFFCURVE",
"346 591 OFFCURVE",
"293 591 CURVE SMOOTH",
"132 591 LINE",
"50 0 LINE"
);
},
{
closed = 1;
nodes = (
"104 306 LINE",
"237 306 LINE SMOOTH",
"295 306 OFFCURVE",
"342 290 OFFCURVE",
"342 232 CURVE SMOOTH",
"342 226 OFFCURVE",
"342 220 OFFCURVE",
"341 214 CURVE SMOOTH",
"328 125 LINE SMOOTH",
"314 26 OFFCURVE",
"270 11 OFFCURVE",
"200 11 CURVE SMOOTH",
"63 11 LINE"
);
},
{
closed = 1;
nodes = (
"143 580 LINE",
"292 580 LINE SMOOTH",
"342 580 OFFCURVE",
"376 558 OFFCURVE",
"376 511 CURVE SMOOTH",
"376 506 OFFCURVE",
"376 501 OFFCURVE",
"375 496 CURVE SMOOTH",
"364 420 LINE SMOOTH",
"355 355 OFFCURVE",
"311 317 OFFCURVE",
"234 317 CURVE SMOOTH",
"106 317 LINE"
);
}
);
width = 441;
}
);
note = uni0412;
unicode = 0412;
},
{
color = 6;
glyphname = "Ge-cy";
lastChange = "2021-11-24 17:22:56 +0000";
layers = (
{
layerId = "9AA098C0-EDBC-463F-BC21-AFCD07A070D0";
paths = (
{
closed = 1;
nodes = (
"62 0 LINE",
"143 580 LINE",
"372 580 LINE",
"373 591 LINE",
"132 591 LINE",
"50 0 LINE"
);
}
);
width = 396;
}
);
note = uni0413;
unicode = 0413;
},
{
color = 6;
glyphname = "Gje-cy";
lastChange = "2021-11-24 17:22:56 +0000";
layers = (
{
layerId = "9AA098C0-EDBC-463F-BC21-AFCD07A070D0";
paths = (
{
closed = 1;
nodes = (
"62 0 LINE",
"144 580 LINE",
"363 580 LINE",
"364 591 LINE",
"133 591 LINE",
"50 0 LINE"
);
},
{
closed = 1;
nodes = (
"228 651 LINE",
"313 737 LINE",
"291 737 LINE",
"217 651 LINE"
);
}
);
width = 421;
}
);
note = uni0403;
unicode = 0403;
},
{
color = 6;
glyphname = "De-cy";
lastChange = "2021-11-24 17:22:56 +0000";
layers = (
{
layerId = "9AA098C0-EDBC-463F-BC21-AFCD07A070D0";
paths = (
{
closed = 1;
nodes = (
"21 -99 LINE",
"35 0 LINE",
"417 0 LINE",
"403 -99 LINE",
"414 -99 LINE",
"429 11 LINE",
"356 11 LINE",
"437 591 LINE",
"237 591 LINE",
"132 92 LINE SMOOTH",
"121 40 OFFCURVE",
"103 13 OFFCURVE",
"80 11 CURVE",
"25 11 LINE",
"10 -99 LINE"
);
},
{
closed = 1;
nodes = (
"132 32 OFFCURVE",
"143 80 OFFCURVE",
"144 92 CURVE",
"248 580 LINE",
"424 580 LINE",
"344 11 LINE",
"105 11 LINE"
);
}
);
width = 502;
}
);
note = uni0414;
unicode = 0414;
},
{
color = 6;
glyphname = "Ie-cy";
lastChange = "2021-11-24 17:22:56 +0000";
layers = (
{
layerId = "9AA098C0-EDBC-463F-BC21-AFCD07A070D0";
paths = (
{
closed = 1;
nodes = (
"291 0 LINE",
"292 11 LINE",
"63 11 LINE",
"104 306 LINE",
"282 306 LINE",
"284 317 LINE",
"106 317 LINE",
"143 580 LINE",
"372 580 LINE",
"373 591 LINE",
"132 591 LINE",
"50 0 LINE"
);
}
);
width = 426;
}
);
note = uni0415;
unicode = 0415;
},
{
color = 6;
glyphname = "Io-cy";
lastChange = "2021-11-24 17:22:58 +0000";
layers = (
{
layerId = "9AA098C0-EDBC-463F-BC21-AFCD07A070D0";
paths = (
{
closed = 1;
nodes = (
"291 0 LINE",
"293 11 LINE",
"64 11 LINE",
"105 306 LINE",
"283 306 LINE",
"285 317 LINE",
"107 317 LINE",
"144 580 LINE",
"373 580 LINE",
"374 591 LINE",
"133 591 LINE",
"50 0 LINE"
);
},
{
closed = 1;
nodes = (
"227 676 OFFCURVE",
"232 682 OFFCURVE",
"232 697 CURVE SMOOTH",
"232 705 OFFCURVE",
"228 708 OFFCURVE",
"219 708 CURVE SMOOTH",
"208 708 OFFCURVE",
"202 703 OFFCURVE",
"200 692 CURVE SMOOTH",
"199 681 OFFCURVE",
"203 676 OFFCURVE",
"214 676 CURVE SMOOTH"
);
},
{
closed = 1;
nodes = (
"323 676 OFFCURVE",
"328 682 OFFCURVE",
"328 697 CURVE SMOOTH",
"328 705 OFFCURVE",
"324 708 OFFCURVE",
"315 708 CURVE SMOOTH",
"304 708 OFFCURVE",
"298 703 OFFCURVE",
"296 692 CURVE SMOOTH",
"295 681 OFFCURVE",
"299 676 OFFCURVE",
"310 676 CURVE SMOOTH"
);
}
);
width = 427;
}
);
note = uni0401;
unicode = 0401;
},
{
color = 6;
glyphname = "Zhe-cy";
lastChange = "2021-11-24 17:22:56 +0000";
layers = (
{
layerId = "9AA098C0-EDBC-463F-BC21-AFCD07A070D0";
paths = (
{
closed = 1;
nodes = (
"65 0 LINE",
"287 299 LINE",
"320 299 LINE",
"279 0 LINE",
"291 0 LINE",
"332 299 LINE",
"365 299 LINE",
"505 0 LINE",
"520 0 LINE",
"376 306 LINE",
"597 591 LINE",
"583 591 LINE",
"365 310 LINE",
"334 310 LINE",
"373 591 LINE",
"361 591 LINE",
"322 310 LINE",
"290 310 LINE",
"151 591 LINE",
"137 591 LINE",
"278 306 LINE",
"50 0 LINE"
);
}
);
width = 661;
}
);
note = uni0416;
unicode = 0416;
},
{
color = 6;
glyphname = "Ze-cy";
lastChange = "2021-11-24 17:22:58 +0000";
layers = (
{
layerId = "9AA098C0-EDBC-463F-BC21-AFCD07A070D0";
paths = (
{
closed = 1;
nodes = (
"214 -8 OFFCURVE",
"243 3 OFFCURVE",
"269 19 CURVE SMOOTH",
"308 46 OFFCURVE",
"327 88 OFFCURVE",
"334 137 CURVE SMOOTH",
"338 163 LINE SMOOTH",
"339 173 OFFCURVE",
"340 182 OFFCURVE",
"340 192 CURVE SMOOTH",
"340 249 OFFCURVE",
"315 300 OFFCURVE",
"247 309 CURVE",
"313 321 OFFCURVE",
"361 373 OFFCURVE",
"371 442 CURVE SMOOTH",
"373 460 LINE SMOOTH",
"374 470 OFFCURVE",
"375 479 OFFCURVE",
"375 488 CURVE SMOOTH",
"375 555 OFFCURVE",
"336 595 OFFCURVE",
"257 595 CURVE SMOOTH",
"168 595 OFFCURVE",
"115 543 OFFCURVE",
"103 460 CURVE SMOOTH",
"99 429 LINE",
"112 429 LINE",
"116 459 LINE SMOOTH",
"127 534 OFFCURVE",
"172 584 OFFCURVE",
"256 584 CURVE SMOOTH",
"329 584 OFFCURVE",
"362 546 OFFCURVE",
"362 487 CURVE SMOOTH",
"362 478 OFFCURVE",
"361 469 OFFCURVE",
"360 459 CURVE SMOOTH",
"357 440 LINE SMOOTH",
"348 370 OFFCURVE",
"290 315 OFFCURVE",
"218 315 CURVE SMOOTH",
"154 315 LINE",
"152 303 LINE",
"216 303 LINE SMOOTH",
"290 303 OFFCURVE",
"328 259 OFFCURVE",
"328 190 CURVE SMOOTH",
"328 182 OFFCURVE",
"327 172 OFFCURVE",
"326 163 CURVE SMOOTH",
"322 137 LINE SMOOTH",
"315 86 OFFCURVE",
"295 49 OFFCURVE",
"262 27 CURVE SMOOTH",
"239 12 OFFCURVE",
"209 3 OFFCURVE",
"174 2 CURVE SMOOTH",
"139 3 OFFCURVE",
"113 12 OFFCURVE",
"94 27 CURVE SMOOTH",
"73 44 OFFCURVE",
"62 71 OFFCURVE",
"62 107 CURVE SMOOTH",
"62 117 OFFCURVE",
"63 126 OFFCURVE",
"64 137 CURVE SMOOTH",
"71 183 LINE",
"59 183 LINE",
"52 137 LINE SMOOTH",
"50 126 OFFCURVE",
"50 115 OFFCURVE",
"50 105 CURVE SMOOTH",
"50 70 OFFCURVE",
"60 40 OFFCURVE",
"85 19 CURVE SMOOTH",
"105 3 OFFCURVE",
"132 -8 OFFCURVE",
"173 -8 CURVE SMOOTH"
);
}
);
width = 430;
}
);
note = uni0417;
unicode = 0417;
},
{
color = 6;
glyphname = "Ii-cy";
lastChange = "2021-11-24 17:22:56 +0000";
layers = (
{
layerId = "9AA098C0-EDBC-463F-BC21-AFCD07A070D0";
paths = (
{
closed = 1;
nodes = (
"66 0 LINE",
"390 564 LINE",
"311 0 LINE",
"323 0 LINE",
"405 591 LINE",
"391 591 LINE",
"63 17 LINE",
"143 591 LINE",
"132 591 LINE",
"50 0 LINE"
);
}
);
width = 459;
}
);
note = uni0418;
unicode = 0418;
},
{
color = 6;
glyphname = "Iishort-cy";
lastChange = "2021-11-24 17:22:56 +0000";
layers = (
{
layerId = "9AA098C0-EDBC-463F-BC21-AFCD07A070D0";
paths = (
{
closed = 1;
nodes = (
"66 0 LINE",
"389 564 LINE",
"311 0 LINE",
"323 0 LINE",
"405 591 LINE",
"391 591 LINE",
"63 17 LINE",
"143 591 LINE",
"132 591 LINE",
"50 0 LINE"
);
},
{
closed = 1;
nodes = (
"345 645 OFFCURVE",
"368 689 OFFCURVE",
"378 722 CURVE",
"367 722 LINE",
"354 674 OFFCURVE",
"320 653 OFFCURVE",
"280 653 CURVE SMOOTH",
"240 653 OFFCURVE",
"212 674 OFFCURVE",
"211 722 CURVE",
"200 722 LINE",
"202 689 OFFCURVE",
"215 645 OFFCURVE",
"279 645 CURVE SMOOTH"
);
}
);
width = 458;
}
);
note = uni0419;
unicode = 0419;
},
{
glyphname = "Iigrave-cy";
lastChange = "2021-11-24 16:17:35 +0000";
layers = (
{
associatedMasterId = "9AA098C0-EDBC-463F-BC21-AFCD07A070D0";
background = {
components = (
{
name = breve;
transform = "{1, 0, 0, 1, 3, 0}";
}
);
paths = (
{
closed = 1;
nodes = (
"149 0 LINE",
"177 85 OFFCURVE",
"204 170 OFFCURVE",
"232 255 CURVE",
"232 0 LINE",
"368 0 LINE",
"368 495 LINE",
"233 495 LINE",
"161 278 LINE",
"161 495 LINE",
"25 495 LINE",
"25 0 LINE"
);
}
);
};
components = (
{
name = "Ii-cy";
},
{
name = gravecomb.case;
transform = "{1, 0, 0, 1, 52, 0}";
}
);
layerId = "84C7F3DB-6EB7-40E5-AF1F-D22350FC6E40";
name = Black;
width = 459;
},
{
components = (
{
name = gravecomb.case;
transform = "{1, 0, 0, 1, 113, 0}";
},
{
name = N;
}
);
layerId = "9AA098C0-EDBC-463F-BC21-AFCD07A070D0";
width = 461;
}
);
leftKerningGroup = uni0431;
note = uni0439;
unicode = 040D;
},
{
color = 6;
glyphname = "Ka-cy";
lastChange = "2021-11-24 17:22:56 +0000";
layers = (
{
layerId = "9AA098C0-EDBC-463F-BC21-AFCD07A070D0";
paths = (
{
closed = 1;
nodes = (
"62 0 LINE",
"103 299 LINE",
"136 299 LINE",
"276 0 LINE",
"291 0 LINE",
"147 306 LINE",
"368 591 LINE",
"354 591 LINE",
"136 310 LINE",
"105 310 LINE",
"144 591 LINE",
"132 591 LINE",
"50 0 LINE"
);
}
);
width = 394;
}
);
note = uni041A;
unicode = 041A;
},
{
color = 6;
glyphname = "Kje-cy";
lastChange = "2021-11-24 17:22:56 +0000";
layers = (
{
layerId = "9AA098C0-EDBC-463F-BC21-AFCD07A070D0";
paths = (
{
closed = 1;
nodes = (
"291 0 LINE",
"147 306 LINE",
"368 591 LINE",
"354 591 LINE",
"133 306 LINE",
"276 0 LINE"
);
},
{
closed = 1;
nodes = (
"62 0 LINE",
"144 591 LINE",
"132 591 LINE",
"50 0 LINE"
);
},
{
closed = 1;
nodes = (
"226 648 LINE",
"311 734 LINE",
"289 734 LINE",
"215 648 LINE"
);
}
);
width = 427;
}
);
note = uni040C;
unicode = 040C;
},
{
color = 6;
glyphname = "El-cy";
lastChange = "2021-11-24 17:22:56 +0000";
layers = (
{
layerId = "9AA098C0-EDBC-463F-BC21-AFCD07A070D0";
paths = (
{
closed = 1;
nodes = (
"61 0 OFFCURVE",
"77 77 OFFCURVE",
"80 92 CURVE SMOOTH",
"183 580 LINE",
"359 580 LINE",
"278 1 LINE",
"290 1 LINE",
"372 591 LINE",
"172 591 LINE",
"68 92 LINE SMOOTH",
"56 36 OFFCURVE",
"38 11 OFFCURVE",
"11 11 CURVE",
"10 0 LINE"
);
}
);
width = 428;
}
);
note = uni041B;
unicode = 041B;
},
{
color = 6;
glyphname = "Em-cy";
lastChange = "2021-11-24 17:22:56 +0000";
layers = (
{
layerId = "9AA098C0-EDBC-463F-BC21-AFCD07A070D0";
paths = (
{
closed = 1;
nodes = (
"62 0 LINE",
"137 537 LINE",
"226 0 LINE",
"240 0 LINE",
"303 148 OFFCURVE",
"385 324 OFFCURVE",
"479 537 CURVE",
"404 0 LINE",
"416 0 LINE",
"498 591 LINE",
"490 591 LINE",
"235 16 LINE",
"141 591 LINE",
"132 591 LINE",
"50 0 LINE"
);
}
);
width = 550;
}
);
note = uni041C;
unicode = 041C;
},
{
color = 6;
glyphname = "En-cy";
lastChange = "2021-11-24 17:22:56 +0000";
layers = (
{
layerId = "9AA098C0-EDBC-463F-BC21-AFCD07A070D0";
paths = (
{
closed = 1;
nodes = (
"62 0 LINE",
"104 306 LINE",
"353 306 LINE",
"311 0 LINE",
"323 0 LINE",
"405 591 LINE",
"393 591 LINE",
"355 317 LINE",
"106 317 LINE",
"144 591 LINE",
"132 591 LINE",
"50 0 LINE"
);
}
);
width = 458;
}
);
note = uni041D;
unicode = 041D;
},
{
color = 6;
glyphname = "O-cy";
lastChange = "2021-11-24 17:22:58 +0000";
layers = (
{
layerId = "9AA098C0-EDBC-463F-BC21-AFCD07A070D0";
paths = (
{
closed = 1;
nodes = (
"249 -12 OFFCURVE",
"309 2 OFFCURVE",
"325 118 CURVE SMOOTH",
"375 469 LINE SMOOTH",
"377 482 OFFCURVE",
"377 493 OFFCURVE",
"377 503 CURVE SMOOTH",
"377 586 OFFCURVE",
"326 599 OFFCURVE",
"257 599 CURVE SMOOTH",
"180 599 OFFCURVE",
"118 585 OFFCURVE",
"102 469 CURVE SMOOTH",
"52 118 LINE SMOOTH",
"50 105 OFFCURVE",
"50 94 OFFCURVE",
"50 84 CURVE SMOOTH",
"50 1 OFFCURVE",
"101 -12 OFFCURVE",
"169 -12 CURVE SMOOTH"
);
},
{
closed = 1;
nodes = (
"111 -2 OFFCURVE",
"61 8 OFFCURVE",
"61 83 CURVE SMOOTH",
"61 93 OFFCURVE",
"62 103 OFFCURVE",
"64 115 CURVE SMOOTH",
"114 472 LINE SMOOTH",
"129 576 OFFCURVE",
"185 589 OFFCURVE",
"254 589 CURVE SMOOTH",
"314 589 OFFCURVE",
"365 579 OFFCURVE",
"365 503 CURVE SMOOTH",
"365 494 OFFCURVE",
"365 484 OFFCURVE",
"363 472 CURVE SMOOTH",
"313 115 LINE SMOOTH",
"298 11 OFFCURVE",
"242 -2 OFFCURVE",
"172 -2 CURVE SMOOTH"
);
}
);
width = 431;
}
);
note = uni041E;
unicode = 041E;
},
{
color = 6;
glyphname = "Pe-cy";
lastChange = "2021-11-24 17:22:56 +0000";
layers = (
{
layerId = "9AA098C0-EDBC-463F-BC21-AFCD07A070D0";
paths = (
{
closed = 1;
nodes = (
"62 0 LINE",
"143 580 LINE",
"360 580 LINE",
"279 0 LINE",
"291 0 LINE",
"373 591 LINE",
"132 591 LINE",
"50 0 LINE"
);
}
);
width = 437;
}
);
note = uni041F;
unicode = 041F;
},
{
color = 6;
glyphname = "Er-cy";
lastChange = "2021-11-24 17:22:58 +0000";
layers = (
{
layerId = "9AA098C0-EDBC-463F-BC21-AFCD07A070D0";
paths = (
{
closed = 1;
nodes = (
"62 0 LINE",
"100 271 LINE",
"211 271 LINE SMOOTH",
"333 271 OFFCURVE",
"361 313 OFFCURVE",
"376 418 CURVE SMOOTH",
"387 494 LINE SMOOTH",
"388 502 OFFCURVE",
"389 509 OFFCURVE",
"389 516 CURVE SMOOTH",
"389 573 OFFCURVE",
"351 591 OFFCURVE",
"280 591 CURVE SMOOTH",
"132 591 LINE",
"50 0 LINE"
);
},
{
closed = 1;
nodes = (
"101 282 LINE",
"143 580 LINE",
"278 580 LINE SMOOTH",
"349 580 OFFCURVE",
"375 563 OFFCURVE",
"375 511 CURVE SMOOTH",
"375 501 OFFCURVE",
"374 489 OFFCURVE",
"372 476 CURVE SMOOTH",
"364 417 LINE SMOOTH",
"350 315 OFFCURVE",
"321 282 OFFCURVE",
"212 282 CURVE SMOOTH"
);
}
);
width = 443;
}
);
note = uni0420;
unicode = 0420;
},
{
color = 6;
glyphname = "Es-cy";
lastChange = "2021-11-24 17:22:58 +0000";
layers = (
{
layerId = "9AA098C0-EDBC-463F-BC21-AFCD07A070D0";
paths = (
{
closed = 1;
nodes = (
"249 -12 OFFCURVE",
"309 2 OFFCURVE",
"325 118 CURVE SMOOTH",
"335 189 LINE",
"323 189 LINE",
"313 116 LINE SMOOTH",
"299 12 OFFCURVE",
"242 -3 OFFCURVE",
"172 -3 CURVE SMOOTH",
"111 -3 OFFCURVE",
"62 9 OFFCURVE",
"62 85 CURVE SMOOTH",
"62 94 OFFCURVE",
"62 105 OFFCURVE",
"64 116 CURVE SMOOTH",
"113 467 LINE SMOOTH",
"128 572 OFFCURVE",
"179 589 OFFCURVE",
"254 589 CURVE SMOOTH",
"320 589 OFFCURVE",
"365 577 OFFCURVE",
"365 505 CURVE SMOOTH",
"365 495 OFFCURVE",
"365 485 OFFCURVE",
"363 473 CURVE SMOOTH",
"350 381 LINE",
"362 381 LINE",
"375 469 LINE SMOOTH",
"377 482 OFFCURVE",
"377 493 OFFCURVE",
"377 503 CURVE SMOOTH",
"377 586 OFFCURVE",
"326 599 OFFCURVE",
"257 599 CURVE SMOOTH",
"180 599 OFFCURVE",
"118 585 OFFCURVE",
"102 469 CURVE SMOOTH",
"52 118 LINE SMOOTH",
"50 105 OFFCURVE",
"50 94 OFFCURVE",
"50 84 CURVE SMOOTH",
"50 1 OFFCURVE",
"101 -12 OFFCURVE",
"169 -12 CURVE SMOOTH"
);
}
);
width = 431;
}
);
note = uni0421;
unicode = 0421;
},
{
color = 6;
glyphname = "Te-cy";
lastChange = "2021-11-24 17:22:56 +0000";
layers = (
{
layerId = "9AA098C0-EDBC-463F-BC21-AFCD07A070D0";
paths = (
{
closed = 1;
nodes = (
"74 0 LINE",
"155 580 LINE",
"269 580 LINE",
"270 591 LINE",
"31 591 LINE",
"30 580 LINE",
"143 580 LINE",
"62 0 LINE"
);
}
);
width = 312;
}
);
note = uni0422;
unicode = 0422;
},
{
color = 6;
glyphname = "U-cy";
lastChange = "2021-11-24 17:22:56 +0000";
layers = (
{
layerId = "9AA098C0-EDBC-463F-BC21-AFCD07A070D0";
paths = (
{
closed = 1;
nodes = (
"101 -3 OFFCURVE",
"135 43 OFFCURVE",
"162 112 CURVE SMOOTH",
"351 591 LINE",
"339 591 LINE",
"156 126 LINE",
"105 591 LINE",
"92 591 LINE",
"146 103 LINE",
"122 30 OFFCURVE",
"74 6 OFFCURVE",
"43 6 CURVE SMOOTH",
"31 6 OFFCURVE",
"20 8 OFFCURVE",
"11 9 CURVE",
"10 0 LINE",
"21 -1 OFFCURVE",
"30 -3 OFFCURVE",
"41 -3 CURVE SMOOTH"
);
}
);
width = 367;
}
);
note = uni0423;
unicode = 0423;
},
{
color = 6;
glyphname = "Ushort-cy";
lastChange = "2021-11-24 17:22:56 +0000";
layers = (
{
layerId = "9AA098C0-EDBC-463F-BC21-AFCD07A070D0";
paths = (
{
closed = 1;
nodes = (
"141 -3 OFFCURVE",
"175 43 OFFCURVE",
"201 112 CURVE SMOOTH",
"390 591 LINE",
"378 591 LINE",
"195 126 LINE",
"144 591 LINE",
"131 591 LINE",
"186 103 LINE",
"162 30 OFFCURVE",
"113 6 OFFCURVE",
"82 6 CURVE SMOOTH",
"70 6 OFFCURVE",
"60 8 OFFCURVE",
"51 9 CURVE",
"50 0 LINE",
"60 -1 OFFCURVE",
"70 -3 OFFCURVE",
"81 -3 CURVE SMOOTH"
);
},
{
closed = 1;
nodes = (
"321 632 OFFCURVE",
"344 676 OFFCURVE",
"355 709 CURVE",
"344 709 LINE",
"330 661 OFFCURVE",
"296 640 OFFCURVE",
"256 640 CURVE SMOOTH",
"216 640 OFFCURVE",
"188 661 OFFCURVE",
"188 709 CURVE",
"177 709 LINE",
"178 676 OFFCURVE",
"191 632 OFFCURVE",
"255 632 CURVE SMOOTH"
);
}
);
width = 447;
}
);
note = uni040E;
unicode = 040E;
},
{
color = 6;
glyphname = "Ef-cy";
lastChange = "2021-11-24 17:22:58 +0000";
layers = (
{
layerId = "9AA098C0-EDBC-463F-BC21-AFCD07A070D0";
paths = (
{
closed = 1;
nodes = (
"188 0 LINE",
"196 59 LINE",
"207 59 LINE SMOOTH",
"287 59 OFFCURVE",
"346 73 OFFCURVE",
"362 189 CURVE SMOOTH",
"392 403 LINE SMOOTH",
"394 416 OFFCURVE",
"395 428 OFFCURVE",
"395 438 CURVE SMOOTH",
"395 520 OFFCURVE",
"342 533 OFFCURVE",
"274 533 CURVE SMOOTH",
"262 533 LINE",
"270 591 LINE",
"258 591 LINE",
"250 533 LINE",
"237 533 LINE SMOOTH",
"160 533 OFFCURVE",
"99 519 OFFCURVE",
"83 403 CURVE SMOOTH",
"53 189 LINE SMOOTH",
"51 176 OFFCURVE",
"50 164 OFFCURVE",
"50 154 CURVE SMOOTH",
"50 72 OFFCURVE",
"103 59 OFFCURVE",
"170 59 CURVE SMOOTH",
"184 59 LINE",
"176 0 LINE"
);
},
{
closed = 1;
nodes = (
"110 69 OFFCURVE",
"62 80 OFFCURVE",
"62 153 CURVE SMOOTH",
"62 163 OFFCURVE",
"63 174 OFFCURVE",
"65 186 CURVE SMOOTH",
"95 406 LINE SMOOTH",
"110 510 OFFCURVE",
"167 523 OFFCURVE",
"236 523 CURVE SMOOTH",
"249 523 LINE",
"185 69 LINE",
"170 69 LINE SMOOTH"
);
},
{
closed = 1;
nodes = (
"261 523 LINE",
"273 523 LINE SMOOTH",
"332 523 OFFCURVE",
"382 512 OFFCURVE",
"382 437 CURVE SMOOTH",
"382 428 OFFCURVE",
"382 418 OFFCURVE",
"380 406 CURVE SMOOTH",
"350 186 LINE SMOOTH",
"335 82 OFFCURVE",
"278 69 OFFCURVE",
"208 69 CURVE SMOOTH",
"197 69 LINE"
);
}
);
width = 470;
}
);
note = uni0424;
unicode = 0424;
},
{
color = 6;
glyphname = "Ha-cy";
lastChange = "2021-11-24 17:22:56 +0000";
layers = (
{
layerId = "9AA098C0-EDBC-463F-BC21-AFCD07A070D0";
paths = (
{
closed = 1;
nodes = (
"40 0 LINE",
"179 292 LINE",
"197 292 LINE",
"252 0 LINE",
"267 0 LINE",
"208 298 LINE",
"351 591 LINE",
"337 591 LINE",
"198 303 LINE",
"180 303 LINE",
"132 591 LINE",
"118 591 LINE",
"169 298 LINE",
"25 0 LINE"
);
}
);
width = 370;
}
);
note = uni0425;
unicode = 0425;
},
{
color = 6;
glyphname = "Che-cy";
lastChange = "2021-11-24 17:22:58 +0000";
layers = (
{
layerId = "9AA098C0-EDBC-463F-BC21-AFCD07A070D0";
paths = (
{
closed = 1;
nodes = (
"232 0 LINE",
"314 591 LINE",
"302 591 LINE",
"246 187 LINE",
"233 176 OFFCURVE",
"203 146 OFFCURVE",
"131 146 CURVE SMOOTH",
"53 146 OFFCURVE",
"37 182 OFFCURVE",
"37 225 CURVE SMOOTH",
"37 240 OFFCURVE",
"39 255 OFFCURVE",
"41 270 CURVE SMOOTH",
"86 591 LINE",
"74 591 LINE",
"29 267 LINE SMOOTH",
"27 252 OFFCURVE",
"25 237 OFFCURVE",
"25 223 CURVE SMOOTH",
"25 176 OFFCURVE",
"44 136 OFFCURVE",
"130 136 CURVE SMOOTH",
"193 136 OFFCURVE",
"233 159 OFFCURVE",
"244 174 CURVE",
"220 0 LINE"
);
}
);
width = 375;
}
);
note = uni0427;
unicode = 0427;
},
{
color = 6;
glyphname = "Tse-cy";
lastChange = "2021-11-24 17:22:56 +0000";
layers = (
{
layerId = "9AA098C0-EDBC-463F-BC21-AFCD07A070D0";
paths = (
{
closed = 1;
nodes = (
"291 -74 LINE",
"303 11 LINE",
"292 11 LINE",
"374 591 LINE",
"362 591 LINE",
"280 11 LINE",
"63 11 LINE",
"145 591 LINE",
"133 591 LINE",
"50 0 LINE",
"291 0 LINE",
"280 -74 LINE"
);
}
);
width = 439;
}
);
note = uni0426;
unicode = 0426;
},
{
color = 6;
glyphname = "Sha-cy";
lastChange = "2021-11-24 17:22:56 +0000";
layers = (
{
layerId = "9AA098C0-EDBC-463F-BC21-AFCD07A070D0";
paths = (
{
closed = 1;
nodes = (
"520 0 LINE",
"602 591 LINE",
"590 591 LINE",
"509 11 LINE",
"292 11 LINE",
"373 591 LINE",
"361 591 LINE",
"280 11 LINE",
"63 11 LINE",
"144 591 LINE",
"132 591 LINE",
"50 0 LINE"
);
}
);
width = 664;
}
);
note = uni0428;
unicode = 0428;
},
{
color = 6;
glyphname = "Shcha-cy";
lastChange = "2021-11-24 17:22:56 +0000";
layers = (
{
layerId = "9AA098C0-EDBC-463F-BC21-AFCD07A070D0";
paths = (
{
closed = 1;
nodes = (
"520 -74 LINE",
"532 11 LINE",
"521 11 LINE",
"603 591 LINE",
"591 591 LINE",
"509 11 LINE",
"292 11 LINE",
"374 591 LINE",
"362 591 LINE",
"280 11 LINE",
"63 11 LINE",
"145 591 LINE",
"133 591 LINE",
"50 0 LINE",
"520 0 LINE",
"509 -74 LINE"
);
}
);
width = 666;
}
);
note = uni0429;
unicode = 0429;
},
{
color = 6;
glyphname = "Dzhe-cy";
lastChange = "2021-11-24 17:22:56 +0000";
layers = (
{
layerId = "9AA098C0-EDBC-463F-BC21-AFCD07A070D0";
paths = (
{
closed = 1;
nodes = (
"162 -99 LINE",
"176 0 LINE",
"291 0 LINE",
"373 591 LINE",
"361 591 LINE",
"280 11 LINE",
"63 11 LINE",
"144 591 LINE",
"132 591 LINE",
"50 0 LINE",
"165 0 LINE",
"151 -99 LINE"
);
}
);
width = 381;
}
);
note = uni040F;
unicode = 040F;
},
{
color = 6;
glyphname = "Softsign-cy";
lastChange = "2021-11-24 17:22:58 +0000";
layers = (
{
layerId = "9AA098C0-EDBC-463F-BC21-AFCD07A070D0";
paths = (
{
closed = 1;
nodes = (
"170 0 LINE SMOOTH",
"283 0 OFFCURVE",
"299 69 OFFCURVE",
"307 131 CURVE SMOOTH",
"331 304 LINE SMOOTH",
"333 319 OFFCURVE",
"335 334 OFFCURVE",
"335 349 CURVE SMOOTH",
"335 395 OFFCURVE",
"317 435 OFFCURVE",
"231 435 CURVE SMOOTH",
"122 435 LINE",
"143 588 LINE",
"132 588 LINE",
"50 0 LINE"
);
},
{
closed = 1;
nodes = (
"120 425 LINE",
"229 425 LINE SMOOTH",
"307 425 OFFCURVE",
"324 388 OFFCURVE",
"324 344 CURVE SMOOTH",
"324 330 OFFCURVE",
"322 315 OFFCURVE",
"320 301 CURVE SMOOTH",
"297 134 LINE SMOOTH",
"288 75 OFFCURVE",
"274 10 OFFCURVE",
"171 10 CURVE SMOOTH",
"62 10 LINE"
);
}
);
width = 398;
}
);
note = uni042C;
unicode = 042C;
},
{
color = 6;
glyphname = "Hardsign-cy";
lastChange = "2021-11-24 17:22:58 +0000";
layers = (
{
layerId = "9AA098C0-EDBC-463F-BC21-AFCD07A070D0";
paths = (
{
closed = 1;
nodes = (
"170 0 LINE SMOOTH",
"283 0 OFFCURVE",
"298 69 OFFCURVE",
"307 131 CURVE SMOOTH",
"331 304 LINE SMOOTH",
"333 319 OFFCURVE",
"335 334 OFFCURVE",
"335 349 CURVE SMOOTH",
"335 395 OFFCURVE",
"317 435 OFFCURVE",
"231 435 CURVE SMOOTH",
"122 435 LINE",
"143 591 LINE",
"66 591 LINE",
"65 580 LINE",
"131 580 LINE",
"50 0 LINE"
);
},
{
closed = 1;
nodes = (
"120 425 LINE",
"229 425 LINE SMOOTH",
"307 425 OFFCURVE",
"324 388 OFFCURVE",
"324 344 CURVE SMOOTH",
"324 330 OFFCURVE",
"322 315 OFFCURVE",
"320 301 CURVE SMOOTH",
"296 134 LINE SMOOTH",
"288 75 OFFCURVE",
"274 10 OFFCURVE",
"171 10 CURVE SMOOTH",
"62 10 LINE"
);
}
);
width = 403;
}
);
note = uni042A;
unicode = 042A;
},
{
color = 6;
glyphname = "Yeru-cy";
lastChange = "2021-11-24 17:22:58 +0000";
layers = (
{
layerId = "9AA098C0-EDBC-463F-BC21-AFCD07A070D0";
paths = (
{
closed = 1;
nodes = (
"170 0 LINE SMOOTH",
"283 0 OFFCURVE",
"298 69 OFFCURVE",
"307 131 CURVE SMOOTH",
"331 304 LINE SMOOTH",
"333 319 OFFCURVE",
"335 334 OFFCURVE",
"335 349 CURVE SMOOTH",
"335 395 OFFCURVE",
"317 435 OFFCURVE",
"231 435 CURVE SMOOTH",
"122 435 LINE",
"143 588 LINE",
"132 588 LINE",
"50 0 LINE"
);
},
{
closed = 1;
nodes = (
"120 425 LINE",
"229 425 LINE SMOOTH",
"307 425 OFFCURVE",
"324 388 OFFCURVE",
"324 344 CURVE SMOOTH",
"324 330 OFFCURVE",
"322 315 OFFCURVE",
"320 301 CURVE SMOOTH",
"296 134 LINE SMOOTH",
"288 75 OFFCURVE",
"274 10 OFFCURVE",
"171 10 CURVE SMOOTH",
"62 10 LINE"
);
},
{
closed = 1;
nodes = (
"373 0 LINE",
"455 591 LINE",
"443 591 LINE",
"361 0 LINE"
);
}
);
width = 531;
}
);
note = uni042B;
unicode = 042B;
},
{
color = 6;
glyphname = "Lje-cy";
lastChange = "2021-11-24 17:22:58 +0000";
layers = (
{
layerId = "9AA098C0-EDBC-463F-BC21-AFCD07A070D0";
paths = (
{
closed = 1;
nodes = (
"101 0 OFFCURVE",
"117 77 OFFCURVE",
"120 92 CURVE SMOOTH",
"223 580 LINE",
"400 580 LINE",
"319 0 LINE",
"439 0 LINE SMOOTH",
"552 0 OFFCURVE",
"567 69 OFFCURVE",
"576 131 CURVE SMOOTH",
"600 304 LINE SMOOTH",
"602 319 OFFCURVE",
"604 334 OFFCURVE",
"604 349 CURVE SMOOTH",
"604 395 OFFCURVE",
"586 435 OFFCURVE",
"500 435 CURVE SMOOTH",
"391 435 LINE",
"412 591 LINE",
"212 591 LINE",
"108 92 LINE SMOOTH",
"96 36 OFFCURVE",
"78 11 OFFCURVE",
"51 11 CURVE",
"50 0 LINE"
);
},
{
closed = 1;
nodes = (
"389 425 LINE",
"498 425 LINE SMOOTH",
"576 425 OFFCURVE",
"593 388 OFFCURVE",
"593 344 CURVE SMOOTH",
"593 330 OFFCURVE",
"591 315 OFFCURVE",
"589 301 CURVE SMOOTH",
"565 134 LINE SMOOTH",
"557 75 OFFCURVE",
"543 10 OFFCURVE",
"440 10 CURVE SMOOTH",
"331 10 LINE"
);
}
);
width = 663;
}
);
note = uni0409;
unicode = 0409;
},
{
color = 6;
glyphname = "Nje-cy";
lastChange = "2021-11-24 17:22:58 +0000";
layers = (
{
layerId = "9AA098C0-EDBC-463F-BC21-AFCD07A070D0";
paths = (
{
closed = 1;
nodes = (
"62 0 LINE",
"104 306 LINE",
"267 306 LINE",
"225 0 LINE",
"345 0 LINE SMOOTH",
"458 0 OFFCURVE",
"473 69 OFFCURVE",
"482 131 CURVE SMOOTH",
"506 304 LINE SMOOTH",
"508 319 OFFCURVE",
"510 334 OFFCURVE",
"510 349 CURVE SMOOTH",
"510 395 OFFCURVE",
"492 435 OFFCURVE",
"406 435 CURVE SMOOTH",
"298 435 LINE",
"319 591 LINE",
"307 591 LINE",
"269 317 LINE",
"106 317 LINE",
"144 591 LINE",
"132 591 LINE",
"50 0 LINE"
);
},
{
closed = 1;
nodes = (
"296 425 LINE",
"404 425 LINE SMOOTH",
"482 425 OFFCURVE",
"499 388 OFFCURVE",
"499 344 CURVE SMOOTH",
"499 330 OFFCURVE",
"497 315 OFFCURVE",
"495 301 CURVE SMOOTH",
"471 134 LINE SMOOTH",
"463 75 OFFCURVE",
"449 10 OFFCURVE",
"346 10 CURVE SMOOTH",
"238 10 LINE"
);
}
);
width = 603;
}
);
note = uni040A;
unicode = 040A;
},
{
color = 6;
glyphname = "Dze-cy";
lastChange = "2021-11-24 17:22:58 +0000";
layers = (
{
layerId = "9AA098C0-EDBC-463F-BC21-AFCD07A070D0";
paths = (
{
closed = 1;
nodes = (
"234 -9 OFFCURVE",
"298 31 OFFCURVE",
"314 146 CURVE SMOOTH",
"316 160 OFFCURVE",
"317 173 OFFCURVE",
"317 184 CURVE SMOOTH",
"317 219 OFFCURVE",
"308 243 OFFCURVE",
"290 260 CURVE SMOOTH",
"231 320 OFFCURVE",
"107 306 OFFCURVE",
"107 421 CURVE SMOOTH",
"107 430 OFFCURVE",
"108 438 OFFCURVE",
"109 448 CURVE SMOOTH",
"122 540 OFFCURVE",
"161 583 OFFCURVE",
"244 583 CURVE SMOOTH",
"308 583 OFFCURVE",
"344 550 OFFCURVE",
"344 492 CURVE SMOOTH",
"344 484 OFFCURVE",
"343 477 OFFCURVE",
"342 469 CURVE SMOOTH",
"336 429 LINE",
"348 429 LINE",
"354 469 LINE SMOOTH",
"355 478 OFFCURVE",
"356 486 OFFCURVE",
"356 494 CURVE SMOOTH",
"356 558 OFFCURVE",
"316 595 OFFCURVE",
"245 595 CURVE SMOOTH",
"153 595 OFFCURVE",
"110 544 OFFCURVE",
"97 448 CURVE SMOOTH",
"96 438 OFFCURVE",
"95 429 OFFCURVE",
"95 421 CURVE SMOOTH",
"95 347 OFFCURVE",
"143 320 OFFCURVE",
"194 298 CURVE SMOOTH",
"260 273 OFFCURVE",
"305 255 OFFCURVE",
"305 181 CURVE SMOOTH",
"305 171 OFFCURVE",
"304 159 OFFCURVE",
"302 146 CURVE SMOOTH",
"287 38 OFFCURVE",
"228 3 OFFCURVE",
"158 3 CURVE SMOOTH",
"101 3 OFFCURVE",
"62 28 OFFCURVE",
"62 111 CURVE SMOOTH",
"62 126 OFFCURVE",
"63 143 OFFCURVE",
"66 163 CURVE SMOOTH",
"67 175 LINE",
"55 175 LINE",
"54 163 LINE SMOOTH",
"51 143 OFFCURVE",
"50 125 OFFCURVE",
"50 109 CURVE SMOOTH",
"50 20 OFFCURVE",
"92 -9 OFFCURVE",
"157 -9 CURVE SMOOTH"
);
}
);
width = 409;
}
);
note = uni0405;
unicode = 0405;
},
{
color = 6;
glyphname = "E-cy";
lastChange = "2021-11-24 17:22:58 +0000";
layers = (
{
layerId = "9AA098C0-EDBC-463F-BC21-AFCD07A070D0";
paths = (
{
closed = 1;
nodes = (
"249 -12 OFFCURVE",
"309 2 OFFCURVE",
"325 118 CURVE SMOOTH",
"335 189 LINE",
"323 189 LINE",
"313 116 LINE SMOOTH",
"299 12 OFFCURVE",
"242 -3 OFFCURVE",
"172 -3 CURVE SMOOTH",
"111 -3 OFFCURVE",
"62 9 OFFCURVE",
"62 85 CURVE SMOOTH",
"62 94 OFFCURVE",
"62 105 OFFCURVE",
"64 116 CURVE SMOOTH",
"89 295 LINE",
"261 295 LINE",
"263 306 LINE",
"91 306 LINE",
"113 467 LINE SMOOTH",
"128 572 OFFCURVE",
"179 589 OFFCURVE",
"254 589 CURVE SMOOTH",
"320 589 OFFCURVE",
"365 577 OFFCURVE",
"365 505 CURVE SMOOTH",
"365 495 OFFCURVE",
"365 485 OFFCURVE",
"363 473 CURVE SMOOTH",
"350 381 LINE",
"362 381 LINE",
"375 469 LINE SMOOTH",
"377 482 OFFCURVE",
"377 493 OFFCURVE",
"377 503 CURVE SMOOTH",
"377 586 OFFCURVE",
"326 599 OFFCURVE",
"257 599 CURVE SMOOTH",
"180 599 OFFCURVE",
"118 585 OFFCURVE",
"102 469 CURVE SMOOTH",
"52 118 LINE SMOOTH",
"50 105 OFFCURVE",
"50 94 OFFCURVE",
"50 84 CURVE SMOOTH",
"50 1 OFFCURVE",
"101 -12 OFFCURVE",
"169 -12 CURVE SMOOTH"
);
}
);
width = 430;
}
);
note = uni0404;
unicode = 0404;
},
{
color = 6;
glyphname = "Ereversed-cy";
lastChange = "2021-11-24 17:22:58 +0000";
layers = (
{
layerId = "9AA098C0-EDBC-463F-BC21-AFCD07A070D0";
paths = (
{
closed = 1;
nodes = (
"249 -12 OFFCURVE",
"311 4 OFFCURVE",
"326 118 CURVE SMOOTH",
"376 469 LINE SMOOTH",
"378 482 OFFCURVE",
"379 494 OFFCURVE",
"379 504 CURVE SMOOTH",
"379 588 OFFCURVE",
"325 599 OFFCURVE",
"257 599 CURVE SMOOTH",
"180 599 OFFCURVE",
"118 583 OFFCURVE",
"103 469 CURVE SMOOTH",
"90 381 LINE",
"102 381 LINE",
"115 473 LINE SMOOTH",
"129 574 OFFCURVE",
"181 589 OFFCURVE",
"256 589 CURVE SMOOTH",
"322 589 OFFCURVE",
"366 576 OFFCURVE",
"366 502 CURVE SMOOTH",
"366 492 OFFCURVE",
"365 480 OFFCURVE",
"363 467 CURVE SMOOTH",
"341 306 LINE",
"169 306 LINE",
"167 295 LINE",
"339 295 LINE",
"314 116 LINE SMOOTH",
"300 12 OFFCURVE",
"243 -3 OFFCURVE",
"174 -3 CURVE SMOOTH",
"112 -3 OFFCURVE",
"63 9 OFFCURVE",
"63 85 CURVE SMOOTH",
"63 94 OFFCURVE",
"63 105 OFFCURVE",
"65 116 CURVE SMOOTH",
"75 189 LINE",
"63 189 LINE",
"53 118 LINE SMOOTH",
"51 105 OFFCURVE",
"50 93 OFFCURVE",
"50 82 CURVE SMOOTH",
"50 -1 OFFCURVE",
"102 -12 OFFCURVE",
"173 -12 CURVE SMOOTH"
);
}
);
width = 432;
}
);
note = uni042D;
unicode = 042D;
},
{
color = 6;
glyphname = "I-cy";
lastChange = "2021-11-24 17:22:56 +0000";
layers = (
{
layerId = "9AA098C0-EDBC-463F-BC21-AFCD07A070D0";
paths = (
{
closed = 1;
nodes = (
"62 0 LINE",
"144 591 LINE",
"132 591 LINE",
"50 0 LINE"
);
}
);
width = 203;
}
);
note = uni0406;
unicode = 0406;
},
{
color = 6;
glyphname = "Yi-cy";
lastChange = "2021-11-24 17:22:58 +0000";
layers = (
{
layerId = "9AA098C0-EDBC-463F-BC21-AFCD07A070D0";
paths = (
{
closed = 1;
nodes = (
"62 0 LINE",
"145 591 LINE",
"133 591 LINE",
"50 0 LINE"
);
},
{
closed = 1;
nodes = (
"112 651 OFFCURVE",
"119 657 OFFCURVE",
"119 670 CURVE SMOOTH",
"119 679 OFFCURVE",
"115 683 OFFCURVE",
"105 683 CURVE SMOOTH",
"94 683 OFFCURVE",
"88 678 OFFCURVE",
"87 667 CURVE SMOOTH",
"85 656 OFFCURVE",
"89 651 OFFCURVE",
"100 651 CURVE SMOOTH"
);
},
{
closed = 1;
nodes = (
"208 651 OFFCURVE",
"215 657 OFFCURVE",
"215 670 CURVE SMOOTH",
"215 679 OFFCURVE",
"211 683 OFFCURVE",
"201 683 CURVE SMOOTH",
"190 683 OFFCURVE",
"184 678 OFFCURVE",
"183 667 CURVE SMOOTH",
"181 656 OFFCURVE",
"185 651 OFFCURVE",
"196 651 CURVE SMOOTH"
);
}
);
width = 281;
}
);
note = uni0407;
unicode = 0407;
},
{
color = 6;
glyphname = "Je-cy";
lastChange = "2021-11-24 17:22:56 +0000";
layers = (
{
layerId = "9AA098C0-EDBC-463F-BC21-AFCD07A070D0";
paths = (
{
closed = 1;
nodes = (
"57 -1 OFFCURVE",
"65 0 OFFCURVE",
"72 0 CURVE SMOOTH",
"84 0 LINE SMOOTH",
"161 0 OFFCURVE",
"171 33 OFFCURVE",
"183 117 CURVE SMOOTH",
"249 591 LINE",
"237 591 LINE",
"167 86 LINE SMOOTH",
"159 29 OFFCURVE",
"133 10 OFFCURVE",
"85 10 CURVE SMOOTH",
"51 10 LINE",
"50 0 LINE"
);
}
);
width = 304;
}
);
note = uni0408;
unicode = 0408;
},
{
color = 6;
glyphname = "Tshe-cy";
lastChange = "2021-11-24 17:22:58 +0000";
layers = (
{
layerId = "9AA098C0-EDBC-463F-BC21-AFCD07A070D0";
paths = (
{
closed = 1;
nodes = (
"94 0 LINE",
"142 347 LINE",
"152 382 OFFCURVE",
"189 423 OFFCURVE",
"262 423 CURVE SMOOTH",
"339 423 OFFCURVE",
"356 388 OFFCURVE",
"356 346 CURVE SMOOTH",
"356 330 OFFCURVE",
"353 315 OFFCURVE",
"351 299 CURVE SMOOTH",
"310 0 LINE",
"322 0 LINE",
"364 302 LINE SMOOTH",
"366 316 OFFCURVE",
"368 331 OFFCURVE",
"368 345 CURVE SMOOTH",
"368 392 OFFCURVE",
"350 433 OFFCURVE",
"263 433 CURVE SMOOTH",
"200 433 OFFCURVE",
"165 406 OFFCURVE",
"146 375 CURVE",
"175 580 LINE",
"289 580 LINE",
"290 591 LINE",
"51 591 LINE",
"50 580 LINE",
"163 580 LINE",
"82 0 LINE"
);
}
);
width = 459;
}
);
note = uni040B;
unicode = 040B;
},
{
color = 6;
glyphname = "Iu-cy";
lastChange = "2021-11-24 17:22:58 +0000";
layers = (
{
layerId = "9AA098C0-EDBC-463F-BC21-AFCD07A070D0";
paths = (
{
closed = 1;
nodes = (
"424 -12 OFFCURVE",
"484 2 OFFCURVE",
"500 118 CURVE SMOOTH",
"550 469 LINE SMOOTH",
"552 482 OFFCURVE",
"552 493 OFFCURVE",
"552 503 CURVE SMOOTH",
"552 586 OFFCURVE",
"501 599 OFFCURVE",
"432 599 CURVE SMOOTH",
"355 599 OFFCURVE",
"293 585 OFFCURVE",
"277 469 CURVE SMOOTH",
"255 317 LINE",
"106 317 LINE",
"145 591 LINE",
"133 591 LINE",
"50 0 LINE",
"62 0 LINE",
"105 306 LINE",
"254 306 LINE",
"227 118 LINE SMOOTH",
"225 105 OFFCURVE",
"225 94 OFFCURVE",
"225 84 CURVE SMOOTH",
"225 1 OFFCURVE",
"276 -12 OFFCURVE",
"344 -12 CURVE SMOOTH"
);
},
{
closed = 1;
nodes = (
"286 -2 OFFCURVE",
"236 8 OFFCURVE",
"236 83 CURVE SMOOTH",
"236 93 OFFCURVE",
"237 103 OFFCURVE",
"239 115 CURVE SMOOTH",
"289 472 LINE SMOOTH",
"304 576 OFFCURVE",
"360 589 OFFCURVE",
"429 589 CURVE SMOOTH",
"489 589 OFFCURVE",
"540 579 OFFCURVE",
"540 503 CURVE SMOOTH",
"540 494 OFFCURVE",
"540 484 OFFCURVE",
"538 472 CURVE SMOOTH",
"488 115 LINE SMOOTH",
"473 11 OFFCURVE",
"417 -2 OFFCURVE",
"347 -2 CURVE SMOOTH"
);
}
);
width = 650;
}
);
note = uni042E;
unicode = 042E;
},
{
color = 6;
glyphname = "Ia-cy";
lastChange = "2021-11-24 17:22:58 +0000";
layers = (
{
layerId = "9AA098C0-EDBC-463F-BC21-AFCD07A070D0";
paths = (
{
closed = 1;
nodes = (
"64 0 LINE",
"153 205 LINE SMOOTH",
"177 257 OFFCURVE",
"208 292 OFFCURVE",
"249 292 CURVE SMOOTH",
"368 292 LINE",
"327 0 LINE",
"339 0 LINE",
"421 591 LINE",
"259 591 LINE SMOOTH",
"202 591 OFFCURVE",
"150 566 OFFCURVE",
"140 494 CURVE SMOOTH",
"128 411 LINE SMOOTH",
"127 403 OFFCURVE",
"126 395 OFFCURVE",
"126 388 CURVE SMOOTH",
"126 322 OFFCURVE",
"169 296 OFFCURVE",
"226 296 CURVE",
"194 293 OFFCURVE",
"163 256 OFFCURVE",
"150 224 CURVE SMOOTH",
"50 0 LINE"
);
},
{
closed = 1;
nodes = (
"183 303 OFFCURVE",
"138 326 OFFCURVE",
"138 388 CURVE SMOOTH",
"138 394 OFFCURVE",
"139 401 OFFCURVE",
"140 409 CURVE SMOOTH",
"152 496 LINE SMOOTH",
"160 553 OFFCURVE",
"205 580 OFFCURVE",
"250 580 CURVE SMOOTH",
"408 580 LINE",
"369 303 LINE",
"244 303 LINE SMOOTH"
);
}
);
width = 476;
}
);
note = uni042F;
unicode = 042F;
},
{
color = 6;
glyphname = "Dje-cy";
lastChange = "2021-11-24 17:22:58 +0000";
layers = (
{
layerId = "9AA098C0-EDBC-463F-BC21-AFCD07A070D0";
paths = (
{
closed = 1;
nodes = (
"94 0 LINE",
"142 347 LINE",
"152 382 OFFCURVE",
"189 423 OFFCURVE",
"262 423 CURVE SMOOTH",
"339 423 OFFCURVE",
"356 388 OFFCURVE",
"356 346 CURVE SMOOTH",
"356 330 OFFCURVE",
"353 315 OFFCURVE",
"351 299 CURVE SMOOTH",
"335 179 LINE SMOOTH",
"321 82 OFFCURVE",
"294 11 OFFCURVE",
"201 11 CURVE SMOOTH",
"189 11 LINE",
"188 0 LINE",
"201 0 LINE SMOOTH",
"273 0 OFFCURVE",
"325 27 OFFCURVE",
"347 180 CURVE SMOOTH",
"364 302 LINE SMOOTH",
"366 316 OFFCURVE",
"368 331 OFFCURVE",
"368 345 CURVE SMOOTH",
"368 392 OFFCURVE",
"350 433 OFFCURVE",
"263 433 CURVE SMOOTH",
"200 433 OFFCURVE",
"165 406 OFFCURVE",
"146 375 CURVE",
"175 580 LINE",
"289 580 LINE",
"290 591 LINE",
"51 591 LINE",
"50 580 LINE",
"163 580 LINE",
"82 0 LINE"
);
}
);
width = 431;
}
);
note = uni0402;
unicode = 0402;
},
{
glyphname = "Yat-cy";
lastChange = "2021-11-24 17:22:58 +0000";
layers = (
{
associatedMasterId = "9AA098C0-EDBC-463F-BC21-AFCD07A070D0";
background = {
components = (
{
name = hyphen;
transform = "{1.53882, 0, 0, 0.70397, -30, 313}";
}
);
paths = (
{
closed = 1;
nodes = (
"293 0 LINE SMOOTH",
"369 0 OFFCURVE",
"429 10 OFFCURVE",
"429 161 CURVE SMOOTH",
"429 324 LINE SMOOTH",
"429 423 OFFCURVE",
"367 436 OFFCURVE",
"318 436 CURVE SMOOTH",
"239 436 LINE",
"239 591 LINE",
"83 591 LINE",
"83 0 LINE"
);
},
{
closed = 1;
nodes = (
"239 341 LINE",
"256 341 LINE SMOOTH",
"272 341 OFFCURVE",
"273 330 OFFCURVE",
"273 291 CURVE SMOOTH",
"273 166 LINE SMOOTH",
"273 87 OFFCURVE",
"271 80 OFFCURVE",
"257 80 CURVE SMOOTH",
"239 80 LINE"
);
}
);
};
components = (
{
name = hyphen;
transform = "{1.53882, 0, 0, 0.70397, -30, 313}";
}
);
layerId = "CB6D0AD0-A775-4B9E-AA44-BD07B40E95F7";
name = Black;
paths = (
{
closed = 1;
nodes = (
"293 0 LINE SMOOTH",
"369 0 OFFCURVE",
"429 10 OFFCURVE",
"429 161 CURVE SMOOTH",
"429 324 LINE SMOOTH",
"429 423 OFFCURVE",
"367 436 OFFCURVE",
"318 436 CURVE SMOOTH",
"239 436 LINE",
"239 591 LINE",
"83 591 LINE",
"83 0 LINE"
);
},
{
closed = 1;
nodes = (
"239 341 LINE",
"256 341 LINE SMOOTH",
"272 341 OFFCURVE",
"273 330 OFFCURVE",
"273 291 CURVE SMOOTH",
"273 166 LINE SMOOTH",
"273 87 OFFCURVE",
"271 80 OFFCURVE",
"257 80 CURVE SMOOTH",
"239 80 LINE"
);
}
);
width = 454;
},
{
components = (
{
alignment = -1;
name = hyphen;
transform = "{1.39957, 0, 0.13864, 0.99129, -88, 278}";
}
);
layerId = "9AA098C0-EDBC-463F-BC21-AFCD07A070D0";
paths = (
{
closed = 1;
nodes = (
"147 0 LINE SMOOTH",
"260 0 OFFCURVE",
"276 69 OFFCURVE",
"284 131 CURVE SMOOTH",
"308 304 LINE SMOOTH",
"310 319 OFFCURVE",
"312 334 OFFCURVE",
"312 349 CURVE SMOOTH",
"312 395 OFFCURVE",
"294 435 OFFCURVE",
"208 435 CURVE SMOOTH",
"99 435 LINE",
"120 588 LINE",
"109 588 LINE",
"27 0 LINE"
);
},
{
closed = 1;
nodes = (
"97 425 LINE",
"206 425 LINE SMOOTH",
"284 425 OFFCURVE",
"301 388 OFFCURVE",
"301 344 CURVE SMOOTH",
"301 330 OFFCURVE",
"299 315 OFFCURVE",
"297 301 CURVE SMOOTH",
"274 134 LINE SMOOTH",
"265 75 OFFCURVE",
"251 10 OFFCURVE",
"148 10 CURVE SMOOTH",
"39 10 LINE"
);
}
);
width = 366;
}
);
unicode = 0462;
},
{
color = 4;
glyphname = "Yusbig-cy";
lastChange = "2021-11-24 17:22:56 +0000";
layers = (
{
associatedMasterId = "9AA098C0-EDBC-463F-BC21-AFCD07A070D0";
background = {
paths = (
{
closed = 1;
nodes = (
"197 0 LINE",
"233 230 LINE SMOOTH",
"237 253 OFFCURVE",
"240 276 OFFCURVE",
"244 299 CURVE",
"246 299 LINE",
"247 0 LINE",
"414 0 LINE",
"414 299 LINE",
"416 299 LINE",
"420 274 OFFCURVE",
"423 249 OFFCURVE",
"427 224 CURVE SMOOTH",
"464 0 LINE",
"641 0 LINE",
"586 253 LINE SMOOTH",
"576 300 OFFCURVE",
"546 332 OFFCURVE",
"505 335 CURVE SMOOTH",
"456 339 LINE",
"632 484 LINE",
"632 591 LINE",
"22 591 LINE",
"22 484 LINE",
"199 338 LINE",
"157 336 LINE SMOOTH",
"113 334 OFFCURVE",
"85 298 OFFCURVE",
"75 253 CURVE SMOOTH",
"20 0 LINE"
);
},
{
closed = 1;
nodes = (
"204 484 LINE",
"450 484 LINE",
"327 395 LINE"
);
}
);
};
layerId = "D5BAC71A-8A72-4CB3-B9B8-4C5BCE115656";
name = Black;
paths = (
{
closed = 1;
nodes = (
"197 0 LINE",
"233 230 LINE SMOOTH",
"237 253 OFFCURVE",
"240 276 OFFCURVE",
"244 299 CURVE",
"246 299 LINE",
"247 0 LINE",
"414 0 LINE",
"414 299 LINE",
"416 299 LINE",
"420 274 OFFCURVE",
"423 249 OFFCURVE",
"427 224 CURVE SMOOTH",
"464 0 LINE",
"641 0 LINE",
"586 253 LINE SMOOTH",
"576 300 OFFCURVE",
"546 332 OFFCURVE",
"505 335 CURVE SMOOTH",
"456 339 LINE",
"632 484 LINE",
"632 591 LINE",
"22 591 LINE",
"22 484 LINE",
"199 338 LINE",
"157 336 LINE SMOOTH",
"113 334 OFFCURVE",
"85 298 OFFCURVE",
"75 253 CURVE SMOOTH",
"20 0 LINE"
);
},
{
closed = 1;
nodes = (
"204 484 LINE",
"450 484 LINE",
"327 395 LINE"
);
}
);
width = 661;
},
{
layerId = "9AA098C0-EDBC-463F-BC21-AFCD07A070D0";
paths = (
{
closed = 1;
nodes = (
"39 0 LINE",
"132 223 LINE SMOOTH",
"150 265 OFFCURVE",
"179 315 OFFCURVE",
"226 315 CURVE SMOOTH",
"340 315 LINE",
"296 0 LINE",
"308 0 LINE",
"352 315 LINE",
"467 315 LINE SMOOTH",
"527 314 OFFCURVE",
"538 265 OFFCURVE",
"544 223 CURVE SMOOTH",
"575 0 LINE",
"588 0 LINE",
"554 226 LINE SMOOTH",
"547 274 OFFCURVE",
"535 325 OFFCURVE",
"467 325 CURVE SMOOTH",
"362 325 LINE",
"690 576 LINE",
"692 591 LINE",
"85 591 LINE",
"83 576 LINE",
"333 325 LINE",
"233 325 LINE SMOOTH",
"170 325 OFFCURVE",
"142 274 OFFCURVE",
"121 226 CURVE SMOOTH",
"25 0 LINE"
);
},
{
closed = 1;
nodes = (
"96 581 LINE",
"680 581 LINE",
"348 327 LINE"
);
}
);
width = 717;
}
);
unicode = 046A;
},
{
color = 6;
glyphname = "a-cy";
lastChange = "2021-11-24 17:22:58 +0000";
layers = (
{
layerId = "9AA098C0-EDBC-463F-BC21-AFCD07A070D0";
paths = (
{
closed = 1;
nodes = (
"173 -7 OFFCURVE",
"210 4 OFFCURVE",
"241 31 CURVE SMOOTH",
"256 46 OFFCURVE",
"268 62 OFFCURVE",
"276 79 CURVE",
"267 0 LINE",
"276 0 LINE",
"333 402 LINE SMOOTH",
"334 413 OFFCURVE",
"336 423 OFFCURVE",
"336 434 CURVE SMOOTH",
"336 472 OFFCURVE",
"318 502 OFFCURVE",
"235 502 CURVE SMOOTH",
"139 502 OFFCURVE",
"112 452 OFFCURVE",
"101 377 CURVE SMOOTH",
"95 334 LINE",
"106 334 LINE",
"112 375 LINE SMOOTH",
"122 448 OFFCURVE",
"145 493 OFFCURVE",
"233 493 CURVE SMOOTH",
"279 493 OFFCURVE",
"324 483 OFFCURVE",
"324 430 CURVE SMOOTH",
"324 425 OFFCURVE",
"324 420 OFFCURVE",
"323 414 CURVE SMOOTH",
"321 400 LINE SMOOTH",
"314 350 OFFCURVE",
"280 328 OFFCURVE",
"208 291 CURVE SMOOTH",
"168 270 OFFCURVE",
"71 237 OFFCURVE",
"58 146 CURVE SMOOTH",
"53 112 LINE SMOOTH",
"51 99 OFFCURVE",
"50 87 OFFCURVE",
"50 77 CURVE SMOOTH",
"50 -4 OFFCURVE",
"101 -7 OFFCURVE",
"137 -7 CURVE SMOOTH"
);
},
{
closed = 1;
nodes = (
"108 3 OFFCURVE",
"61 5 OFFCURVE",
"61 79 CURVE SMOOTH",
"61 89 OFFCURVE",
"62 100 OFFCURVE",
"64 112 CURVE SMOOTH",
"68 142 LINE SMOOTH",
"80 225 OFFCURVE",
"152 251 OFFCURVE",
"204 278 CURVE SMOOTH",
"252 303 OFFCURVE",
"297 323 OFFCURVE",
"315 357 CURVE",
"287 157 LINE SMOOTH",
"281 110 OFFCURVE",
"272 74 OFFCURVE",
"234 39 CURVE SMOOTH",
"206 14 OFFCURVE",
"174 3 OFFCURVE",
"141 3 CURVE SMOOTH"
);
}
);
width = 397;
}
);
note = uni0430;
unicode = 0430;
},
{
color = 6;
glyphname = "be-cy";
lastChange = "2021-11-24 17:22:58 +0000";
layers = (
{
layerId = "9AA098C0-EDBC-463F-BC21-AFCD07A070D0";
paths = (
{
closed = 1;
nodes = (
"271 -7 OFFCURVE",
"284 62 OFFCURVE",
"293 124 CURVE SMOOTH",
"320 316 LINE SMOOTH",
"322 330 OFFCURVE",
"324 345 OFFCURVE",
"324 359 CURVE SMOOTH",
"324 406 OFFCURVE",
"306 447 OFFCURVE",
"219 447 CURVE SMOOTH",
"152 447 OFFCURVE",
"120 424 OFFCURVE",
"103 393 CURVE",
"117 495 LINE SMOOTH",
"132 580 OFFCURVE",
"173 598 OFFCURVE",
"234 598 CURVE SMOOTH",
"260 598 LINE SMOOTH",
"295 598 OFFCURVE",
"320 603 OFFCURVE",
"322 618 CURVE SMOOTH",
"323 627 LINE",
"318 619 OFFCURVE",
"301 608 OFFCURVE",
"270 608 CURVE SMOOTH",
"233 608 LINE SMOOTH",
"170 608 OFFCURVE",
"119 592 OFFCURVE",
"106 495 CURVE SMOOTH",
"54 124 LINE SMOOTH",
"52 110 OFFCURVE",
"50 96 OFFCURVE",
"50 82 CURVE SMOOTH",
"50 34 OFFCURVE",
"69 -7 OFFCURVE",
"156 -7 CURVE SMOOTH"
);
},
{
closed = 1;
nodes = (
"78 3 OFFCURVE",
"61 41 OFFCURVE",
"61 85 CURVE SMOOTH",
"61 99 OFFCURVE",
"63 113 OFFCURVE",
"65 127 CURVE SMOOTH",
"94 331 LINE SMOOTH",
"101 384 OFFCURVE",
"125 437 OFFCURVE",
"218 437 CURVE SMOOTH",
"295 437 OFFCURVE",
"312 401 OFFCURVE",
"312 358 CURVE SMOOTH",
"312 343 OFFCURVE",
"310 328 OFFCURVE",
"308 313 CURVE SMOOTH",
"282 127 LINE SMOOTH",
"274 68 OFFCURVE",
"260 3 OFFCURVE",
"157 3 CURVE SMOOTH"
);
}
);
width = 386;
}
);
leftKerningGroup = uni0431;
note = uni0431;
unicode = 0431;
},
{
color = 6;
glyphname = "ve-cy";
lastChange = "2021-11-24 17:22:58 +0000";
layers = (
{
layerId = "9AA098C0-EDBC-463F-BC21-AFCD07A070D0";
paths = (
{
closed = 1;
nodes = (
"186 0 LINE SMOOTH",
"259 0 OFFCURVE",
"310 16 OFFCURVE",
"324 120 CURVE SMOOTH",
"330 161 LINE SMOOTH",
"331 167 OFFCURVE",
"331 173 OFFCURVE",
"331 179 CURVE SMOOTH",
"331 230 OFFCURVE",
"301 264 OFFCURVE",
"251 264 CURVE",
"309 273 OFFCURVE",
"344 300 OFFCURVE",
"352 356 CURVE SMOOTH",
"358 398 LINE SMOOTH",
"359 405 OFFCURVE",
"359 411 OFFCURVE",
"359 417 CURVE SMOOTH",
"359 475 OFFCURVE",
"318 495 OFFCURVE",
"265 495 CURVE SMOOTH",
"120 495 LINE",
"50 0 LINE"
);
},
{
closed = 1;
nodes = (
"98 258 LINE",
"211 258 LINE SMOOTH",
"268 258 OFFCURVE",
"319 244 OFFCURVE",
"319 178 CURVE SMOOTH",
"319 171 OFFCURVE",
"318 164 OFFCURVE",
"317 156 CURVE SMOOTH",
"313 125 LINE SMOOTH",
"299 26 OFFCURVE",
"255 11 OFFCURVE",
"185 11 CURVE SMOOTH",
"64 11 LINE"
);
},
{
closed = 1;
nodes = (
"130 484 LINE",
"263 484 LINE SMOOTH",
"313 484 OFFCURVE",
"347 462 OFFCURVE",
"347 415 CURVE SMOOTH",
"347 410 OFFCURVE",
"347 405 OFFCURVE",
"346 400 CURVE SMOOTH",
"340 357 LINE SMOOTH",
"331 292 OFFCURVE",
"289 269 OFFCURVE",
"212 269 CURVE SMOOTH",
"100 269 LINE"
);
}
);
width = 417;
}
);
leftKerningGroup = uni0431;
note = uni0432;
rightKerningGroup = uni0432;
unicode = 0432;
},
{
color = 6;
glyphname = "ge-cy";
lastChange = "2021-11-24 17:22:56 +0000";
layers = (
{
layerId = "9AA098C0-EDBC-463F-BC21-AFCD07A070D0";
paths = (
{
closed = 1;
nodes = (
"62 0 LINE",
"130 484 LINE",
"331 484 LINE",
"333 495 LINE",
"120 495 LINE",
"50 0 LINE"
);
}
);
width = 343;
}
);
leftKerningGroup = uni0431;
note = uni0433;
unicode = 0433;
},
{
color = 6;
glyphname = "gje-cy";
lastChange = "2021-11-24 17:22:56 +0000";
layers = (
{
layerId = "9AA098C0-EDBC-463F-BC21-AFCD07A070D0";
paths = (
{
closed = 1;
nodes = (
"62 0 LINE",
"130 484 LINE",
"331 484 LINE",
"332 495 LINE",
"119 495 LINE",
"50 0 LINE"
);
},
{
closed = 1;
nodes = (
"212 544 LINE",
"297 630 LINE",
"275 630 LINE",
"201 544 LINE"
);
}
);
width = 395;
}
);
leftKerningGroup = uni0431;
note = uni0453;
unicode = 0453;
},
{
color = 6;
glyphname = "de-cy";
lastChange = "2021-11-24 17:22:56 +0000";
layers = (
{
layerId = "9AA098C0-EDBC-463F-BC21-AFCD07A070D0";
paths = (
{
closed = 1;
nodes = (
"21 -99 LINE",
"35 0 LINE",
"417 0 LINE",
"403 -99 LINE",
"414 -99 LINE",
"430 11 LINE",
"357 11 LINE",
"425 495 LINE",
"225 495 LINE",
"133 92 LINE SMOOTH",
"122 40 OFFCURVE",
"104 13 OFFCURVE",
"81 11 CURVE",
"26 11 LINE",
"10 -99 LINE"
);
},
{
closed = 1;
nodes = (
"133 32 OFFCURVE",
"143 80 OFFCURVE",
"145 92 CURVE SMOOTH",
"235 484 LINE",
"411 484 LINE",
"345 11 LINE",
"106 11 LINE"
);
}
);
width = 459;
}
);
note = uni0434;
rightKerningGroup = uni0432;
unicode = 0434;
},
{
color = 6;
glyphname = "ie-cy";
lastChange = "2021-11-24 17:22:58 +0000";
layers = (
{
layerId = "9AA098C0-EDBC-463F-BC21-AFCD07A070D0";
paths = (
{
closed = 1;
nodes = (
"268 -7 OFFCURVE",
"284 62 OFFCURVE",
"293 124 CURVE SMOOTH",
"299 167 LINE",
"288 167 LINE",
"282 127 LINE SMOOTH",
"274 68 OFFCURVE",
"260 3 OFFCURVE",
"157 3 CURVE SMOOTH",
"78 3 OFFCURVE",
"61 40 OFFCURVE",
"61 84 CURVE SMOOTH",
"61 98 OFFCURVE",
"63 113 OFFCURVE",
"65 127 CURVE SMOOTH",
"84 263 LINE",
"312 263 LINE",
"327 372 LINE SMOOTH",
"329 387 OFFCURVE",
"331 402 OFFCURVE",
"331 417 CURVE SMOOTH",
"331 463 OFFCURVE",
"313 503 OFFCURVE",
"227 503 CURVE SMOOTH",
"112 503 OFFCURVE",
"97 433 OFFCURVE",
"88 372 CURVE SMOOTH",
"54 124 LINE SMOOTH",
"52 109 OFFCURVE",
"50 93 OFFCURVE",
"50 78 CURVE SMOOTH",
"50 32 OFFCURVE",
"68 -7 OFFCURVE",
"155 -7 CURVE SMOOTH"
);
},
{
closed = 1;
nodes = (
"85 273 LINE",
"99 369 LINE SMOOTH",
"107 428 OFFCURVE",
"121 493 OFFCURVE",
"225 493 CURVE SMOOTH",
"303 493 OFFCURVE",
"320 456 OFFCURVE",
"320 412 CURVE SMOOTH",
"320 398 OFFCURVE",
"318 383 OFFCURVE",
"316 369 CURVE SMOOTH",
"302 273 LINE"
);
}
);
width = 394;
}
);
leftKerningGroup = uni0431;
note = uni0435;
unicode = 0435;
},
